{"glyphs":{"\r":{"ha":0,"x_min":0,"x_max":0,"o":""}," ":{"ha":380,"x_min":0,"x_max":0,"o":""},"":{"ha":1389,"x_min":0,"x_max":1389,"o":"m 1389 955 l 0 955 l 0 1042 l 1389 1042 l 1389 955 l 1389 955 m 1389 260 l 0 260 l 0 347 l 1389 347 l 1389 260 l 1389 260 m 1389 608 l 0 608 l 0 694 l 1389 694 l 1389 608 l 1389 608 z "},"":{"ha":1389,"x_min":13,"x_max":1376,"o":"m 1315 1072 l 1376 1011 l 694 330 l 13 1011 l 74 1072 l 694 452 l 1315 1072 z "},"":{"ha":1389,"x_min":0,"x_max":1389,"o":"m 1389 738 l 1389 651 l 738 651 l 738 0 l 651 0 l 651 651 l 0 651 l 0 738 l 651 738 l 651 1389 l 738 1389 l 738 738 l 1389 738 z "},"":{"ha":1389,"x_min":165,"x_max":1224,"o":"m 756 694 l 1224 226 l 1163 165 l 694 633 l 226 165 l 165 226 l 633 694 l 165 1163 l 226 1224 l 694 756 l 1163 1224 l 1224 1163 l 756 694 z "},"":{"ha":1389,"x_min":4,"x_max":1385,"o":"m 1209 719 q 1210 707 1209 713 q 1210 694 1210 701 q 1210 682 1210 688 q 1209 670 1209 676 l 1385 561 l 1277 301 l 1076 347 q 1042 313 1059 330 l 1088 112 l 828 4 l 719 180 q 707 179 713 180 q 694 179 701 179 q 682 179 688 179 q 670 180 676 180 l 561 4 l 301 112 l 347 313 q 313 347 330 330 l 112 301 l 4 561 l 180 670 q 179 682 180 676 q 179 694 179 688 q 179 707 179 701 q 180 719 180 713 l 4 828 l 112 1088 l 313 1042 q 347 1076 330 1059 l 301 1277 l 561 1385 l 670 1209 q 682 1210 676 1209 q 694 1210 688 1210 q 707 1210 701 1210 q 719 1209 713 1209 l 828 1385 l 1088 1277 l 1042 1076 q 1076 1042 1059 1059 l 1277 1088 l 1385 828 l 1209 719 m 1130 631 q 1133 663 1131 647 q 1134 695 1134 679 q 1133 727 1134 711 q 1130 759 1131 743 l 1290 859 l 1232 1000 l 1048 957 q 1005 1004 1027 983 q 957 1048 983 1026 l 1000 1232 l 859 1290 l 758 1130 q 726 1133 743 1131 q 694 1134 710 1134 q 662 1133 678 1134 q 630 1130 646 1131 l 530 1290 l 389 1232 l 432 1048 q 385 1005 406 1027 q 341 957 363 983 l 157 1000 l 99 859 l 259 758 q 256 726 258 742 q 255 694 255 710 q 256 662 255 678 q 259 630 258 646 l 99 530 l 157 389 l 341 432 q 384 385 362 406 q 432 341 406 363 l 389 157 l 530 99 l 631 259 q 663 256 646 258 q 694 255 679 255 q 727 256 711 255 q 759 259 743 258 l 859 99 l 1000 157 l 957 341 q 1004 384 983 362 q 1048 432 1026 406 l 1232 389 l 1290 530 l 1130 631 m 694 949 q 794 929 747 949 q 875 875 840 909 q 929 794 909 840 q 949 694 949 747 q 929 595 949 642 q 875 514 909 549 q 794 459 840 479 q 694 439 747 439 q 595 459 642 439 q 514 514 549 479 q 459 595 479 549 q 439 694 439 642 q 459 794 439 747 q 514 875 479 840 q 595 929 549 909 q 694 949 642 949 m 694 515 q 764 529 732 515 q 821 568 797 543 q 860 625 846 592 q 873 694 873 657 q 860 764 873 732 q 821 821 846 797 q 764 860 797 846 q 694 873 732 873 q 625 860 657 873 q 568 821 592 846 q 529 764 543 797 q 515 694 515 732 q 529 625 515 657 q 568 568 543 592 q 625 529 592 543 q 694 515 657 515 z "},"":{"ha":1389,"x_min":0,"x_max":1389,"o":"m 1389 1128 l 1389 260 l 0 260 l 0 1128 l 1389 1128 m 97 1042 l 694 743 l 1292 1042 l 97 1042 m 1302 347 l 1302 949 l 694 646 l 87 949 l 87 347 l 1302 347 z "},"":{"ha":1389,"x_min":0,"x_max":1389,"o":"m 1389 1042 l 1389 434 l 1345 434 q 1249 457 1293 434 q 1173 521 1204 479 l 838 521 q 790 449 819 481 q 726 394 762 416 q 649 359 690 372 q 564 347 608 347 l 521 347 l 521 694 l 87 694 l 0 738 l 87 781 l 521 781 l 521 1128 l 564 1128 q 649 1116 608 1128 q 726 1082 690 1104 q 790 1027 762 1059 q 838 955 819 995 l 1173 955 q 1249 1019 1204 996 q 1345 1042 1293 1042 l 1389 1042 m 1302 947 q 1274 934 1286 942 q 1254 916 1263 926 q 1237 894 1244 906 q 1221 868 1229 882 l 778 868 l 768 897 q 706 988 749 951 q 608 1037 663 1025 l 608 439 q 706 488 663 450 q 768 578 749 525 l 778 608 l 1221 608 q 1237 582 1229 594 q 1254 560 1244 570 q 1274 542 1263 550 q 1302 528 1286 534 l 1302 947 z "},"":{"ha":1389,"x_min":0,"x_max":1389,"o":"m 1389 1302 l 1389 1154 l 868 633 l 868 87 l 521 87 l 521 633 l 0 1154 l 0 1302 l 1389 1302 m 1302 1215 l 87 1215 l 87 1190 l 608 669 l 608 174 l 781 174 l 781 669 l 1302 1190 l 1302 1215 z "},"":{"ha":1389,"x_min":0,"x_max":1345,"o":"m 955 347 l 1042 434 l 1042 174 l 0 174 l 0 1042 l 87 1042 l 87 260 l 955 260 l 955 347 m 868 694 q 698 677 781 694 q 538 626 615 660 q 390 544 460 593 q 260 434 320 496 l 260 521 q 282 683 260 605 q 343 828 304 760 q 438 950 383 895 q 561 1045 494 1006 q 706 1107 629 1085 q 868 1128 784 1128 l 868 1389 l 1345 911 l 868 434 l 868 694 m 937 1042 q 865 1041 899 1042 q 800 1037 832 1040 q 734 1024 767 1033 q 665 1001 702 1016 q 556 939 606 977 q 466 852 505 901 q 398 747 426 804 q 358 628 371 690 q 602 743 472 704 q 868 781 731 781 l 955 781 l 955 644 l 1223 911 l 955 1179 l 955 1042 l 937 1042 z "},"":{"ha":1389,"x_min":0,"x_max":1389,"o":"m 1389 651 l 0 651 l 0 738 l 1389 738 l 1389 651 z "},"":{"ha":1389,"x_min":186,"x_max":1215,"o":"m 1215 694 l 1215 174 l 694 174 l 694 260 l 1067 260 l 186 1141 l 248 1202 l 1128 322 l 1128 694 l 1215 694 z "},"":{"ha":1389,"x_min":174,"x_max":1202,"o":"m 1141 186 l 260 1069 l 260 694 l 174 694 l 174 1215 l 694 1215 l 694 1128 l 323 1128 l 1202 248 l 1141 186 z "},"":{"ha":1389,"x_min":0,"x_max":1389,"o":"m 1389 1389 l 1389 0 l 0 0 l 0 1389 l 1389 1389 m 1302 1302 l 87 1302 l 87 434 l 434 434 l 434 87 l 1302 87 l 1302 1302 z "},"":{"ha":1389,"x_min":0,"x_max":1389,"o":"m 1389 1389 l 1389 0 l 0 0 l 0 1389 l 1389 1389 m 1302 1302 l 87 1302 l 87 694 l 694 694 l 694 87 l 1302 87 l 1302 1302 z "},"":{"ha":1389,"x_min":0,"x_max":1389,"o":"m 1389 1389 l 1389 0 l 0 0 l 0 1389 l 1389 1389 m 1302 694 l 1302 1302 l 87 1302 l 87 694 l 1302 694 z "},"":{"ha":1389,"x_min":0,"x_max":1389,"o":"m 1389 1389 l 1389 0 l 0 0 l 0 1389 l 1389 1389 m 1302 1302 l 694 1302 l 694 87 l 1302 87 l 1302 1302 z "},"":{"ha":1389,"x_min":0,"x_max":1389,"o":"m 1389 1389 l 1389 0 l 0 0 l 0 1389 l 1389 1389 z "},"":{"ha":1389,"x_min":0,"x_max":1318,"o":"m 908 608 l 781 608 q 658 672 725 650 q 521 694 591 694 q 406 679 461 694 q 302 635 350 663 q 214 567 254 607 q 146 479 174 528 q 102 376 118 431 q 87 260 87 320 l 0 260 q 24 417 0 342 q 92 556 48 492 q 198 669 136 620 q 336 747 260 719 q 268 803 298 771 q 217 873 238 836 q 185 954 196 911 q 174 1042 174 997 q 201 1177 174 1114 q 276 1287 229 1240 q 386 1361 323 1334 q 521 1389 449 1389 q 656 1361 593 1389 q 766 1287 719 1334 q 841 1177 813 1240 q 868 1042 868 1114 q 857 954 868 997 q 825 873 846 911 q 773 803 804 836 q 705 747 743 771 q 815 690 764 726 q 908 608 867 654 m 260 1042 q 281 940 260 987 q 337 858 301 893 q 419 802 372 822 q 521 781 467 781 q 622 802 574 781 q 705 858 669 822 q 761 940 741 893 q 781 1042 781 987 q 761 1143 781 1095 q 705 1226 741 1190 q 622 1282 669 1261 q 521 1302 574 1302 q 419 1282 467 1302 q 337 1226 372 1261 q 281 1143 301 1190 q 260 1042 260 1095 m 781 521 l 1157 521 l 1099 578 l 1158 637 l 1318 477 l 1158 318 l 1099 376 l 1157 434 l 781 434 l 781 521 m 984 318 l 926 260 l 1302 260 l 1302 174 l 926 174 l 984 116 l 926 58 l 766 217 l 926 376 l 984 318 z "},"":{"ha":1389,"x_min":0,"x_max":1389,"o":"m 1302 868 q 1336 861 1320 868 q 1363 843 1352 854 q 1382 815 1375 831 q 1389 781 1389 799 l 1389 174 l 1042 174 l 1042 0 l 347 0 l 347 174 l 0 174 l 0 781 q 7 815 0 799 q 25 843 14 831 q 53 861 37 854 q 87 868 69 868 l 347 868 l 347 1389 l 1042 1389 l 1042 868 l 1302 868 m 434 868 l 955 868 l 955 1302 l 434 1302 l 434 868 m 955 434 l 434 434 l 434 87 l 955 87 l 955 434 m 1302 781 l 87 781 l 87 260 l 347 260 l 347 521 l 1042 521 l 1042 260 l 1302 260 l 1302 781 m 217 694 q 248 682 235 694 q 260 651 260 669 q 248 621 260 633 q 217 608 235 608 q 186 621 199 608 q 174 651 174 633 q 186 682 174 669 q 217 694 199 694 z "},"":{"ha":1389,"x_min":0,"x_max":1389,"o":"m 621 508 l 806 694 l 621 881 l 682 942 l 868 756 l 1055 942 l 1116 881 l 930 694 l 1116 508 l 1055 447 l 868 633 l 682 447 l 621 508 m 1389 1215 l 1389 174 l 521 174 l 0 694 l 521 1215 l 1389 1215 m 1302 1128 l 557 1128 l 123 694 l 557 260 l 1302 260 l 1302 1128 z "},"":{"ha":1389,"x_min":156,"x_max":1215,"o":"m 1215 608 l 322 608 l 638 291 l 577 230 l 156 651 l 577 1072 l 638 1011 l 322 694 l 1128 694 l 1128 1128 l 1215 1128 l 1215 608 z "},"":{"ha":1389,"x_min":317,"x_max":1159,"o":"m 1098 751 l 781 1067 l 781 174 l 694 174 l 694 1067 l 378 751 l 317 812 l 738 1233 l 1159 812 l 1098 751 z "},"":{"ha":1389,"x_min":174,"x_max":1215,"o":"m 1215 521 l 174 521 l 174 868 l 260 868 l 260 608 l 1128 608 l 1128 868 l 1215 868 l 1215 521 z "},"":{"ha":1389,"x_min":94,"x_max":1302,"o":"m 698 1302 q 858 1280 781 1302 q 1002 1219 935 1259 q 1125 1125 1069 1180 q 1219 1002 1180 1069 q 1280 858 1259 935 q 1302 698 1302 781 q 1280 537 1302 614 q 1219 393 1259 460 q 1125 271 1180 326 q 1002 176 1069 216 q 858 115 935 137 q 698 94 781 94 q 537 115 614 94 q 393 176 460 137 q 271 271 326 216 q 176 393 216 326 q 115 537 137 460 q 94 698 94 614 q 115 858 94 781 q 176 1002 137 935 q 271 1125 216 1069 q 393 1219 326 1180 q 537 1280 460 1259 q 698 1302 614 1302 m 698 180 q 835 199 769 180 q 959 251 901 218 q 1064 332 1017 285 q 1144 437 1111 379 q 1197 561 1178 494 q 1215 698 1215 627 q 1197 835 1215 769 q 1144 959 1178 901 q 1063 1063 1111 1016 q 959 1144 1016 1111 q 835 1197 901 1178 q 698 1215 769 1215 q 561 1197 627 1215 q 437 1144 494 1178 q 332 1064 379 1111 q 251 959 285 1017 q 199 835 218 901 q 180 698 180 769 q 199 561 180 627 q 251 437 218 494 q 332 332 285 379 q 437 251 379 285 q 561 199 494 218 q 698 180 627 180 m 833 946 l 583 694 l 833 443 l 772 382 l 459 694 l 772 1007 l 833 946 z "},"":{"ha":1389,"x_min":94,"x_max":1302,"o":"m 698 1215 q 561 1197 627 1215 q 437 1144 494 1178 q 332 1064 379 1111 q 251 959 285 1017 q 199 835 218 901 q 180 698 180 769 q 199 561 180 627 q 251 437 218 494 q 332 332 285 379 q 437 251 379 285 q 561 199 494 218 q 698 180 627 180 q 835 199 769 180 q 959 251 901 218 q 1064 332 1017 285 q 1144 437 1111 379 q 1197 561 1178 494 q 1215 698 1215 627 q 1197 835 1215 769 q 1144 959 1178 901 q 1063 1063 1111 1016 q 959 1144 1016 1111 q 835 1197 901 1178 q 698 1215 769 1215 m 698 1302 q 858 1280 781 1302 q 1002 1219 935 1259 q 1125 1125 1069 1180 q 1219 1002 1180 1069 q 1280 858 1259 935 q 1302 698 1302 781 q 1280 537 1302 614 q 1219 393 1259 460 q 1125 271 1180 326 q 1002 176 1069 216 q 858 115 935 137 q 698 94 781 94 q 537 115 614 94 q 393 176 460 137 q 271 271 326 216 q 176 393 216 326 q 115 537 137 460 q 94 698 94 614 q 115 858 94 781 q 176 1002 137 935 q 271 1125 216 1069 q 393 1219 326 1180 q 537 1280 460 1259 q 698 1302 614 1302 m 638 382 l 577 443 l 828 694 l 577 946 l 638 1007 l 951 694 l 638 382 z "},"":{"ha":1389,"x_min":0,"x_max":1302,"o":"m 1209 1128 q 1246 1120 1230 1128 q 1276 1099 1263 1112 q 1295 1068 1288 1086 q 1302 1031 1302 1050 l 1302 445 q 1295 408 1302 425 q 1276 377 1288 390 q 1246 355 1263 363 q 1209 347 1230 347 l 93 347 q 56 355 73 347 q 26 377 39 363 q 7 408 14 390 q 0 445 0 425 l 0 1031 q 7 1068 0 1050 q 26 1099 14 1086 q 56 1120 39 1112 q 93 1128 73 1128 l 1209 1128 m 1215 1031 q 1209 1042 1215 1038 l 93 1042 q 87 1031 87 1038 l 87 445 q 93 434 87 437 l 1209 434 q 1215 445 1215 437 l 1215 1031 m 174 781 l 347 781 l 347 694 l 174 694 l 174 781 m 174 608 l 347 608 l 347 521 l 174 521 l 174 608 m 434 608 l 694 608 l 694 521 l 434 521 l 434 608 m 434 781 l 521 781 l 521 694 l 434 694 l 434 781 m 434 868 l 347 868 l 347 955 l 434 955 l 434 868 m 260 868 l 174 868 l 174 955 l 260 955 l 260 868 z "},"":{"ha":1389,"x_min":0,"x_max":1302,"o":"m 1209 1128 q 1246 1120 1230 1128 q 1276 1099 1263 1112 q 1295 1068 1288 1086 q 1302 1031 1302 1050 l 1302 445 q 1295 408 1302 425 q 1276 377 1288 390 q 1246 355 1263 363 q 1209 347 1230 347 l 93 347 q 56 355 73 347 q 26 377 39 363 q 7 408 14 390 q 0 445 0 425 l 0 1031 q 7 1068 0 1050 q 26 1099 14 1086 q 56 1120 39 1112 q 93 1128 73 1128 l 1209 1128 m 1215 1031 q 1209 1042 1215 1038 l 93 1042 q 87 1031 87 1038 l 87 445 q 93 434 87 437 l 1209 434 q 1215 445 1215 437 l 1215 1031 m 955 781 l 1128 781 l 1128 694 l 955 694 l 955 781 m 955 608 l 1128 608 l 1128 521 l 955 521 l 955 608 m 608 608 l 868 608 l 868 521 l 608 521 l 608 608 m 781 781 l 868 781 l 868 694 l 781 694 l 781 781 m 955 868 l 868 868 l 868 955 l 955 955 l 955 868 m 1042 955 l 1128 955 l 1128 868 l 1042 868 l 1042 955 z "},"":{"ha":1389,"x_min":0,"x_max":1302,"o":"m 1209 1128 q 1246 1120 1230 1128 q 1276 1099 1263 1112 q 1295 1068 1288 1086 q 1302 1031 1302 1050 l 1302 445 q 1295 408 1302 425 q 1276 377 1288 390 q 1246 355 1263 363 q 1209 347 1230 347 l 93 347 q 56 355 73 347 q 26 377 39 363 q 7 408 14 390 q 0 445 0 425 l 0 1031 q 7 1068 0 1050 q 26 1099 14 1086 q 56 1120 39 1112 q 93 1128 73 1128 l 1209 1128 m 1215 1031 q 1209 1042 1215 1038 l 93 1042 q 87 1031 87 1038 l 87 445 q 93 434 87 437 l 1209 434 q 1215 445 1215 437 l 1215 1031 m 260 868 l 174 868 l 174 955 l 260 955 l 260 868 m 174 781 l 347 781 l 347 694 l 174 694 l 174 781 m 955 781 l 1128 781 l 1128 694 l 955 694 l 955 781 m 955 608 l 1128 608 l 1128 521 l 955 521 l 955 608 m 174 608 l 347 608 l 347 521 l 174 521 l 174 608 m 434 608 l 868 608 l 868 521 l 434 521 l 434 608 m 434 868 l 347 868 l 347 955 l 434 955 l 434 868 m 434 781 l 521 781 l 521 694 l 434 694 l 434 781 m 608 781 l 694 781 l 694 694 l 608 694 l 608 781 m 781 781 l 868 781 l 868 694 l 781 694 l 781 781 m 608 868 l 521 868 l 521 955 l 608 955 l 608 868 m 781 868 l 694 868 l 694 955 l 781 955 l 781 868 m 955 868 l 868 868 l 868 955 l 955 955 l 955 868 m 1042 955 l 1128 955 l 1128 868 l 1042 868 l 1042 955 z "},"":{"ha":1389,"x_min":0,"x_max":1302,"o":"m 1209 1128 q 1246 1121 1230 1128 q 1276 1099 1263 1113 q 1295 1068 1288 1086 q 1302 1031 1302 1050 l 1302 445 q 1295 408 1302 425 q 1276 376 1288 390 q 1246 355 1263 363 q 1209 347 1230 347 l 93 347 q 56 355 73 347 q 26 376 39 363 q 7 408 14 390 q 0 445 0 425 l 0 1031 q 7 1068 0 1050 q 26 1099 14 1086 q 56 1121 39 1113 q 93 1128 73 1128 l 1209 1128 m 1215 1031 q 1214 1037 1215 1033 q 1209 1042 1213 1042 l 93 1042 q 88 1037 90 1042 q 87 1031 87 1033 l 87 445 q 88 438 87 443 q 93 434 90 434 l 1209 434 q 1214 438 1213 434 q 1215 445 1215 443 l 1215 1031 m 174 955 l 260 955 l 260 868 l 174 868 l 174 955 m 1042 608 l 1128 608 l 1128 521 l 1042 521 l 1042 608 m 174 608 l 260 608 l 260 521 l 174 521 l 174 608 m 347 608 l 521 608 l 521 521 l 347 521 l 347 608 m 781 608 l 955 608 l 955 521 l 781 521 l 781 608 m 434 868 l 347 868 l 347 955 l 434 955 l 434 868 m 174 781 l 260 781 l 260 694 l 174 694 l 174 781 m 434 694 l 347 694 l 347 781 l 434 781 l 434 694 m 868 781 l 955 781 l 955 694 l 868 694 l 868 781 m 1042 781 l 1128 781 l 1128 694 l 1042 694 l 1042 781 m 868 955 l 955 955 l 955 868 l 868 868 l 868 955 m 1042 955 l 1128 955 l 1128 868 l 1042 868 l 1042 955 z "},"":{"ha":1389,"x_min":0,"x_max":1389,"o":"m 434 781 q 400 788 416 781 q 373 807 385 795 q 354 834 361 819 q 347 868 347 850 q 354 902 347 886 q 373 929 361 918 q 400 948 385 941 q 434 955 416 955 q 468 948 452 955 q 495 929 484 941 q 514 902 507 918 q 521 868 521 886 q 514 834 521 850 q 495 807 507 819 q 468 788 484 795 q 434 781 452 781 m 955 781 q 921 788 937 781 q 893 807 905 795 q 875 834 882 819 q 868 868 868 850 q 875 902 868 886 q 893 929 882 918 q 921 948 905 941 q 955 955 937 955 q 989 948 973 955 q 1016 929 1004 941 q 1035 902 1028 918 q 1042 868 1042 886 q 1035 834 1042 850 q 1016 807 1028 819 q 989 788 1004 795 q 955 781 973 781 m 694 1389 q 879 1364 790 1389 q 1045 1294 968 1339 q 1186 1186 1122 1249 q 1294 1045 1249 1122 q 1364 879 1339 968 q 1389 694 1389 790 q 1364 510 1389 599 q 1294 344 1339 421 q 1186 203 1249 267 q 1045 95 1122 140 q 879 25 968 50 q 694 0 790 0 q 510 25 599 0 q 344 95 421 50 q 203 203 267 140 q 95 344 140 267 q 25 510 50 421 q 0 694 0 598 q 25 879 0 790 q 95 1045 50 968 q 203 1186 140 1122 q 344 1294 267 1249 q 510 1364 421 1339 q 694 1389 598 1389 m 694 87 q 856 109 778 87 q 1001 170 933 130 q 1124 265 1068 210 q 1219 388 1179 321 q 1280 533 1259 456 q 1302 694 1302 610 q 1280 856 1302 778 q 1219 1001 1259 933 q 1124 1124 1179 1068 q 1001 1219 1068 1179 q 856 1280 933 1259 q 694 1302 778 1302 q 533 1280 611 1302 q 388 1219 456 1259 q 265 1124 321 1179 q 170 1001 210 1068 q 109 856 130 933 q 87 694 87 778 q 109 533 87 611 q 170 388 130 456 q 265 265 210 321 q 388 170 321 210 q 533 109 456 130 q 694 87 610 87 m 694 347 q 790 361 744 347 q 877 399 837 374 q 949 460 917 425 q 1004 541 981 496 l 1082 501 q 1013 401 1054 446 q 922 326 972 357 q 814 277 872 294 q 694 260 756 260 q 574 277 632 260 q 467 326 517 294 q 376 401 416 357 q 307 501 335 446 l 385 541 q 440 460 408 496 q 512 399 472 425 q 598 361 552 374 q 694 347 644 347 z "},"":{"ha":1389,"x_min":0,"x_max":1389,"o":"m 0 1302 l 1389 1302 l 1389 347 l 496 347 l 174 25 l 174 347 l 0 347 l 0 1302 m 1302 434 l 1302 1215 l 87 1215 l 87 434 l 260 434 l 260 235 l 459 434 l 1302 434 z "},"":{"ha":1389,"x_min":0,"x_max":1389,"o":"m 924 1047 l 985 985 l 694 694 l 404 985 l 465 1047 l 652 861 l 652 1215 l 737 1215 l 737 861 l 924 1047 m 694 1389 q 879 1364 790 1389 q 1044 1294 967 1339 q 1185 1185 1122 1249 q 1294 1044 1249 1122 q 1364 879 1339 967 q 1389 694 1389 790 q 1364 510 1389 599 q 1294 345 1339 422 q 1185 204 1249 267 q 1044 95 1122 140 q 879 25 967 50 q 694 0 790 0 q 510 25 599 0 q 345 95 422 50 q 204 204 267 140 q 95 345 140 267 q 25 510 50 422 q 0 694 0 599 q 25 879 0 790 q 95 1044 50 967 q 204 1185 140 1122 q 345 1294 267 1249 q 510 1364 422 1339 q 694 1389 599 1389 m 112 521 q 127 477 119 498 q 145 435 136 456 l 804 435 l 789 521 l 112 521 m 552 347 l 524 261 l 837 261 l 821 347 l 552 347 m 460 347 l 196 347 q 287 244 236 290 q 399 163 338 197 l 460 347 m 694 87 q 865 111 782 87 l 853 174 l 494 174 l 479 126 q 585 97 531 106 q 694 87 640 87 m 947 142 q 1084 228 1021 176 q 1193 347 1146 280 l 909 347 l 947 142 m 1244 435 q 1262 477 1253 456 q 1277 521 1270 498 l 877 521 l 893 435 l 1244 435 m 1296 608 q 1302 694 1302 651 q 1280 856 1302 778 q 1219 1001 1259 933 q 1124 1124 1179 1068 q 1001 1219 1068 1179 q 856 1280 933 1259 q 694 1302 778 1302 q 533 1280 611 1302 q 388 1219 456 1259 q 265 1124 321 1179 q 170 1001 210 1068 q 109 856 130 933 q 87 694 87 778 q 93 608 87 651 l 1296 608 z "},"":{"ha":1389,"x_min":0,"x_max":1389,"o":"m 465 868 l 404 930 l 694 1221 l 985 930 l 924 868 l 737 1055 l 737 694 l 652 694 l 652 1055 l 465 868 m 694 1389 q 879 1364 790 1389 q 1044 1294 967 1339 q 1185 1185 1122 1249 q 1294 1044 1249 1122 q 1364 879 1339 967 q 1389 694 1389 790 q 1364 510 1389 599 q 1294 345 1339 422 q 1185 204 1249 267 q 1044 95 1122 140 q 879 25 967 50 q 694 0 790 0 q 510 25 599 0 q 345 95 422 50 q 204 204 267 140 q 95 345 140 267 q 25 510 50 422 q 0 694 0 599 q 25 879 0 790 q 95 1044 50 967 q 204 1185 140 1122 q 345 1294 267 1249 q 510 1364 422 1339 q 694 1389 599 1389 m 694 1302 q 533 1280 611 1302 q 388 1219 456 1259 q 265 1124 321 1179 q 170 1001 210 1068 q 109 856 130 933 q 87 694 87 778 q 93 608 87 650 l 1296 608 q 1302 694 1302 650 q 1280 856 1302 778 q 1219 1001 1259 933 q 1124 1124 1179 1068 q 1001 1219 1068 1179 q 856 1280 933 1259 q 694 1302 778 1302 m 821 347 l 552 347 l 523 260 l 837 260 l 821 347 m 805 434 l 789 521 l 112 521 q 146 434 125 477 l 805 434 m 893 434 l 1243 434 q 1277 521 1264 477 l 877 521 l 893 434 m 196 347 q 287 244 236 290 q 399 163 338 197 l 460 347 l 196 347 m 479 126 q 585 97 531 106 q 694 87 640 87 q 865 111 782 87 l 853 174 l 494 174 l 479 126 m 947 142 q 1084 228 1021 176 q 1193 347 1146 280 l 909 347 l 947 142 z "},"":{"ha":1389,"x_min":0,"x_max":1389,"o":"m 1172 1215 l 1389 174 l 0 174 l 217 1215 l 1172 1215 m 564 870 l 547 606 l 842 606 l 825 870 l 564 870 m 464 606 l 481 870 l 229 870 l 174 606 l 464 606 m 570 953 l 819 953 l 808 1133 l 581 1133 l 570 953 m 1215 606 l 1160 870 l 907 870 l 925 606 l 1215 606 m 847 523 l 542 523 l 524 256 l 865 256 l 847 523 m 930 523 l 947 256 l 1287 256 l 1232 523 l 930 523 m 1142 953 l 1105 1133 l 890 1133 l 902 953 l 1142 953 m 498 1133 l 284 1133 l 247 953 l 487 953 l 498 1133 m 157 523 l 102 256 l 441 256 l 459 523 l 157 523 z "},"":{"ha":1389,"x_min":0,"x_max":1389,"o":"m 0 1389 l 1389 1389 l 1389 0 l 0 0 l 0 1389 m 1302 955 l 1302 1302 l 955 1302 l 955 955 l 1302 955 m 521 521 l 868 521 l 868 868 l 521 868 l 521 521 m 868 434 l 521 434 l 521 87 l 868 87 l 868 434 m 434 521 l 434 868 l 87 868 l 87 521 l 434 521 m 521 955 l 868 955 l 868 1302 l 521 1302 l 521 955 m 955 868 l 955 521 l 1302 521 l 1302 868 l 955 868 m 434 1302 l 87 1302 l 87 955 l 434 955 l 434 1302 m 87 434 l 87 87 l 434 87 l 434 434 l 87 434 m 955 87 l 1302 87 l 1302 434 l 955 434 l 955 87 z "},"":{"ha":1389,"x_min":0,"x_max":1302,"o":"m 1302 0 l 0 0 l 651 1302 l 1302 0 m 694 260 l 608 260 l 608 174 l 694 174 l 694 260 m 694 347 l 694 781 l 608 781 l 608 347 l 694 347 z "},"":{"ha":1389,"x_min":87,"x_max":1302,"o":"m 694 1302 q 856 1280 778 1302 q 1001 1219 933 1259 q 1124 1124 1068 1179 q 1219 1001 1179 1068 q 1280 856 1259 933 q 1302 694 1302 778 q 1280 533 1302 611 q 1219 388 1259 456 q 1124 265 1179 321 q 1001 170 1068 210 q 856 109 933 130 q 694 87 778 87 q 533 109 611 87 q 388 170 456 130 q 265 265 321 210 q 170 388 210 321 q 109 533 130 456 q 87 694 87 610 q 109 856 87 778 q 170 1001 130 933 q 265 1124 210 1068 q 388 1219 321 1179 q 533 1280 456 1259 q 694 1302 610 1302 m 694 174 q 833 192 766 174 q 957 245 899 211 q 1063 326 1015 279 q 1144 432 1110 374 q 1197 556 1178 490 q 1215 694 1215 623 q 1197 833 1215 766 q 1144 957 1178 899 q 1063 1063 1110 1015 q 957 1144 1015 1110 q 833 1197 899 1178 q 694 1215 766 1215 q 556 1197 623 1215 q 432 1144 490 1178 q 326 1063 374 1110 q 245 957 279 1015 q 192 833 211 899 q 174 694 174 766 q 192 556 174 623 q 245 432 211 490 q 326 326 279 374 q 432 245 374 279 q 556 192 490 211 q 694 174 623 174 m 694 955 q 795 934 748 955 q 878 878 843 913 q 934 795 913 843 q 955 694 955 748 q 934 593 955 641 q 878 511 913 546 q 795 455 843 475 q 694 434 748 434 q 593 455 641 434 q 511 511 546 475 q 455 593 475 546 q 434 694 434 641 q 455 795 434 748 q 511 878 475 843 q 593 934 546 913 q 694 955 641 955 z "},"":{"ha":1389,"x_min":0,"x_max":1389,"o":"m 1128 825 l 1389 694 l 1128 564 l 1389 434 l 694 87 l 0 434 l 260 564 l 0 694 l 260 825 l 0 955 l 694 1302 l 1389 955 l 1128 825 m 194 955 l 694 705 l 1195 955 l 694 1205 l 194 955 m 1195 434 l 1031 515 l 694 347 l 357 515 l 194 434 l 694 184 l 1195 434 m 694 444 l 1195 694 l 1031 776 l 694 608 l 357 776 l 194 694 l 694 444 z "},"":{"ha":1389,"x_min":0,"x_max":1389,"o":"m 1215 694 l 1215 322 l 1326 432 l 1387 371 l 1172 156 l 957 371 l 1018 432 l 1128 322 l 1128 694 l 1215 694 m 955 87 l 1389 87 l 1389 0 l 955 0 l 955 87 m 1128 781 l 1128 1054 l 868 967 l 868 186 l 391 345 l 0 215 l 0 1059 l 391 1189 l 825 1044 l 1215 1174 l 1215 781 l 1128 781 m 87 996 l 87 335 l 347 422 l 347 1083 l 87 996 m 781 306 l 781 967 l 434 1083 l 434 422 l 781 306 z "},"":{"ha":1389,"x_min":174,"x_max":1259,"o":"m 1215 651 l 1259 651 l 1259 564 l 1215 564 l 1215 347 l 174 347 l 174 868 l 1215 868 l 1215 651 m 1172 391 l 1172 825 l 217 825 l 217 391 l 1172 391 z "},"":{"ha":1389,"x_min":174,"x_max":1259,"o":"m 1215 651 l 1259 651 l 1259 564 l 1215 564 l 1215 347 l 174 347 l 174 868 l 1215 868 l 1215 651 m 1172 391 l 1172 825 l 217 825 l 217 391 l 1172 391 m 347 781 l 347 434 l 260 434 l 260 781 l 347 781 z "},"":{"ha":1389,"x_min":174,"x_max":1259,"o":"m 1215 651 l 1259 651 l 1259 564 l 1215 564 l 1215 347 l 174 347 l 174 868 l 1215 868 l 1215 651 m 1172 391 l 1172 825 l 217 825 l 217 391 l 1172 391 m 434 781 l 434 434 l 260 434 l 260 781 l 434 781 z "},"":{"ha":1389,"x_min":174,"x_max":1259,"o":"m 1215 651 l 1259 651 l 1259 564 l 1215 564 l 1215 347 l 174 347 l 174 868 l 1215 868 l 1215 651 m 1172 391 l 1172 825 l 217 825 l 217 391 l 1172 391 m 521 781 l 521 434 l 260 434 l 260 781 l 521 781 z "},"":{"ha":1389,"x_min":174,"x_max":1259,"o":"m 1215 651 l 1259 651 l 1259 564 l 1215 564 l 1215 347 l 174 347 l 174 868 l 1215 868 l 1215 651 m 1172 391 l 1172 825 l 217 825 l 217 391 l 1172 391 m 608 781 l 608 434 l 260 434 l 260 781 l 608 781 z "},"":{"ha":1389,"x_min":174,"x_max":1259,"o":"m 1215 651 l 1259 651 l 1259 564 l 1215 564 l 1215 347 l 174 347 l 174 868 l 1215 868 l 1215 651 m 1172 391 l 1172 825 l 217 825 l 217 391 l 1172 391 m 694 781 l 694 434 l 260 434 l 260 781 l 694 781 z "},"":{"ha":1389,"x_min":174,"x_max":1259,"o":"m 1215 651 l 1259 651 l 1259 564 l 1215 564 l 1215 347 l 174 347 l 174 868 l 1215 868 l 1215 651 m 1172 391 l 1172 825 l 217 825 l 217 391 l 1172 391 m 781 781 l 781 434 l 260 434 l 260 781 l 781 781 z "},"":{"ha":1389,"x_min":174,"x_max":1259,"o":"m 1215 651 l 1259 651 l 1259 564 l 1215 564 l 1215 347 l 174 347 l 174 868 l 1215 868 l 1215 651 m 1172 391 l 1172 825 l 217 825 l 217 391 l 1172 391 m 868 781 l 868 434 l 260 434 l 260 781 l 868 781 z "},"":{"ha":1389,"x_min":174,"x_max":1259,"o":"m 1215 651 l 1259 651 l 1259 564 l 1215 564 l 1215 347 l 174 347 l 174 868 l 1215 868 l 1215 651 m 1172 391 l 1172 825 l 217 825 l 217 391 l 1172 391 m 955 781 l 955 434 l 260 434 l 260 781 l 955 781 z "},"":{"ha":1389,"x_min":174,"x_max":1259,"o":"m 1215 651 l 1259 651 l 1259 564 l 1215 564 l 1215 347 l 174 347 l 174 868 l 1215 868 l 1215 651 m 1172 391 l 1172 825 l 217 825 l 217 391 l 1172 391 m 1042 781 l 1042 434 l 260 434 l 260 781 l 1042 781 z "},"":{"ha":1389,"x_min":87,"x_max":1259,"o":"m 1259 651 l 1259 564 l 1215 564 l 1215 347 l 260 347 l 260 391 l 1172 391 l 1172 825 l 347 825 l 347 868 l 1215 868 l 1215 651 l 1259 651 m 304 760 q 297 723 304 741 q 279 691 291 705 q 252 667 268 677 q 217 653 236 657 l 217 347 l 174 347 l 174 653 q 139 667 155 657 q 111 691 123 677 q 93 723 100 705 q 87 760 87 741 l 87 868 l 130 868 l 130 955 l 174 955 l 174 868 l 217 868 l 217 955 l 260 955 l 260 868 l 304 868 l 304 760 m 130 760 q 149 713 130 732 q 195 694 168 694 q 241 713 222 694 q 260 760 260 732 l 260 825 l 130 825 l 130 760 z "},"":{"ha":1389,"x_min":87,"x_max":1259,"o":"m 1259 651 l 1259 564 l 1215 564 l 1215 347 l 260 347 l 260 391 l 1172 391 l 1172 825 l 347 825 l 347 868 l 1215 868 l 1215 651 l 1259 651 m 304 760 q 297 723 304 741 q 279 691 291 705 q 252 667 268 677 q 217 653 236 657 l 217 347 l 174 347 l 174 653 q 139 667 155 657 q 111 691 123 677 q 93 723 100 705 q 87 760 87 741 l 87 868 l 130 868 l 130 955 l 174 955 l 174 868 l 217 868 l 217 955 l 260 955 l 260 868 l 304 868 l 304 760 m 130 760 q 149 713 130 732 q 195 694 168 694 q 241 713 222 694 q 260 760 260 732 l 260 825 l 130 825 l 130 760 m 260 623 q 323 679 300 642 q 347 760 347 715 l 347 434 l 260 434 l 260 623 z "},"":{"ha":1389,"x_min":87,"x_max":1259,"o":"m 1259 651 l 1259 564 l 1215 564 l 1215 347 l 260 347 l 260 391 l 1172 391 l 1172 825 l 347 825 l 347 868 l 1215 868 l 1215 651 l 1259 651 m 304 760 q 297 723 304 741 q 279 691 291 705 q 252 667 268 677 q 217 653 236 657 l 217 347 l 174 347 l 174 653 q 139 667 155 657 q 111 691 123 677 q 93 723 100 705 q 87 760 87 741 l 87 868 l 130 868 l 130 955 l 174 955 l 174 868 l 217 868 l 217 955 l 260 955 l 260 868 l 304 868 l 304 760 m 130 760 q 149 713 130 732 q 195 694 168 694 q 241 713 222 694 q 260 760 260 732 l 260 825 l 130 825 l 130 760 m 260 623 q 323 679 300 642 q 347 760 347 715 l 347 781 l 434 781 l 434 434 l 260 434 l 260 623 z "},"":{"ha":1389,"x_min":87,"x_max":1259,"o":"m 1259 651 l 1259 564 l 1215 564 l 1215 347 l 260 347 l 260 391 l 1172 391 l 1172 825 l 347 825 l 347 868 l 1215 868 l 1215 651 l 1259 651 m 304 760 q 297 723 304 741 q 279 691 291 705 q 252 667 268 677 q 217 653 236 657 l 217 347 l 174 347 l 174 653 q 139 667 155 657 q 111 691 123 677 q 93 723 100 705 q 87 760 87 741 l 87 868 l 130 868 l 130 955 l 174 955 l 174 868 l 217 868 l 217 955 l 260 955 l 260 868 l 304 868 l 304 760 m 130 760 q 149 713 130 732 q 195 694 168 694 q 241 713 222 694 q 260 760 260 732 l 260 825 l 130 825 l 130 760 m 260 623 q 323 679 300 642 q 347 760 347 715 l 347 781 l 521 781 l 521 434 l 260 434 l 260 623 z "},"":{"ha":1389,"x_min":87,"x_max":1259,"o":"m 1259 651 l 1259 564 l 1215 564 l 1215 347 l 260 347 l 260 391 l 1172 391 l 1172 825 l 347 825 l 347 868 l 1215 868 l 1215 651 l 1259 651 m 304 760 q 297 723 304 741 q 279 691 291 705 q 252 667 268 677 q 217 653 236 657 l 217 347 l 174 347 l 174 653 q 139 667 155 657 q 111 691 123 677 q 93 723 100 705 q 87 760 87 741 l 87 868 l 130 868 l 130 955 l 174 955 l 174 868 l 217 868 l 217 955 l 260 955 l 260 868 l 304 868 l 304 760 m 130 760 q 149 713 130 732 q 195 694 168 694 q 241 713 222 694 q 260 760 260 732 l 260 825 l 130 825 l 130 760 m 260 623 q 323 679 300 642 q 347 760 347 715 l 347 781 l 608 781 l 608 434 l 260 434 l 260 623 z "},"":{"ha":1389,"x_min":87,"x_max":1259,"o":"m 1259 651 l 1259 564 l 1215 564 l 1215 347 l 260 347 l 260 391 l 1172 391 l 1172 825 l 347 825 l 347 868 l 1215 868 l 1215 651 l 1259 651 m 304 760 q 297 723 304 741 q 279 691 291 705 q 252 667 268 677 q 217 653 236 657 l 217 347 l 174 347 l 174 653 q 139 667 155 657 q 111 691 123 677 q 93 723 100 705 q 87 760 87 741 l 87 868 l 130 868 l 130 955 l 174 955 l 174 868 l 217 868 l 217 955 l 260 955 l 260 868 l 304 868 l 304 760 m 130 760 q 149 713 130 732 q 195 694 168 694 q 241 713 222 694 q 260 760 260 732 l 260 825 l 130 825 l 130 760 m 260 623 q 323 679 300 642 q 347 760 347 715 l 347 781 l 694 781 l 694 434 l 260 434 l 260 623 z "},"":{"ha":1389,"x_min":87,"x_max":1259,"o":"m 1259 651 l 1259 564 l 1215 564 l 1215 347 l 260 347 l 260 391 l 1172 391 l 1172 825 l 347 825 l 347 868 l 1215 868 l 1215 651 l 1259 651 m 304 760 q 297 723 304 741 q 279 691 291 705 q 252 667 268 677 q 217 653 236 657 l 217 347 l 174 347 l 174 653 q 139 667 155 657 q 111 691 123 677 q 93 723 100 705 q 87 760 87 741 l 87 868 l 130 868 l 130 955 l 174 955 l 174 868 l 217 868 l 217 955 l 260 955 l 260 868 l 304 868 l 304 760 m 130 760 q 149 713 130 732 q 195 694 168 694 q 241 713 222 694 q 260 760 260 732 l 260 825 l 130 825 l 130 760 m 260 623 q 323 679 300 642 q 347 760 347 715 l 347 781 l 781 781 l 781 434 l 260 434 l 260 623 z "},"":{"ha":1389,"x_min":87,"x_max":1259,"o":"m 1259 651 l 1259 564 l 1215 564 l 1215 347 l 260 347 l 260 391 l 1172 391 l 1172 825 l 347 825 l 347 868 l 1215 868 l 1215 651 l 1259 651 m 304 760 q 297 723 304 741 q 279 691 291 705 q 252 667 268 677 q 217 653 236 657 l 217 347 l 174 347 l 174 653 q 139 667 155 657 q 111 691 123 677 q 93 723 100 705 q 87 760 87 741 l 87 868 l 130 868 l 130 955 l 174 955 l 174 868 l 217 868 l 217 955 l 260 955 l 260 868 l 304 868 l 304 760 m 130 760 q 149 713 130 732 q 195 694 168 694 q 241 713 222 694 q 260 760 260 732 l 260 825 l 130 825 l 130 760 m 260 623 q 323 679 300 642 q 347 760 347 715 l 347 781 l 868 781 l 868 434 l 260 434 l 260 623 z "},"":{"ha":1389,"x_min":87,"x_max":1259,"o":"m 1259 651 l 1259 564 l 1215 564 l 1215 347 l 260 347 l 260 391 l 1172 391 l 1172 825 l 347 825 l 347 868 l 1215 868 l 1215 651 l 1259 651 m 304 760 q 297 723 304 741 q 279 691 291 705 q 252 667 268 677 q 217 653 236 657 l 217 347 l 174 347 l 174 653 q 139 667 155 657 q 111 691 123 677 q 93 723 100 705 q 87 760 87 741 l 87 868 l 130 868 l 130 955 l 174 955 l 174 868 l 217 868 l 217 955 l 260 955 l 260 868 l 304 868 l 304 760 m 130 760 q 149 713 130 732 q 195 694 168 694 q 241 713 222 694 q 260 760 260 732 l 260 825 l 130 825 l 130 760 m 260 623 q 323 679 300 642 q 347 760 347 715 l 347 781 l 955 781 l 955 434 l 260 434 l 260 623 z "},"":{"ha":1389,"x_min":87,"x_max":1259,"o":"m 1259 651 l 1259 564 l 1215 564 l 1215 347 l 260 347 l 260 391 l 1172 391 l 1172 825 l 332 825 q 319 847 326 838 q 302 867 311 856 l 302 868 l 1215 868 l 1215 651 l 1259 651 m 303 760 q 297 723 303 741 q 279 691 290 705 q 252 667 267 677 q 217 653 236 656 l 217 347 l 174 347 l 174 653 q 139 667 155 656 q 111 691 123 677 q 93 723 100 705 q 87 760 87 741 q 95 801 87 781 q 119 836 103 821 l 195 913 l 272 836 q 295 801 288 821 q 303 760 303 781 m 130 760 q 142 722 130 739 q 174 699 154 705 l 174 781 l 217 781 l 217 699 q 249 722 237 705 q 260 760 260 739 q 241 806 260 787 l 195 852 l 149 806 q 130 760 130 787 z "},"":{"ha":1389,"x_min":87,"x_max":1259,"o":"m 1259 651 l 1259 564 l 1215 564 l 1215 347 l 260 347 l 260 391 l 1172 391 l 1172 825 l 332 825 q 319 847 326 838 q 302 867 311 856 l 302 868 l 1215 868 l 1215 651 l 1259 651 m 303 760 q 297 723 303 741 q 279 691 290 705 q 252 667 267 677 q 217 653 236 656 l 217 347 l 174 347 l 174 653 q 139 667 155 656 q 111 691 123 677 q 93 723 100 705 q 87 760 87 741 q 95 801 87 781 q 119 836 103 821 l 195 913 l 272 836 q 295 801 288 821 q 303 760 303 781 m 130 760 q 142 722 130 739 q 174 699 154 705 l 174 781 l 217 781 l 217 699 q 249 722 237 705 q 260 760 260 739 q 241 806 260 787 l 195 852 l 149 806 q 130 760 130 787 m 260 623 q 323 679 300 642 q 347 760 347 715 l 347 434 l 260 434 l 260 623 z "},"":{"ha":1389,"x_min":87,"x_max":1259,"o":"m 1259 651 l 1259 564 l 1215 564 l 1215 347 l 260 347 l 260 391 l 1172 391 l 1172 825 l 332 825 q 319 847 326 838 q 302 867 311 856 l 302 868 l 1215 868 l 1215 651 l 1259 651 m 303 760 q 297 723 303 741 q 279 691 290 705 q 252 667 267 677 q 217 653 236 656 l 217 347 l 174 347 l 174 653 q 139 667 155 656 q 111 691 123 677 q 93 723 100 705 q 87 760 87 741 q 95 801 87 781 q 119 836 103 821 l 195 913 l 272 836 q 295 801 288 821 q 303 760 303 781 m 130 760 q 142 722 130 739 q 174 699 154 705 l 174 781 l 217 781 l 217 699 q 249 722 237 705 q 260 760 260 739 q 241 806 260 787 l 195 852 l 149 806 q 130 760 130 787 m 260 623 q 323 679 300 642 q 347 760 347 715 l 347 781 l 434 781 l 434 434 l 260 434 l 260 623 z "},"":{"ha":1389,"x_min":87,"x_max":1259,"o":"m 1259 651 l 1259 564 l 1215 564 l 1215 347 l 260 347 l 260 391 l 1172 391 l 1172 825 l 332 825 q 319 847 326 838 q 302 867 311 856 l 302 868 l 1215 868 l 1215 651 l 1259 651 m 303 760 q 297 723 303 741 q 279 691 290 705 q 252 667 267 677 q 217 653 236 656 l 217 347 l 174 347 l 174 653 q 139 667 155 656 q 111 691 123 677 q 93 723 100 705 q 87 760 87 741 q 95 801 87 781 q 119 836 103 821 l 195 913 l 272 836 q 295 801 288 821 q 303 760 303 781 m 130 760 q 142 722 130 739 q 174 699 154 705 l 174 781 l 217 781 l 217 699 q 249 722 237 705 q 260 760 260 739 q 241 806 260 787 l 195 852 l 149 806 q 130 760 130 787 m 260 623 q 323 679 300 642 q 347 760 347 715 l 347 781 l 521 781 l 521 434 l 260 434 l 260 623 z "},"":{"ha":1389,"x_min":87,"x_max":1259,"o":"m 1259 651 l 1259 564 l 1215 564 l 1215 347 l 260 347 l 260 391 l 1172 391 l 1172 825 l 332 825 q 319 847 326 838 q 302 867 311 856 l 302 868 l 1215 868 l 1215 651 l 1259 651 m 303 760 q 297 723 303 741 q 279 691 290 705 q 252 667 267 677 q 217 653 236 656 l 217 347 l 174 347 l 174 653 q 139 667 155 656 q 111 691 123 677 q 93 723 100 705 q 87 760 87 741 q 95 801 87 781 q 119 836 103 821 l 195 913 l 272 836 q 295 801 288 821 q 303 760 303 781 m 130 760 q 142 722 130 739 q 174 699 154 705 l 174 781 l 217 781 l 217 699 q 249 722 237 705 q 260 760 260 739 q 241 806 260 787 l 195 852 l 149 806 q 130 760 130 787 m 260 623 q 323 679 300 642 q 347 760 347 715 l 347 781 l 608 781 l 608 434 l 260 434 l 260 623 z "},"":{"ha":1389,"x_min":87,"x_max":1259,"o":"m 1259 651 l 1259 564 l 1215 564 l 1215 347 l 260 347 l 260 391 l 1172 391 l 1172 825 l 332 825 q 319 847 326 838 q 302 867 311 856 l 302 868 l 1215 868 l 1215 651 l 1259 651 m 303 760 q 297 723 303 741 q 279 691 290 705 q 252 667 267 677 q 217 653 236 656 l 217 347 l 174 347 l 174 653 q 139 667 155 656 q 111 691 123 677 q 93 723 100 705 q 87 760 87 741 q 95 801 87 781 q 119 836 103 821 l 195 913 l 272 836 q 295 801 288 821 q 303 760 303 781 m 130 760 q 142 722 130 739 q 174 699 154 705 l 174 781 l 217 781 l 217 699 q 249 722 237 705 q 260 760 260 739 q 241 806 260 787 l 195 852 l 149 806 q 130 760 130 787 m 260 623 q 323 679 300 642 q 347 760 347 715 l 347 781 l 694 781 l 694 434 l 260 434 l 260 623 z "},"":{"ha":1389,"x_min":87,"x_max":1259,"o":"m 1259 651 l 1259 564 l 1215 564 l 1215 347 l 260 347 l 260 391 l 1172 391 l 1172 825 l 332 825 q 319 847 326 838 q 302 867 311 856 l 302 868 l 1215 868 l 1215 651 l 1259 651 m 303 760 q 297 723 303 741 q 279 691 290 705 q 252 667 267 677 q 217 653 236 656 l 217 347 l 174 347 l 174 653 q 139 667 155 656 q 111 691 123 677 q 93 723 100 705 q 87 760 87 741 q 95 801 87 781 q 119 836 103 821 l 195 913 l 272 836 q 295 801 288 821 q 303 760 303 781 m 130 760 q 142 722 130 739 q 174 699 154 705 l 174 781 l 217 781 l 217 699 q 249 722 237 705 q 260 760 260 739 q 241 806 260 787 l 195 852 l 149 806 q 130 760 130 787 m 260 623 q 323 679 300 642 q 347 760 347 715 l 347 781 l 781 781 l 781 434 l 260 434 l 260 623 z "},"":{"ha":1389,"x_min":87,"x_max":1259,"o":"m 1259 651 l 1259 564 l 1215 564 l 1215 347 l 260 347 l 260 391 l 1172 391 l 1172 825 l 332 825 q 319 847 326 838 q 302 867 311 856 l 302 868 l 1215 868 l 1215 651 l 1259 651 m 303 760 q 297 723 303 741 q 279 691 290 705 q 252 667 267 677 q 217 653 236 656 l 217 347 l 174 347 l 174 653 q 139 667 155 656 q 111 691 123 677 q 93 723 100 705 q 87 760 87 741 q 95 801 87 781 q 119 836 103 821 l 195 913 l 272 836 q 295 801 288 821 q 303 760 303 781 m 130 760 q 142 722 130 739 q 174 699 154 705 l 174 781 l 217 781 l 217 699 q 249 722 237 705 q 260 760 260 739 q 241 806 260 787 l 195 852 l 149 806 q 130 760 130 787 m 260 623 q 323 679 300 642 q 347 760 347 715 l 347 781 l 868 781 l 868 434 l 260 434 l 260 623 z "},"":{"ha":1389,"x_min":87,"x_max":1259,"o":"m 1259 651 l 1259 564 l 1215 564 l 1215 347 l 260 347 l 260 391 l 1172 391 l 1172 825 l 332 825 q 319 847 326 838 q 302 867 311 856 l 302 868 l 1215 868 l 1215 651 l 1259 651 m 303 760 q 297 723 303 741 q 279 691 290 705 q 252 667 267 677 q 217 653 236 656 l 217 347 l 174 347 l 174 653 q 139 667 155 656 q 111 691 123 677 q 93 723 100 705 q 87 760 87 741 q 95 801 87 781 q 119 836 103 821 l 195 913 l 272 836 q 295 801 288 821 q 303 760 303 781 m 130 760 q 142 722 130 739 q 174 699 154 705 l 174 781 l 217 781 l 217 699 q 249 722 237 705 q 260 760 260 739 q 241 806 260 787 l 195 852 l 149 806 q 130 760 130 787 m 260 623 q 323 679 300 642 q 347 760 347 715 l 347 781 l 955 781 l 955 434 l 260 434 l 260 623 z "},"":{"ha":1389,"x_min":87,"x_max":260,"o":"m 260 0 l 87 0 l 87 174 l 260 174 l 260 0 l 260 0 z "},"":{"ha":1389,"x_min":87,"x_max":521,"o":"m 260 0 l 87 0 l 87 174 l 260 174 l 260 0 l 260 0 m 521 0 l 347 0 l 347 347 l 521 347 l 521 0 l 521 0 z "},"":{"ha":1389,"x_min":87,"x_max":781,"o":"m 260 0 l 87 0 l 87 174 l 260 174 l 260 0 l 260 0 m 521 0 l 347 0 l 347 347 l 521 347 l 521 0 l 521 0 m 781 0 l 608 0 l 608 521 l 781 521 l 781 0 l 781 0 z "},"":{"ha":1389,"x_min":87,"x_max":1042,"o":"m 260 0 l 87 0 l 87 174 l 260 174 l 260 0 l 260 0 m 521 0 l 347 0 l 347 347 l 521 347 l 521 0 l 521 0 m 781 0 l 608 0 l 608 521 l 781 521 l 781 0 l 781 0 m 1042 0 l 868 0 l 868 694 l 1042 694 l 1042 0 l 1042 0 z "},"":{"ha":1389,"x_min":87,"x_max":1302,"o":"m 260 0 l 87 0 l 87 174 l 260 174 l 260 0 l 260 0 m 521 0 l 347 0 l 347 347 l 521 347 l 521 0 l 521 0 m 781 0 l 608 0 l 608 521 l 781 521 l 781 0 l 781 0 m 1042 0 l 868 0 l 868 694 l 1042 694 l 1042 0 l 1042 0 m 1302 0 l 1128 0 l 1128 868 l 1302 868 l 1302 0 l 1302 0 z "},"":{"ha":1389,"x_min":608,"x_max":1389,"o":"m 998 781 q 1150 750 1079 781 q 1274 667 1221 720 q 1358 543 1327 614 q 1389 391 1389 471 q 1358 239 1389 310 q 1274 115 1327 168 q 1150 31 1221 62 q 998 0 1079 0 q 846 31 918 0 q 722 115 775 62 q 638 239 669 168 q 608 391 608 310 q 638 543 608 471 q 722 667 669 614 q 846 750 775 720 q 998 781 918 781 m 694 391 q 719 272 694 328 q 784 176 743 217 q 880 111 825 135 q 998 87 935 87 q 1094 102 1047 87 q 1180 147 1141 117 l 755 572 q 710 486 725 533 q 694 391 694 439 m 1242 209 q 1287 295 1272 248 q 1302 391 1302 342 q 1278 509 1302 454 q 1213 605 1254 564 q 1117 670 1172 646 q 998 694 1061 694 q 903 679 949 694 q 817 634 856 664 l 1242 209 z "},"":{"ha":1389,"x_min":955,"x_max":1215,"o":"m 1215 130 q 1205 79 1215 103 q 1177 38 1195 56 q 1136 10 1160 20 q 1085 0 1112 0 q 1034 10 1058 0 q 993 38 1010 20 q 965 79 975 56 q 955 130 955 103 q 965 181 955 157 q 993 222 975 205 q 1034 250 1010 240 q 1085 260 1058 260 q 1136 250 1112 260 q 1177 222 1160 240 q 1205 181 1195 205 q 1215 130 1215 157 z "},"":{"ha":1389,"x_min":694,"x_max":1215,"o":"m 694 0 q 713 138 694 72 q 766 263 732 205 q 847 368 800 321 q 952 450 895 416 q 1077 502 1010 484 q 1215 521 1143 521 l 1215 434 q 1100 418 1156 434 q 996 375 1044 403 q 908 307 948 347 q 841 219 869 267 q 797 115 812 171 q 781 0 781 60 l 694 0 m 1085 260 q 1136 250 1112 260 q 1177 222 1160 240 q 1205 181 1195 205 q 1215 130 1215 157 q 1205 79 1215 103 q 1177 38 1195 56 q 1136 10 1160 20 q 1085 0 1112 0 q 1034 10 1058 0 q 993 38 1010 20 q 965 79 975 56 q 955 130 955 103 q 965 181 955 157 q 993 222 975 205 q 1034 250 1010 240 q 1085 260 1058 260 z "},"":{"ha":1389,"x_min":434,"x_max":1215,"o":"m 694 0 q 713 138 694 72 q 766 263 732 205 q 847 368 800 321 q 952 450 895 416 q 1077 502 1010 484 q 1215 521 1143 521 l 1215 434 q 1100 418 1156 434 q 996 375 1044 403 q 908 307 948 347 q 841 219 869 267 q 797 115 812 171 q 781 0 781 60 l 694 0 m 434 0 q 462 208 434 108 q 541 395 490 308 q 663 553 591 481 q 821 675 734 624 q 1007 753 907 726 q 1215 781 1107 781 l 1215 694 q 1031 670 1120 694 q 865 600 943 645 q 725 491 788 554 q 616 350 661 427 q 546 184 570 273 q 521 0 521 96 l 434 0 m 1085 260 q 1136 250 1112 260 q 1177 222 1160 240 q 1205 181 1195 205 q 1215 130 1215 157 q 1205 79 1215 103 q 1177 38 1195 56 q 1136 10 1160 20 q 1085 0 1112 0 q 1034 10 1058 0 q 993 38 1010 20 q 965 79 975 56 q 955 130 955 103 q 965 181 955 157 q 993 222 975 205 q 1034 250 1010 240 q 1085 260 1058 260 z "},"":{"ha":1389,"x_min":347,"x_max":1302,"o":"m 434 260 l 608 260 l 608 174 l 434 174 q 400 180 416 174 q 373 199 385 187 q 354 227 361 211 q 347 260 347 243 l 347 1128 q 354 1162 347 1147 q 373 1190 361 1178 q 400 1208 385 1202 q 434 1215 416 1215 l 1017 1215 l 1215 1017 l 1215 892 q 1174 924 1196 909 q 1128 949 1152 939 l 1128 980 l 980 1128 l 434 1128 l 434 260 m 1302 608 l 1302 174 l 694 174 l 694 608 l 781 608 l 781 651 q 798 735 781 696 q 845 804 815 774 q 914 851 874 833 q 998 868 954 868 q 1082 851 1043 868 q 1151 804 1122 833 q 1198 735 1181 774 q 1215 651 1215 696 l 1215 608 l 1302 608 m 868 608 l 1128 608 l 1128 651 q 1118 702 1128 678 q 1090 743 1108 726 q 1049 771 1073 761 q 998 781 1025 781 q 947 771 971 781 q 906 743 924 761 q 878 702 888 726 q 868 651 868 678 l 868 608 m 1215 521 l 781 521 l 781 260 l 1215 260 l 1215 521 z "},"":{"ha":1389,"x_min":347,"x_max":1302,"o":"m 998 781 q 1117 758 1061 781 q 1213 692 1172 734 q 1278 596 1255 651 q 1302 477 1302 541 q 1278 359 1302 414 q 1213 262 1255 304 q 1117 197 1172 221 q 998 174 1061 174 q 880 197 935 174 q 783 262 825 221 q 718 359 742 304 q 694 477 694 414 q 718 596 694 541 q 783 692 742 651 q 880 758 825 734 q 998 781 935 781 m 781 477 q 798 393 781 433 q 845 324 815 353 q 914 277 874 294 q 998 260 954 260 q 1061 270 1030 260 q 1118 296 1091 279 l 817 597 q 790 540 800 570 q 781 477 781 509 m 1179 358 q 1206 415 1197 385 q 1215 477 1215 446 q 1198 562 1215 522 q 1151 630 1181 601 q 1082 677 1122 660 q 998 694 1043 694 q 936 685 966 694 q 879 659 905 676 l 1179 358 m 649 260 q 683 215 665 237 q 722 174 701 193 l 434 174 q 400 180 416 174 q 373 199 385 187 q 354 227 361 211 q 347 260 347 242 l 347 1128 q 354 1162 347 1147 q 373 1190 361 1178 q 400 1208 385 1202 q 434 1215 416 1215 l 1017 1215 l 1215 1017 l 1215 827 q 1173 850 1195 840 q 1128 868 1152 861 l 1128 980 l 980 1128 l 434 1128 l 434 260 l 649 260 z "},"":{"ha":1389,"x_min":0,"x_max":1389,"o":"m 1302 586 q 1309 549 1302 565 q 1324 520 1315 534 q 1345 492 1334 506 q 1367 461 1357 478 q 1382 422 1376 444 q 1389 369 1389 399 l 1302 369 q 1296 406 1302 390 q 1280 435 1289 421 q 1259 463 1270 449 q 1238 494 1247 477 q 1222 533 1228 511 q 1215 586 1215 555 q 1222 638 1215 616 q 1238 678 1228 661 q 1259 709 1247 695 q 1280 736 1270 722 q 1296 766 1289 750 q 1302 803 1302 782 q 1296 840 1302 824 q 1280 869 1289 855 q 1259 897 1270 883 q 1238 928 1247 911 q 1222 967 1228 945 q 1215 1020 1215 989 l 1302 1020 q 1309 983 1302 999 q 1324 954 1315 968 q 1345 926 1334 940 q 1367 895 1357 912 q 1382 856 1376 878 q 1389 803 1389 833 q 1382 750 1389 772 q 1367 711 1376 728 q 1345 680 1357 694 q 1324 653 1334 667 q 1309 623 1315 639 q 1302 586 1302 607 m 174 803 q 167 750 174 772 q 151 711 161 728 q 130 680 142 694 q 109 653 119 667 q 93 623 100 639 q 87 586 87 607 q 93 549 87 565 q 109 520 100 534 q 130 492 119 506 q 151 461 142 478 q 167 422 161 444 q 174 369 174 399 l 87 369 q 80 406 87 390 q 64 435 74 421 q 43 463 55 449 q 22 494 32 477 q 6 533 13 511 q 0 586 0 555 q 6 638 0 616 q 22 678 13 661 q 43 709 32 695 q 64 736 55 722 q 80 766 74 750 q 87 803 87 782 q 80 840 87 824 q 64 869 74 855 q 43 897 55 883 q 22 928 32 911 q 6 967 13 945 q 0 1020 0 989 l 87 1020 q 93 983 87 999 q 109 954 100 968 q 130 926 119 940 q 151 895 142 912 q 167 856 161 878 q 174 803 174 833 m 1042 1389 q 1076 1382 1060 1389 q 1103 1363 1091 1375 q 1122 1336 1115 1352 q 1128 1302 1128 1320 l 1128 87 q 1122 53 1128 68 q 1103 25 1115 37 q 1076 7 1091 14 q 1042 0 1060 0 l 347 0 q 313 7 329 0 q 286 25 298 14 q 267 53 274 37 q 260 87 260 68 l 260 1302 q 267 1336 260 1320 q 286 1363 274 1352 q 313 1382 298 1375 q 347 1389 329 1389 l 1042 1389 m 1042 87 l 1042 1302 l 347 1302 l 347 87 l 1042 87 m 781 260 l 781 174 l 608 174 l 608 260 l 781 260 z "},"":{"ha":1389,"x_min":208,"x_max":1181,"o":"m 694 1111 l 1181 139 l 208 139 l 694 1111 l 694 1111 z "},"":{"ha":1389,"x_min":208,"x_max":1181,"o":"m 694 1111 l 1181 139 l 208 139 l 694 1111 m 694 956 l 321 208 l 1068 208 l 694 956 z "},"":{"ha":1389,"x_min":0,"x_max":1320,"o":"m 0 174 l 521 1215 l 1042 174 l 0 174 m 1072 1246 l 1320 998 l 1072 751 l 1011 812 l 1154 955 l 781 955 l 781 1042 l 1154 1042 l 1011 1185 l 1072 1246 z "},"":{"ha":1389,"x_min":0,"x_max":1320,"o":"m 0 174 l 521 1215 l 1042 174 l 0 174 m 140 260 l 901 260 l 521 1021 l 140 260 m 1072 1246 l 1320 998 l 1072 751 l 1011 812 l 1154 955 l 781 955 l 781 1042 l 1154 1042 l 1011 1185 l 1072 1246 z "},"":{"ha":1389,"x_min":87,"x_max":1215,"o":"m 1215 521 l 707 521 q 811 415 755 463 q 932 333 868 368 q 1067 279 996 298 q 1215 260 1139 260 l 1215 174 q 1053 194 1131 174 q 903 250 974 214 q 768 338 831 287 q 651 452 705 389 q 534 338 597 389 q 399 250 471 287 q 250 194 328 214 q 87 174 171 174 l 87 260 q 235 279 163 260 q 370 333 306 298 q 491 415 434 368 q 595 521 547 463 l 87 521 l 87 608 l 260 608 l 260 868 l 608 868 l 608 955 l 694 955 l 694 868 l 1042 868 l 1042 608 l 1215 608 l 1215 521 m 347 608 l 608 608 l 608 781 l 347 781 l 347 608 m 955 781 l 694 781 l 694 608 l 955 608 l 955 781 m 434 1042 l 174 1042 l 174 1128 l 434 1128 l 434 1302 l 521 1302 l 521 1128 l 781 1128 l 781 1302 l 868 1302 l 868 1128 l 1128 1128 l 1128 1042 l 868 1042 l 868 955 l 781 955 l 781 1042 l 521 1042 l 521 955 l 434 955 l 434 1042 z "},"":{"ha":1389,"x_min":0,"x_max":1302,"o":"m 694 781 l 955 781 l 955 608 l 694 608 l 694 781 m 1302 1389 l 1302 87 l 0 87 l 0 1389 l 1302 1389 m 174 1042 l 434 1042 l 434 955 l 521 955 l 521 1042 l 781 1042 l 781 955 l 868 955 l 868 1042 l 1128 1042 l 1128 1128 l 868 1128 l 868 1302 l 781 1302 l 781 1128 l 521 1128 l 521 1302 l 434 1302 l 434 1128 l 174 1128 l 174 1042 m 1215 608 l 1042 608 l 1042 868 l 694 868 l 694 955 l 608 955 l 608 868 l 260 868 l 260 608 l 87 608 l 87 521 l 594 521 q 489 415 546 463 q 369 333 433 368 q 234 279 304 298 q 87 260 163 260 l 87 174 q 250 194 171 174 q 399 250 328 214 q 534 337 471 286 q 651 452 597 389 q 768 337 705 389 q 903 250 831 286 q 1053 194 974 214 q 1215 174 1131 174 l 1215 260 q 1068 279 1139 260 q 933 333 997 298 q 812 415 869 368 q 708 521 755 463 l 1215 521 l 1215 608 m 347 781 l 608 781 l 608 608 l 347 608 l 347 781 z "},"":{"ha":1389,"x_min":2,"x_max":1389,"o":"m 1389 1042 l 1389 955 l 1215 955 l 1215 868 l 1128 868 l 1128 955 l 868 955 l 868 868 l 781 868 l 781 955 l 608 955 l 608 1042 l 781 1042 l 781 1128 l 868 1128 l 868 1042 l 1128 1042 l 1128 1128 l 1215 1128 l 1215 1042 l 1389 1042 m 1053 434 q 1122 364 1085 396 q 1202 309 1160 332 q 1291 273 1244 286 q 1389 260 1338 260 l 1389 174 q 1276 188 1331 174 q 1173 227 1222 201 q 1080 287 1124 252 q 998 365 1036 322 q 917 287 961 322 q 824 227 873 252 q 720 188 774 201 q 608 174 665 174 l 608 260 q 705 273 659 260 q 794 309 752 286 q 874 364 837 332 q 943 434 911 396 l 608 434 l 608 521 l 694 521 l 694 781 l 955 781 l 955 868 l 1042 868 l 1042 781 l 1302 781 l 1302 521 l 1389 521 l 1389 434 l 1053 434 m 1042 521 l 1215 521 l 1215 694 l 1042 694 l 1042 521 m 781 521 l 955 521 l 955 694 l 781 694 l 781 521 m 304 1146 l 606 844 l 545 783 l 347 981 l 347 174 l 260 174 l 260 980 l 63 783 l 2 844 l 304 1146 z "},"":{"ha":1389,"x_min":0,"x_max":1302,"o":"m 0 1389 l 1302 1389 l 1302 87 l 0 87 l 0 1389 m 979 783 l 1040 844 l 651 1233 l 262 844 l 323 783 l 608 1067 l 608 174 l 694 174 l 694 1067 l 979 783 z "},"":{"ha":1389,"x_min":0,"x_max":345,"o":"m 345 1105 l 284 1044 l 87 1240 l 87 1128 l 0 1128 l 0 1389 l 260 1389 l 260 1302 l 149 1302 l 345 1105 l 345 1105 z "},"":{"ha":1389,"x_min":0,"x_max":812,"o":"m 751 1011 l 521 1240 l 521 1128 l 434 1128 l 434 1389 l 694 1389 l 694 1302 l 583 1302 l 812 1072 l 751 1011 m 174 1389 q 241 1375 210 1389 q 296 1338 273 1362 q 334 1283 320 1314 q 347 1215 347 1251 l 347 955 l 0 955 l 0 1215 q 14 1283 0 1251 q 51 1338 27 1314 q 106 1375 75 1362 q 174 1389 138 1389 m 271 1215 q 263 1253 271 1236 q 242 1284 256 1271 q 212 1305 229 1297 q 174 1313 194 1313 q 136 1305 153 1313 q 105 1284 118 1297 q 84 1253 92 1271 q 76 1215 76 1236 l 271 1215 z "},"":{"ha":1389,"x_min":0,"x_max":260,"o":"m 112 1059 q 105 1051 108 1055 q 98 1042 102 1046 l 260 1042 l 260 955 l 0 955 l 0 998 q 13 1062 0 1034 q 45 1114 26 1090 q 87 1158 64 1138 q 129 1194 109 1177 q 161 1227 148 1211 q 174 1259 174 1242 q 161 1289 174 1276 q 130 1302 148 1302 q 100 1289 113 1302 q 87 1259 87 1276 l 0 1259 q 10 1310 0 1286 q 38 1351 20 1333 q 79 1379 56 1369 q 130 1389 103 1389 q 181 1379 157 1389 q 222 1351 205 1369 q 250 1310 240 1333 q 260 1259 260 1286 q 250 1209 260 1233 q 222 1166 240 1185 l 222 1166 l 112 1059 z "},"":{"ha":1389,"x_min":0,"x_max":694,"o":"m 521 1389 q 588 1375 557 1389 q 644 1338 620 1362 q 681 1283 667 1314 q 694 1215 694 1251 l 694 955 l 347 955 l 347 1215 q 361 1283 347 1251 q 398 1338 374 1314 q 453 1375 422 1362 q 521 1389 485 1389 m 521 1313 q 483 1305 500 1313 q 452 1284 465 1297 q 431 1253 439 1271 q 423 1215 423 1236 l 618 1215 q 611 1253 618 1236 q 590 1284 603 1271 q 559 1305 576 1297 q 521 1313 541 1313 m 112 1059 q 105 1051 108 1055 q 98 1042 102 1046 l 260 1042 l 260 955 l 0 955 l 0 998 q 13 1062 0 1034 q 45 1114 26 1090 q 87 1158 64 1138 q 129 1194 109 1177 q 161 1227 148 1211 q 174 1259 174 1242 q 161 1289 174 1276 q 130 1302 148 1302 q 100 1289 113 1302 q 87 1259 87 1276 l 0 1259 q 10 1310 0 1286 q 38 1351 20 1333 q 79 1379 56 1369 q 130 1389 103 1389 q 181 1379 157 1389 q 222 1351 205 1369 q 250 1310 240 1333 q 260 1259 260 1286 q 250 1209 260 1233 q 222 1166 240 1185 l 222 1166 l 112 1059 z "},"":{"ha":1389,"x_min":0,"x_max":174,"o":"m 174 1389 l 174 955 l 87 955 l 87 1265 q 44 1253 66 1257 q 0 1249 22 1249 l 0 1335 q 62 1349 36 1335 q 112 1389 88 1363 l 174 1389 z "},"":{"ha":1389,"x_min":0,"x_max":608,"o":"m 0 1335 q 62 1349 36 1335 q 112 1389 88 1363 l 174 1389 l 174 955 l 87 955 l 87 1265 q 44 1253 66 1257 q 0 1249 22 1249 l 0 1335 m 434 1389 q 502 1375 470 1389 q 557 1338 533 1362 q 594 1283 581 1314 q 608 1215 608 1251 l 608 955 l 260 955 l 260 1215 q 274 1283 260 1251 q 311 1338 288 1314 q 367 1375 335 1362 q 434 1389 398 1389 m 434 1313 q 396 1305 414 1313 q 365 1284 378 1297 q 344 1253 352 1271 q 336 1215 336 1236 l 532 1215 q 524 1253 532 1236 q 503 1284 516 1271 q 472 1305 490 1297 q 434 1313 454 1313 z "},"":{"ha":1389,"x_min":0,"x_max":608,"o":"m 0 1389 l 608 1389 l 608 1327 l 347 1067 l 347 955 l 260 955 l 260 1067 l 0 1327 l 0 1389 m 260 1190 l 260 1302 l 149 1302 l 260 1190 m 347 1190 l 459 1302 l 347 1302 l 347 1190 z "},"":{"ha":1389,"x_min":0,"x_max":434,"o":"m 349 1115 q 374 1105 363 1115 l 424 1055 q 434 1029 434 1044 q 424 1005 434 1015 q 402 983 412 993 q 382 968 393 974 q 360 958 372 962 q 330 955 348 955 q 257 969 295 955 q 182 1009 218 984 q 112 1067 145 1034 q 54 1137 79 1100 q 15 1212 29 1173 q 0 1285 0 1250 q 3 1315 0 1303 q 13 1337 7 1327 q 28 1357 19 1348 q 50 1379 38 1367 q 75 1389 60 1389 q 100 1379 90 1389 l 150 1329 q 160 1303 160 1318 q 153 1282 160 1291 q 137 1266 146 1274 q 121 1250 128 1259 q 114 1229 114 1241 q 125 1204 114 1215 l 250 1080 q 274 1069 260 1069 q 295 1076 286 1069 q 311 1092 304 1083 q 328 1108 319 1101 q 349 1115 336 1115 z "},"":{"ha":1389,"x_min":0,"x_max":1042,"o":"m 868 1389 q 936 1375 904 1389 q 991 1338 967 1362 q 1028 1283 1015 1314 q 1042 1215 1042 1251 l 1042 955 l 694 955 l 694 1215 q 708 1283 694 1251 q 745 1338 722 1314 q 801 1375 769 1362 q 868 1389 832 1389 m 868 1313 q 830 1305 848 1313 q 799 1284 812 1297 q 778 1253 786 1271 q 770 1215 770 1236 l 966 1215 q 958 1253 966 1236 q 937 1284 950 1271 q 906 1305 924 1297 q 868 1313 888 1313 m 0 1389 l 608 1389 l 608 1327 l 347 1067 l 347 955 l 260 955 l 260 1067 l 0 1327 l 0 1389 m 347 1190 l 459 1302 l 347 1302 l 347 1190 m 149 1302 l 260 1190 l 260 1302 l 149 1302 z "},"":{"ha":1389,"x_min":0,"x_max":347,"o":"m 174 1389 q 241 1375 210 1389 q 296 1338 273 1362 q 334 1283 320 1314 q 347 1215 347 1251 l 347 955 l 0 955 l 0 1215 q 14 1283 0 1251 q 51 1338 27 1314 q 106 1375 75 1362 q 174 1389 138 1389 m 174 1313 q 136 1305 153 1313 q 105 1284 118 1297 q 84 1253 92 1271 q 76 1215 76 1236 l 271 1215 q 263 1253 271 1236 q 242 1284 256 1271 q 212 1305 229 1297 q 174 1313 194 1313 z "},"":{"ha":1389,"x_min":0,"x_max":1302,"o":"m 608 955 l 694 955 l 694 0 l 608 0 l 608 955 m 252 1223 q 182 1138 213 1184 q 130 1040 151 1091 q 98 935 109 989 q 87 825 87 880 q 98 714 87 769 q 130 609 109 660 q 182 512 151 558 q 252 426 213 465 l 191 364 q 49 575 98 457 q 0 825 0 694 q 49 1074 0 956 q 191 1285 98 1192 l 252 1223 m 1112 1285 q 1253 1074 1204 1192 q 1302 825 1302 956 q 1253 575 1302 694 q 1112 364 1204 457 l 1050 426 q 1120 512 1089 465 q 1172 609 1151 558 q 1204 714 1193 660 q 1215 825 1215 769 q 1204 935 1215 880 q 1172 1040 1193 989 q 1120 1138 1151 1091 q 1050 1223 1089 1184 l 1112 1285 m 927 1101 q 1012 974 982 1046 q 1042 825 1042 903 q 1012 675 1042 747 q 927 549 982 604 l 866 610 q 931 708 909 652 q 954 825 954 764 q 931 941 954 885 q 866 1040 909 997 l 927 1101 m 436 1040 q 370 941 393 997 q 347 825 347 885 q 370 708 347 764 q 436 610 393 652 l 375 549 q 290 675 320 604 q 260 825 260 747 q 290 974 260 903 q 375 1101 320 1046 l 436 1040 z "},"":{"ha":1389,"x_min":174,"x_max":1215,"o":"m 781 1128 l 174 1128 l 174 1215 l 434 1215 l 434 1389 l 521 1389 l 521 1215 l 781 1215 l 781 1128 m 1215 1042 l 1215 955 l 1042 955 l 1042 434 l 955 434 l 955 1302 l 1042 1302 l 1042 1042 l 1215 1042 m 521 260 l 1128 260 l 1128 174 l 434 174 l 434 521 l 521 521 l 521 260 m 694 825 q 678 739 694 779 q 632 670 661 699 q 564 624 604 641 q 477 608 524 608 q 390 624 430 608 q 322 669 351 640 q 277 738 293 698 q 260 825 260 778 q 277 912 260 873 q 322 981 293 952 q 391 1026 351 1010 q 477 1042 431 1042 q 564 1026 524 1042 q 633 981 604 1010 q 678 912 662 952 q 694 825 694 873 m 347 825 q 357 772 347 796 q 383 731 366 748 q 424 704 400 713 q 477 694 448 694 q 530 704 507 694 q 571 731 554 714 q 598 773 589 749 q 608 825 608 797 q 598 878 608 854 q 571 919 589 902 q 530 945 554 936 q 477 955 507 955 q 425 945 448 955 q 384 919 401 936 q 357 878 366 902 q 347 825 347 854 z "},"":{"ha":1389,"x_min":45,"x_max":1344,"o":"m 103 1077 q 82 1102 93 1090 q 58 1126 71 1114 q 178 1238 124 1177 q 275 1371 233 1299 l 338 1348 q 313 1311 326 1329 q 288 1274 301 1293 l 754 1274 l 754 1221 l 248 1221 q 179 1146 215 1181 q 103 1077 142 1110 m 787 1001 q 764 1025 776 1013 q 741 1048 753 1037 q 859 1185 808 1110 q 950 1342 910 1260 l 1013 1322 q 981 1263 998 1291 q 948 1205 965 1234 l 1341 1205 l 1341 1150 l 1244 1150 q 1219 1076 1233 1113 q 1187 1003 1205 1038 q 1146 935 1168 967 q 1096 874 1124 902 q 1153 840 1122 856 q 1216 811 1183 825 q 1281 786 1249 798 q 1344 766 1314 775 q 1325 739 1335 753 q 1308 710 1315 725 q 1241 733 1276 720 q 1172 761 1206 745 q 1106 794 1138 776 q 1048 832 1074 812 q 991 794 1021 812 q 928 760 960 776 q 863 731 896 744 q 799 706 830 718 q 781 733 789 720 q 762 759 772 746 q 821 781 790 769 q 883 808 852 793 q 942 839 913 822 q 996 873 971 855 q 918 976 949 919 q 868 1094 888 1032 q 828 1047 848 1070 q 787 1001 808 1023 m 1177 1150 l 914 1150 q 965 1024 934 1086 q 1045 915 996 962 q 1125 1024 1094 962 q 1177 1150 1157 1086 m 458 293 l 498 237 q 290 162 394 197 q 81 92 186 126 l 49 152 q 255 217 153 182 q 458 293 357 252 m 369 1024 l 405 1059 l 513 997 l 475 960 l 369 1024 m 770 355 q 770 250 770 302 q 770 146 770 199 q 760 84 770 109 q 730 45 749 60 q 683 24 711 31 q 623 16 656 17 q 548 14 585 15 q 474 14 511 14 l 461 81 q 531 79 496 80 q 602 79 566 79 q 646 82 627 79 q 676 96 665 86 q 694 124 688 106 q 700 169 700 142 l 700 353 q 512 348 606 351 q 325 341 419 345 q 250 338 287 340 q 175 332 212 337 l 151 401 q 230 418 191 408 q 309 439 269 427 q 497 491 404 466 q 684 549 591 517 q 513 545 597 548 q 342 538 428 542 q 294 536 318 537 q 245 530 269 535 l 222 594 q 282 608 253 600 q 341 626 312 616 q 471 669 407 647 q 600 715 535 691 l 602 729 l 123 729 l 161 903 l 45 903 l 45 953 l 173 953 l 210 1114 l 698 1114 l 684 953 l 808 953 l 808 903 l 679 903 l 670 777 l 745 777 l 745 729 l 671 729 l 707 694 q 553 642 630 666 q 398 594 476 618 q 548 597 474 596 q 699 600 623 598 q 726 599 707 600 q 764 599 745 599 q 801 599 784 599 q 825 601 819 600 q 840 605 831 602 q 858 612 849 608 q 876 620 867 616 q 890 626 884 623 q 963 654 927 640 q 1036 684 1000 669 l 1082 631 q 715 508 901 564 q 345 395 530 451 q 671 405 509 401 q 997 413 833 409 q 929 451 963 433 q 861 487 895 470 l 904 533 q 1066 445 986 490 q 1227 355 1147 401 l 1186 304 q 1135 334 1160 318 q 1084 364 1110 349 q 927 360 1005 363 q 770 355 849 358 m 261 1065 l 235 953 l 619 953 l 631 1065 l 261 1065 m 199 777 l 606 777 l 615 903 l 224 903 l 199 777 m 897 239 l 935 295 q 1140 220 1038 258 q 1344 143 1242 182 l 1306 85 q 1103 165 1205 127 q 897 239 1000 203 m 347 860 l 382 896 l 492 833 l 455 796 l 347 860 z "},"":{"ha":1389,"x_min":95,"x_max":1345,"o":"m 174 0 l 174 825 l 260 825 l 260 0 l 174 0 m 298 1007 q 366 944 333 977 q 431 878 399 912 l 379 830 q 318 901 349 867 q 254 969 287 935 l 298 1007 m 417 1091 l 464 1125 q 513 1075 490 1101 q 559 1023 536 1050 l 505 982 q 462 1038 484 1010 q 417 1091 440 1065 m 521 868 l 521 955 l 1302 955 l 1302 172 q 1130 0 1302 0 q 966 4 1048 0 q 958 45 964 25 q 946 86 951 66 q 1035 81 991 83 q 1123 79 1078 79 q 1159 84 1142 79 q 1188 98 1175 89 q 1208 123 1200 108 q 1215 159 1215 138 l 1215 868 l 521 868 m 1034 1126 q 1084 1076 1059 1101 q 1132 1022 1109 1050 l 1078 981 q 1034 1038 1057 1010 q 987 1094 1011 1066 l 1034 1126 m 1042 260 l 521 260 l 521 174 l 434 174 l 434 781 l 1042 781 l 1042 260 m 955 694 l 521 694 l 521 564 l 955 564 l 955 694 m 521 347 l 955 347 l 955 477 l 521 477 l 521 347 m 738 1128 l 281 1128 q 219 1050 252 1088 q 151 978 186 1013 l 95 1034 q 221 1176 164 1100 q 321 1338 278 1252 l 410 1338 q 377 1276 394 1306 q 342 1215 359 1246 l 738 1215 l 738 1128 m 949 1215 l 1345 1215 l 1345 1128 l 889 1128 q 826 1050 859 1088 q 758 978 793 1013 l 703 1034 q 829 1176 772 1100 q 928 1338 886 1252 l 1017 1338 q 984 1276 1002 1306 q 949 1215 967 1246 z "},"":{"ha":1389,"x_min":174,"x_max":1215,"o":"m 694 0 q 713 138 694 72 q 766 263 732 205 q 847 368 800 321 q 952 450 895 416 q 1077 502 1010 484 q 1215 521 1143 521 l 1215 434 q 1100 418 1156 434 q 996 375 1044 403 q 908 307 948 347 q 841 219 869 267 q 797 115 812 171 q 781 0 781 60 l 694 0 m 434 0 q 462 208 434 108 q 541 395 490 308 q 663 553 591 481 q 821 675 734 624 q 1007 753 907 726 q 1215 781 1107 781 l 1215 694 q 1031 670 1120 694 q 865 600 943 645 q 725 491 788 554 q 616 350 661 427 q 546 184 570 273 q 521 0 521 96 l 434 0 m 174 0 q 211 277 174 144 q 316 526 248 410 q 479 736 384 642 q 690 899 574 831 q 939 1004 806 967 q 1215 1042 1072 1042 l 1215 955 q 962 921 1084 955 q 734 824 840 886 q 541 675 628 762 q 391 481 453 587 q 295 253 329 375 q 260 0 260 132 l 174 0 m 1085 260 q 1136 250 1112 260 q 1177 222 1160 240 q 1205 181 1195 205 q 1215 130 1215 157 q 1205 79 1215 103 q 1177 38 1195 56 q 1136 10 1160 20 q 1085 0 1112 0 q 1034 10 1058 0 q 993 38 1010 20 q 965 79 975 56 q 955 130 955 103 q 965 181 955 157 q 993 222 975 205 q 1034 250 1010 240 q 1085 260 1058 260 z "},"":{"ha":1389,"x_min":404,"x_max":1059,"o":"m 694 25 l 694 546 l 465 317 l 404 378 l 676 651 l 404 924 l 465 985 l 694 756 l 694 1277 l 1059 911 l 799 651 l 1059 391 l 694 25 m 781 546 l 781 235 l 937 391 l 781 546 m 781 1067 l 781 756 l 937 911 l 781 1067 z "},"":{"ha":1389,"x_min":0,"x_max":1389,"o":"m 347 174 l 174 174 l 174 260 l 347 260 l 347 174 m 781 174 l 781 87 l 955 87 l 955 0 l 0 0 l 0 781 l 87 781 l 87 1042 l 1389 1042 l 1389 174 l 781 174 m 448 709 l 73 709 l 73 73 l 448 73 l 448 709 m 694 174 l 521 174 l 521 87 l 694 87 l 694 174 m 1302 260 l 1302 955 l 174 955 l 174 781 l 521 781 l 521 260 l 1302 260 z "},"":{"ha":1389,"x_min":0,"x_max":1302,"o":"m 608 955 l 694 955 l 694 0 l 608 0 l 608 955 m 252 1223 q 182 1138 213 1184 q 130 1040 151 1091 q 98 935 109 989 q 87 825 87 880 q 98 714 87 769 q 130 609 109 660 q 182 512 151 558 q 252 426 213 465 l 191 364 q 49 575 98 457 q 0 825 0 694 q 49 1074 0 956 q 191 1285 98 1192 l 252 1223 m 1112 1285 q 1253 1074 1204 1192 q 1302 825 1302 956 q 1253 575 1302 694 q 1112 364 1204 457 l 1050 426 q 1120 512 1089 465 q 1172 609 1151 558 q 1204 714 1193 660 q 1215 825 1215 769 q 1204 935 1215 880 q 1172 1040 1193 989 q 1120 1138 1151 1091 q 1050 1223 1089 1184 l 1112 1285 m 927 1101 q 1012 974 982 1046 q 1042 825 1042 903 q 1012 675 1042 747 q 927 549 982 604 l 866 610 q 931 708 909 652 q 954 825 954 764 q 931 941 954 885 q 866 1040 909 997 l 927 1101 m 436 1040 q 370 941 393 997 q 347 825 347 885 q 370 708 347 764 q 436 610 393 652 l 375 549 q 290 675 320 604 q 260 825 260 747 q 290 974 260 903 q 375 1101 320 1046 l 436 1040 z "},"":{"ha":1389,"x_min":0,"x_max":1302,"o":"m 528 698 l 432 794 q 407 720 426 754 q 359 661 388 686 q 294 622 330 635 q 217 608 258 608 q 133 625 172 608 q 63 671 93 642 q 17 740 34 701 q 0 825 0 780 q 17 909 0 869 q 63 978 34 949 q 133 1025 93 1008 q 217 1042 172 1042 q 300 1025 260 1042 q 371 978 340 1009 l 589 759 l 528 698 m 217 694 q 268 705 244 694 q 309 732 292 715 q 337 774 327 750 q 347 825 347 798 q 337 876 347 852 q 309 917 327 899 q 268 945 292 935 q 217 955 244 955 q 166 945 190 955 q 125 917 142 935 q 97 876 107 899 q 87 825 87 852 q 97 774 87 798 q 125 732 107 750 q 166 705 142 715 q 217 694 190 694 m 1085 1042 q 1170 1025 1130 1042 q 1239 978 1209 1008 q 1285 909 1268 949 q 1302 825 1302 869 q 1285 740 1302 780 q 1239 671 1268 701 q 1170 625 1209 642 q 1085 608 1130 608 q 1028 614 1053 608 q 982 633 1004 621 q 942 663 961 646 q 901 702 922 680 l 962 764 q 989 736 977 749 q 1016 714 1002 724 q 1047 700 1030 705 q 1085 694 1063 694 q 1136 705 1112 694 q 1177 732 1160 715 q 1205 774 1195 750 q 1215 825 1215 798 q 1205 876 1215 852 q 1177 917 1195 899 q 1136 945 1160 935 q 1085 955 1112 955 q 1035 945 1059 955 q 993 917 1011 935 l 559 483 q 531 440 541 465 q 521 391 521 416 q 531 340 521 363 q 559 298 541 316 q 600 271 576 281 q 651 260 624 260 q 702 271 678 260 q 743 298 726 281 q 771 340 761 316 q 781 391 781 363 q 776 429 781 412 q 761 460 770 446 q 739 487 752 474 q 712 513 726 499 l 774 574 q 812 534 795 553 q 842 493 830 515 q 861 447 854 472 q 868 391 868 422 q 851 306 868 346 q 805 237 834 267 q 735 191 775 208 q 651 174 696 174 q 567 191 606 174 q 497 237 527 208 q 451 306 468 267 q 434 391 434 346 q 450 474 434 435 q 498 544 467 513 l 932 978 q 1002 1025 963 1009 q 1085 1042 1040 1042 m 651 850 l 459 1042 l 583 1042 l 651 972 l 720 1042 l 843 1042 l 651 850 z "},"":{"ha":1389,"x_min":0,"x_max":1302,"o":"m 651 1042 q 769 1018 714 1042 q 866 953 825 994 q 931 856 907 911 q 955 738 955 801 q 931 620 955 675 q 866 523 907 564 q 769 458 825 481 q 651 434 714 434 q 533 458 588 434 q 436 523 477 481 q 371 620 395 564 q 347 738 347 675 q 371 856 347 801 q 436 953 395 911 q 533 1018 477 994 q 651 1042 588 1042 m 651 521 q 735 538 696 521 q 804 584 774 555 q 851 653 833 614 q 868 738 868 693 q 851 822 868 783 q 804 891 833 861 q 735 938 774 920 q 651 955 696 955 q 567 938 606 955 q 497 891 527 920 q 451 822 468 861 q 434 738 434 783 q 451 653 434 693 q 497 584 468 614 q 567 538 527 555 q 651 521 606 521 m 694 1128 l 608 1128 l 608 1389 l 694 1389 l 694 1128 m 608 347 l 694 347 l 694 87 l 608 87 l 608 347 m 1302 781 l 1302 694 l 1042 694 l 1042 781 l 1302 781 m 260 694 l 0 694 l 0 781 l 260 781 l 260 694 m 344 983 l 160 1168 l 221 1229 l 406 1045 l 344 983 m 958 492 l 1142 308 l 1081 247 l 897 431 l 958 492 m 958 983 l 897 1045 l 1081 1229 l 1142 1168 l 958 983 m 344 492 l 406 431 l 221 247 l 160 308 l 344 492 z "},"":{"ha":1389,"x_min":0,"x_max":1302,"o":"m 1302 0 l 0 0 l 260 781 l 608 781 l 608 959 q 538 987 570 967 q 483 1035 506 1006 q 447 1098 460 1063 q 434 1172 434 1133 q 451 1256 434 1217 q 497 1325 468 1295 q 567 1372 527 1354 q 651 1389 606 1389 q 735 1372 696 1389 q 804 1325 774 1354 q 851 1256 833 1295 q 868 1172 868 1217 q 855 1098 868 1133 q 819 1035 842 1063 q 764 987 796 1006 q 694 959 732 967 l 694 781 l 1042 781 l 1302 0 m 521 1172 q 531 1121 521 1145 q 559 1080 541 1097 q 600 1052 576 1062 q 651 1042 624 1042 q 702 1052 678 1042 q 743 1080 726 1062 q 771 1121 761 1097 q 781 1172 781 1145 q 771 1223 781 1199 q 743 1264 761 1246 q 702 1292 726 1282 q 651 1302 678 1302 q 600 1292 624 1302 q 559 1264 576 1282 q 531 1223 541 1246 q 521 1172 521 1199 m 121 87 l 1181 87 l 979 694 l 694 694 l 694 369 q 689 358 694 363 q 677 352 684 354 q 663 348 670 349 q 651 347 656 347 q 639 348 646 347 q 625 352 632 349 q 613 358 618 354 q 608 369 608 363 l 608 694 l 323 694 l 121 87 z "},"":{"ha":1389,"x_min":3,"x_max":1302,"o":"m 87 347 q 271 372 182 347 q 437 442 360 397 q 577 551 514 488 q 686 691 641 614 q 756 857 732 768 q 781 1042 781 946 q 758 1219 781 1132 q 691 1383 735 1305 q 857 1342 778 1373 q 1004 1264 937 1312 q 1127 1155 1072 1217 q 1221 1020 1182 1093 q 1281 864 1260 947 q 1302 694 1302 782 q 1277 510 1302 599 q 1207 344 1253 421 q 1098 204 1162 267 q 958 95 1035 140 q 792 25 881 50 q 608 0 703 0 q 425 24 514 0 q 258 95 336 49 q 115 206 180 140 q 3 353 50 271 q 45 349 24 350 q 87 347 66 347 m 608 87 q 769 109 692 87 q 915 170 847 130 q 1037 265 982 210 q 1132 388 1093 320 q 1194 533 1172 455 q 1215 694 1215 610 q 1188 873 1215 787 q 1112 1033 1161 960 q 993 1164 1063 1107 q 838 1257 923 1222 q 868 1042 868 1152 q 844 850 868 943 q 777 675 821 758 q 670 523 732 593 q 531 399 608 452 q 365 312 454 346 q 178 266 276 277 q 375 133 264 179 q 608 87 485 87 z "},"":{"ha":1389,"x_min":0,"x_max":1389,"o":"m 1215 868 q 1282 854 1251 868 q 1338 817 1314 840 q 1375 762 1361 793 q 1389 694 1389 730 q 1375 627 1389 659 q 1338 572 1361 595 q 1282 535 1314 549 q 1215 521 1251 521 l 911 521 l 651 0 l 347 0 l 521 521 l 347 521 l 304 434 l 0 434 l 87 694 l 0 955 l 304 955 l 347 868 l 521 868 l 347 1389 l 651 1389 l 911 868 l 1215 868 m 1215 608 q 1249 614 1234 608 q 1277 633 1265 621 q 1295 661 1289 645 q 1302 694 1302 676 q 1295 728 1302 713 q 1277 756 1289 744 q 1249 774 1265 768 q 1215 781 1234 781 l 858 781 q 727 1041 791 911 q 597 1302 663 1171 l 468 1302 q 554 1041 511 1171 q 642 781 597 911 l 294 781 l 250 868 l 121 868 q 149 781 135 825 q 178 694 163 738 q 149 608 163 651 q 121 521 135 564 l 250 521 l 294 608 l 642 608 q 554 348 597 477 q 468 87 511 218 l 597 87 q 727 348 663 218 q 858 608 791 477 l 1215 608 z "},"":{"ha":1389,"x_min":0,"x_max":1389,"o":"m 1280 1215 q 1322 1207 1303 1215 q 1357 1183 1342 1198 q 1380 1149 1372 1168 q 1389 1107 1389 1129 l 1389 282 q 1380 240 1389 260 q 1357 205 1372 220 q 1322 182 1342 191 q 1280 174 1303 174 l 109 174 q 66 182 86 174 q 32 205 47 191 q 8 240 17 220 q 0 282 0 260 l 0 1107 q 8 1149 0 1129 q 32 1183 17 1168 q 66 1207 47 1198 q 109 1215 86 1215 l 1280 1215 m 1302 282 l 1302 1107 q 1296 1122 1302 1116 q 1280 1128 1290 1128 l 109 1128 q 93 1122 99 1128 q 87 1107 87 1116 l 87 282 q 93 267 87 273 q 109 260 99 260 l 1280 260 q 1296 267 1290 260 q 1302 282 1302 273 m 608 347 l 608 434 l 781 434 l 781 347 l 608 347 z "},"":{"ha":1389,"x_min":87,"x_max":1302,"o":"m 1302 1302 l 1302 87 l 434 87 l 87 434 l 87 1302 l 1302 1302 m 434 210 l 434 434 l 210 434 l 434 210 m 1215 1215 l 174 1215 l 174 521 l 521 521 l 521 174 l 1215 174 l 1215 1215 z "},"":{"ha":1389,"x_min":0,"x_max":1377,"o":"m 1214 1128 l 1214 434 l 1128 713 l 1128 1042 l 174 1042 l 174 781 l 347 781 l 347 521 l 983 521 l 956 434 l 694 434 l 694 260 l 434 260 l 434 347 l 608 347 l 608 434 l 347 434 l 347 260 l 0 260 l 0 781 l 87 781 l 87 1128 l 1214 1128 m 87 694 l 87 347 l 260 347 l 260 694 l 87 694 m 905 0 l 973 213 l 793 347 l 1020 347 l 1086 557 l 1150 347 l 1377 347 l 1197 213 l 1266 1 l 1085 132 l 905 0 z "},"":{"ha":1389,"x_min":2,"x_max":1387,"o":"m 1326 349 l 694 980 l 63 349 l 2 410 l 694 1103 l 1387 410 l 1326 349 z "},"":{"ha":1389,"x_min":87,"x_max":1302,"o":"m 174 781 q 208 774 192 781 q 235 756 223 768 q 254 728 247 744 q 260 694 260 713 q 254 661 260 676 q 235 633 247 645 q 208 614 223 621 q 174 608 192 608 q 140 614 155 608 q 112 633 124 621 q 94 661 100 645 q 87 694 87 676 q 94 728 87 713 q 112 756 100 744 q 140 774 124 768 q 174 781 155 781 m 694 781 q 728 774 713 781 q 756 756 744 768 q 774 728 768 744 q 781 694 781 713 q 774 661 781 676 q 756 633 768 645 q 728 614 744 621 q 694 608 713 608 q 661 614 676 608 q 633 633 645 621 q 614 661 621 645 q 608 694 608 676 q 614 728 608 713 q 633 756 621 744 q 661 774 645 768 q 694 781 676 781 m 1215 781 q 1249 774 1234 781 q 1277 756 1265 768 q 1295 728 1289 744 q 1302 694 1302 713 q 1295 661 1302 676 q 1277 633 1289 645 q 1249 614 1265 621 q 1215 608 1234 608 q 1181 614 1197 608 q 1154 633 1166 621 q 1135 661 1142 645 q 1128 694 1128 676 q 1135 728 1128 713 q 1154 756 1142 744 q 1181 774 1166 768 q 1215 781 1197 781 z "},"":{"ha":1389,"x_min":0,"x_max":1389,"o":"m 1389 342 l 1042 515 l 1042 347 l 0 347 l 0 1042 l 1042 1042 l 1042 873 l 1389 1047 l 1389 342 m 955 955 l 87 955 l 87 434 l 955 434 l 955 955 m 1302 907 l 1042 776 l 1042 613 l 1302 482 l 1302 907 z "},"":{"ha":1389,"x_min":0,"x_max":1388,"o":"m 1090 566 q 1147 555 1120 566 q 1196 523 1175 544 l 1345 374 q 1377 325 1366 353 q 1388 268 1388 298 q 1377 211 1388 238 q 1345 162 1366 183 l 1335 153 q 1268 87 1299 116 q 1204 40 1238 59 q 1131 10 1171 20 q 1034 0 1090 0 q 859 26 949 0 q 681 100 770 53 q 508 211 593 146 q 347 352 422 275 q 208 513 271 428 q 98 687 144 598 q 26 863 52 775 q 0 1034 0 951 q 10 1131 0 1090 q 39 1204 20 1171 q 86 1267 58 1237 q 151 1334 115 1297 l 162 1345 q 210 1377 183 1366 q 268 1389 237 1389 q 325 1377 298 1389 q 374 1345 353 1366 l 523 1196 q 555 1147 544 1175 q 566 1090 566 1120 q 556 1037 566 1060 q 531 994 546 1013 q 498 960 516 975 q 465 929 480 944 q 440 899 450 914 q 430 866 430 884 q 448 822 430 840 l 822 448 q 866 430 840 430 q 899 440 884 430 q 929 465 914 450 q 960 498 944 480 q 994 531 975 516 q 1037 556 1013 546 q 1090 566 1060 566 m 1034 87 q 1115 96 1082 87 q 1175 122 1148 105 q 1226 165 1201 140 q 1284 224 1251 191 q 1302 268 1302 242 q 1292 297 1302 280 q 1267 332 1282 313 q 1232 369 1251 350 q 1194 406 1213 389 q 1159 438 1175 423 q 1135 461 1143 452 q 1090 479 1116 479 q 1057 469 1072 479 q 1027 444 1042 459 q 997 411 1013 429 q 962 378 981 393 q 919 353 943 363 q 866 343 896 343 q 809 354 836 343 q 760 387 781 366 l 387 760 q 354 809 366 781 q 343 866 343 836 q 353 919 343 896 q 378 962 363 943 q 411 997 393 981 q 444 1027 429 1013 q 469 1057 459 1042 q 479 1090 479 1072 q 461 1135 479 1116 q 438 1159 452 1143 q 406 1194 423 1175 q 369 1232 389 1213 q 332 1267 350 1251 q 297 1292 313 1282 q 268 1302 280 1302 q 224 1284 242 1302 q 166 1226 191 1251 q 122 1175 140 1201 q 95 1115 104 1148 q 86 1034 86 1082 q 111 878 86 958 q 179 716 136 797 q 283 557 223 635 q 413 409 342 479 q 562 280 484 339 q 721 178 640 221 q 881 111 801 135 q 1034 87 960 87 z "},"":{"ha":1389,"x_min":87,"x_max":1302,"o":"m 1302 1302 l 1302 87 l 87 87 l 87 1302 l 1302 1302 m 1215 1215 l 174 1215 l 174 174 l 1215 174 l 1215 1215 z "},"":{"ha":1389,"x_min":0,"x_max":1389,"o":"m 1042 868 l 1042 781 q 1140 769 1093 781 q 1223 731 1187 758 q 1281 664 1259 705 q 1302 564 1302 623 q 1285 480 1302 519 q 1238 411 1267 441 q 1169 365 1208 382 q 1085 347 1130 347 l 738 347 q 654 365 693 347 q 585 411 614 382 q 538 480 555 441 q 521 564 521 519 q 542 664 521 623 q 600 731 564 705 q 683 769 635 758 q 781 781 730 781 l 781 868 l 738 868 q 620 844 675 868 q 523 779 564 820 q 458 683 482 738 q 434 564 434 627 q 458 446 434 501 q 523 350 482 391 q 620 284 564 309 q 738 260 675 260 l 1085 260 q 1203 284 1148 260 q 1300 350 1259 309 q 1365 446 1341 391 q 1389 564 1389 501 q 1365 683 1389 627 q 1300 779 1341 738 q 1203 844 1259 820 q 1085 868 1148 868 l 1042 868 m 608 521 l 608 608 q 706 620 659 608 q 789 657 753 631 q 847 725 825 684 q 868 825 868 766 q 851 909 868 869 q 804 978 833 948 q 735 1024 774 1007 q 651 1042 696 1042 l 304 1042 q 220 1024 259 1042 q 151 978 180 1007 q 104 909 121 948 q 87 825 87 869 q 108 725 87 766 q 165 657 130 684 q 249 620 201 631 q 347 608 296 608 l 347 521 l 304 521 q 185 545 241 521 q 89 610 130 569 q 24 706 48 651 q 0 825 0 762 q 24 943 0 888 q 89 1039 48 998 q 185 1104 130 1080 q 304 1128 241 1128 l 651 1128 q 769 1104 714 1128 q 866 1039 825 1080 q 931 943 907 998 q 955 825 955 888 q 931 706 955 762 q 866 610 907 651 q 769 545 825 569 q 651 521 714 521 l 608 521 z "},"":{"ha":1389,"x_min":0,"x_max":1389,"o":"m 0 434 l 0 694 l 260 694 l 260 434 l 0 434 m 87 608 l 87 521 l 174 521 l 174 608 l 87 608 m 0 781 l 0 1042 l 260 1042 l 260 781 l 0 781 m 87 955 l 87 868 l 174 868 l 174 955 l 87 955 m 0 1128 l 0 1389 l 260 1389 l 260 1128 l 0 1128 m 87 1302 l 87 1215 l 174 1215 l 174 1302 l 87 1302 m 434 868 l 434 955 l 1215 955 l 1215 868 l 434 868 m 1042 608 l 1042 521 l 434 521 l 434 608 l 1042 608 m 434 1302 l 1389 1302 l 1389 1215 l 434 1215 l 434 1302 m 0 87 l 0 347 l 260 347 l 260 87 l 0 87 m 87 260 l 87 174 l 174 174 l 174 260 l 87 260 m 434 174 l 434 260 l 1215 260 l 1215 174 l 434 174 z "},"":{"ha":1389,"x_min":0,"x_max":1389,"o":"m 1389 47 q 1377 14 1389 28 q 1345 0 1366 0 q 1315 13 1328 0 l 783 545 q 640 463 718 491 q 477 434 562 434 q 351 451 412 434 q 237 499 290 468 q 140 574 184 530 q 65 671 96 618 q 17 785 34 724 q 0 911 0 846 q 17 1038 0 977 q 65 1152 34 1099 q 140 1249 96 1205 q 237 1324 184 1293 q 351 1372 290 1355 q 477 1389 412 1389 q 604 1372 543 1389 q 718 1324 665 1355 q 815 1249 771 1293 q 890 1152 859 1205 q 938 1038 921 1099 q 955 911 955 977 q 926 749 955 827 q 844 606 898 671 q 883 568 854 596 q 952 500 912 539 q 1041 413 993 460 q 1137 318 1088 366 q 1231 223 1185 269 q 1312 140 1276 177 q 1368 78 1347 102 q 1389 47 1389 53 m 477 521 q 629 552 558 521 q 753 635 701 583 q 837 760 806 688 q 868 911 868 831 q 837 1063 868 992 q 753 1187 806 1135 q 629 1271 701 1240 q 477 1302 558 1302 q 326 1271 397 1302 q 201 1187 254 1240 q 118 1063 149 1135 q 87 911 87 992 q 118 760 87 831 q 201 635 149 688 q 326 552 254 583 q 477 521 397 521 z "},"":{"ha":1389,"x_min":0,"x_max":1389,"o":"m 1389 47 q 1377 14 1389 28 q 1345 0 1366 0 q 1315 13 1328 0 l 783 545 q 640 463 718 491 q 477 434 562 434 q 351 451 412 434 q 237 499 290 468 q 140 574 184 530 q 65 671 96 618 q 17 785 34 724 q 0 911 0 846 q 17 1038 0 977 q 65 1152 34 1099 q 140 1249 96 1205 q 237 1324 184 1293 q 351 1372 290 1355 q 477 1389 412 1389 q 604 1372 543 1389 q 718 1324 665 1355 q 815 1249 771 1293 q 890 1152 859 1205 q 938 1038 921 1099 q 955 911 955 977 q 926 749 955 827 q 844 606 898 671 q 883 568 854 596 q 952 500 912 539 q 1041 413 993 460 q 1137 318 1088 366 q 1231 223 1185 269 q 1312 140 1276 177 q 1368 78 1347 102 q 1389 47 1389 53 m 477 521 q 629 552 558 521 q 753 635 701 583 q 837 760 806 688 q 868 911 868 831 q 837 1063 868 992 q 753 1187 806 1135 q 629 1271 701 1240 q 477 1302 558 1302 q 326 1271 397 1302 q 201 1187 254 1240 q 118 1063 149 1135 q 87 911 87 992 q 118 760 87 831 q 201 635 149 688 q 326 552 254 583 q 477 521 397 521 m 260 955 l 694 955 l 694 868 l 260 868 l 260 955 z "},"":{"ha":1389,"x_min":174,"x_max":1128,"o":"m 477 347 q 427 357 450 347 q 385 385 403 368 q 357 427 368 403 q 347 477 347 450 l 347 1259 q 357 1310 347 1286 q 385 1351 368 1333 q 427 1379 403 1369 q 477 1389 450 1389 l 825 1389 q 876 1379 852 1389 q 917 1351 899 1369 q 945 1310 935 1333 q 955 1259 955 1286 l 955 477 q 945 427 955 450 q 917 385 935 403 q 876 357 899 368 q 825 347 852 347 l 477 347 m 434 477 q 447 447 434 460 q 477 434 460 434 l 825 434 q 855 447 842 434 q 868 477 868 460 l 868 1259 q 855 1289 868 1276 q 825 1302 842 1302 l 477 1302 q 447 1289 460 1302 q 434 1259 434 1276 l 434 477 m 1128 694 l 1128 449 q 1107 342 1128 392 q 1048 254 1085 292 q 960 195 1010 217 q 853 174 910 174 l 694 174 l 694 87 l 868 87 l 868 0 l 434 0 l 434 87 l 608 87 l 608 174 l 449 174 q 342 195 392 174 q 254 254 292 217 q 195 342 217 292 q 174 449 174 392 l 174 694 l 260 694 l 260 449 q 275 376 260 410 q 316 316 290 341 q 376 275 341 290 q 449 260 410 260 l 853 260 q 926 275 892 260 q 986 316 961 290 q 1027 376 1012 341 q 1042 449 1042 410 l 1042 694 l 1128 694 z "},"":{"ha":1389,"x_min":7,"x_max":1385,"o":"m 7 279 l 146 694 l 781 694 l 955 738 l 781 781 l 146 781 l 7 1197 l 1385 738 l 7 279 z "},"":{"ha":1389,"x_min":0,"x_max":1389,"o":"m 1389 1302 l 1389 174 l 0 174 l 0 1302 l 1389 1302 m 1302 1215 l 1175 1215 l 1302 1088 l 1302 1215 m 1302 955 l 1001 955 l 1302 654 l 1302 955 m 1256 1042 l 1082 1215 l 741 1215 l 914 1042 l 1256 1042 m 648 1215 l 311 1215 l 484 1042 l 822 1042 l 648 1215 m 87 1042 l 392 1042 l 218 1215 l 87 1215 l 87 1042 m 87 909 l 87 567 l 393 260 l 735 260 l 87 909 m 827 260 l 1173 260 l 479 955 l 133 955 l 827 260 m 87 260 l 301 260 l 87 475 l 87 260 m 1302 260 l 1302 562 l 909 955 l 571 955 l 1265 260 l 1302 260 z "},"":{"ha":1389,"x_min":0,"x_max":1389,"o":"m 1389 868 l 1389 781 l 793 781 q 744 940 769 861 q 694 1098 720 1018 q 645 940 669 1018 q 595 781 620 861 l 255 781 q 392 675 324 728 q 530 570 460 623 q 477 403 503 486 q 425 236 451 320 l 694 444 l 694 334 l 260 0 l 429 538 l 0 868 l 532 868 l 694 1389 l 857 868 l 1389 868 m 781 608 l 1389 608 l 1389 521 l 781 521 l 781 608 m 781 347 l 1389 347 l 1389 260 l 781 260 l 781 347 z "},"":{"ha":1389,"x_min":87,"x_max":1215,"o":"m 1190 1042 l 868 1042 l 868 1364 l 1190 1042 m 1215 955 l 1215 0 l 87 0 l 87 1389 l 781 1389 l 781 955 l 1215 955 z "},"":{"ha":1389,"x_min":0,"x_max":1385,"o":"m 1385 694 l 747 56 l 686 117 l 1219 651 l 0 651 l 0 738 l 1219 738 l 686 1272 l 747 1333 l 1385 694 z "},"":{"ha":1389,"x_min":4,"x_max":1389,"o":"m 1389 651 l 170 651 l 703 117 l 642 56 l 4 694 l 642 1333 l 703 1272 l 170 738 l 1389 738 l 1389 651 z "},"":{"ha":1389,"x_min":0,"x_max":1389,"o":"m 880 1363 q 1086 1268 992 1333 q 1247 1115 1179 1203 q 1352 919 1314 1026 q 1389 694 1389 811 q 1364 510 1389 599 q 1294 344 1339 421 q 1186 203 1249 267 q 1045 95 1122 140 q 879 25 968 50 q 694 0 790 0 q 510 25 599 0 q 344 95 421 50 q 203 203 267 140 q 95 344 140 267 q 25 510 50 421 q 0 694 0 598 q 25 879 0 789 q 97 1047 50 968 q 210 1191 143 1126 q 359 1302 276 1256 l 174 1302 l 174 1389 l 521 1389 l 521 1042 l 434 1042 l 434 1243 q 291 1148 355 1205 q 181 1019 227 1090 q 111 865 136 947 q 87 694 87 782 q 109 533 87 611 q 170 388 130 456 q 265 265 210 321 q 388 170 321 210 q 533 109 456 130 q 694 87 610 87 q 856 109 778 87 q 1001 170 933 130 q 1124 265 1068 210 q 1219 388 1179 321 q 1280 533 1259 456 q 1302 694 1302 610 q 1269 890 1302 796 q 1177 1062 1236 985 q 1037 1196 1118 1139 q 857 1280 955 1253 l 880 1363 l 880 1363 z "},"":{"ha":1389,"x_min":174,"x_max":1215,"o":"m 1215 781 l 1215 0 l 174 0 l 174 781 l 347 781 l 347 1035 q 374 1173 347 1108 q 447 1285 400 1237 q 557 1361 494 1333 q 694 1389 621 1389 q 832 1361 768 1389 q 942 1285 895 1333 q 1015 1173 989 1237 q 1042 1035 1042 1108 l 1042 781 l 1215 781 m 434 781 l 955 781 l 955 1035 q 935 1138 955 1090 q 881 1223 916 1187 q 798 1281 846 1260 q 694 1302 750 1302 q 591 1281 639 1302 q 508 1223 543 1260 q 454 1138 473 1187 q 434 1035 434 1090 l 434 781 m 1128 694 l 260 694 l 260 87 l 1128 87 l 1128 694 z "},"":{"ha":1389,"x_min":0,"x_max":1302,"o":"m 694 347 l 608 347 l 608 434 l 694 434 l 694 347 m 694 1128 l 608 1128 l 608 521 l 694 521 l 694 1128 m 651 2 q 491 103 570 50 q 339 219 411 157 q 204 352 267 281 q 97 503 142 422 q 26 675 52 584 q 0 868 0 766 l 0 1215 q 109 1219 56 1215 q 212 1234 162 1223 q 311 1265 262 1245 q 409 1316 360 1284 q 524 1371 467 1353 q 651 1389 582 1389 q 717 1384 686 1389 q 778 1371 748 1380 q 836 1348 807 1362 q 893 1316 864 1334 q 991 1265 942 1284 q 1090 1234 1040 1245 q 1193 1219 1140 1223 q 1302 1215 1246 1215 l 1302 868 q 1276 675 1302 766 q 1205 503 1251 584 q 1098 352 1160 422 q 963 219 1036 281 q 811 103 891 157 q 651 2 732 50 m 87 1130 l 87 868 q 110 703 87 782 q 172 552 132 623 q 265 416 211 480 q 382 295 319 352 q 513 191 444 239 q 651 102 582 142 q 789 191 720 142 q 920 295 858 239 q 1037 416 983 352 q 1131 552 1091 480 q 1193 703 1170 623 q 1215 868 1215 782 l 1215 1130 q 1022 1162 1114 1135 q 844 1244 929 1190 q 752 1288 798 1274 q 651 1302 706 1302 q 550 1288 596 1302 q 458 1244 505 1274 q 280 1162 373 1190 q 87 1130 188 1135 z "},"":{"ha":1389,"x_min":0,"x_max":1389,"o":"m 694 1389 q 879 1364 790 1389 q 1044 1294 967 1339 q 1185 1185 1122 1249 q 1294 1044 1249 1122 q 1364 879 1339 967 q 1389 694 1389 790 q 1364 510 1389 599 q 1294 345 1339 422 q 1185 204 1249 267 q 1044 95 1122 140 q 879 25 967 50 q 694 0 790 0 q 510 25 599 0 q 345 95 422 50 q 204 204 267 140 q 95 345 140 267 q 25 510 50 422 q 0 694 0 599 q 25 879 0 790 q 95 1044 50 967 q 204 1185 140 1122 q 345 1294 267 1249 q 510 1364 422 1339 q 694 1389 599 1389 m 694 87 q 907 125 806 87 q 1093 235 1008 163 l 235 1093 q 125 907 163 1008 q 87 694 87 806 q 109 533 87 610 q 170 388 130 455 q 265 265 210 320 q 388 170 320 210 q 533 109 455 130 q 694 87 610 87 m 1154 296 q 1264 482 1226 380 q 1302 694 1302 583 q 1280 856 1302 779 q 1219 1001 1259 934 q 1124 1124 1179 1069 q 1001 1219 1069 1179 q 856 1280 934 1259 q 694 1302 779 1302 q 482 1264 583 1302 q 296 1154 380 1226 l 1154 296 z "},"":{"ha":1389,"x_min":0,"x_max":1389,"o":"m 960 538 l 1128 0 l 694 334 l 260 0 l 429 538 l 0 868 l 532 868 l 694 1389 l 857 868 l 1389 868 l 960 538 m 964 236 q 912 403 938 320 q 859 570 886 486 q 997 675 929 623 q 1134 781 1065 728 l 793 781 l 694 1098 l 595 781 l 255 781 q 392 675 324 728 q 530 570 460 623 q 477 403 503 486 q 425 236 451 320 l 694 444 l 964 236 z "},"":{"ha":1389,"x_min":0,"x_max":1302,"o":"m 1302 1215 l 1302 87 l 0 87 l 0 1215 l 174 1215 l 174 1302 l 434 1302 q 549 1284 494 1302 q 651 1229 604 1265 q 753 1284 698 1265 q 868 1302 808 1302 l 1128 1302 l 1128 1215 l 1302 1215 m 868 1215 q 776 1199 821 1215 q 694 1153 731 1183 l 694 302 q 779 336 734 325 q 868 347 823 347 l 1042 347 l 1042 1215 l 868 1215 m 260 347 l 434 347 q 524 336 479 347 q 608 302 568 325 l 608 1153 q 526 1199 571 1183 q 434 1215 481 1215 l 260 1215 l 260 347 m 87 174 l 633 174 q 589 211 612 195 q 543 238 567 227 q 492 255 519 249 q 434 260 465 260 l 174 260 l 174 1128 l 87 1128 l 87 174 m 1215 1128 l 1128 1128 l 1128 260 l 868 260 q 810 255 837 260 q 759 238 783 249 q 713 211 735 227 q 669 174 690 195 l 1215 174 l 1215 1128 z "},"":{"ha":1389,"x_min":0,"x_max":1389,"o":"m 1389 1302 l 1389 174 l 0 174 l 0 1302 l 1389 1302 m 87 1215 l 87 1042 l 1302 1042 l 1302 1215 l 87 1215 m 1302 260 l 1302 955 l 87 955 l 87 260 l 1302 260 z "},"":{"ha":1389,"x_min":0,"x_max":1389,"o":"m 1389 1389 l 1389 0 l 0 0 l 0 1389 l 1389 1389 m 1302 1302 l 87 1302 l 87 87 l 1302 87 l 1302 1302 z "},"":{"ha":1389,"x_min":0,"x_max":1389,"o":"m 1389 1389 l 1389 0 l 0 0 l 0 1389 l 1389 1389 m 1302 1302 l 87 1302 l 87 87 l 1302 87 l 1302 1302 m 521 286 l 230 577 l 291 638 l 521 409 l 1098 985 l 1159 924 l 521 286 z "},"":{"ha":1389,"x_min":0,"x_max":1389,"o":"m 1389 1389 l 1389 0 l 0 0 l 0 1389 l 1389 1389 z "},"":{"ha":1389,"x_min":0,"x_max":1389,"o":"m 1389 1389 l 1389 0 l 0 0 l 0 1389 l 1389 1389 m 1159 924 l 1098 985 l 521 409 l 291 638 l 230 577 l 521 286 l 1159 924 z "},"":{"ha":1389,"x_min":2,"x_max":1387,"o":"m 174 608 l 608 608 l 608 174 l 521 174 l 521 459 l 63 2 l 2 63 l 459 521 l 174 521 l 174 608 m 930 868 l 1215 868 l 1215 781 l 781 781 l 781 1215 l 868 1215 l 868 930 l 1326 1387 l 1387 1326 l 930 868 z "},"":{"ha":1389,"x_min":87,"x_max":1302,"o":"m 1302 1302 l 1302 868 l 1215 868 l 1215 1154 l 235 174 l 521 174 l 521 87 l 87 87 l 87 521 l 174 521 l 174 235 l 1154 1215 l 868 1215 l 868 1302 l 1302 1302 z "},"":{"ha":1389,"x_min":56,"x_max":1333,"o":"m 1272 686 l 738 1219 l 738 0 l 651 0 l 651 1219 l 117 686 l 56 747 l 694 1385 l 1333 747 l 1272 686 z "},"":{"ha":1389,"x_min":56,"x_max":1333,"o":"m 1333 642 l 694 4 l 56 642 l 117 703 l 651 170 l 651 1389 l 738 1389 l 738 170 l 1272 703 l 1333 642 z "},"":{"ha":1389,"x_min":87,"x_max":1389,"o":"m 1085 694 l 1215 694 l 1215 87 l 87 87 l 87 1215 l 694 1215 l 694 1085 l 998 1389 l 1389 998 l 1085 694 m 715 998 l 998 715 l 1282 998 l 998 1282 l 715 998 m 694 911 l 694 694 l 911 694 l 694 911 m 174 694 l 608 694 l 608 1128 l 174 1128 l 174 694 m 608 608 l 174 608 l 174 174 l 608 174 l 608 608 m 694 608 l 694 174 l 1128 174 l 1128 608 l 694 608 z "},"":{"ha":1389,"x_min":0,"x_max":1202,"o":"m 459 1215 l 521 1215 l 521 174 l 459 174 l 199 434 l 0 434 l 0 955 l 199 955 l 459 1215 m 434 1067 l 235 868 l 87 868 l 87 521 l 235 521 l 434 322 l 434 1067 m 1017 694 l 1202 508 l 1141 447 l 955 633 l 768 447 l 707 508 l 893 694 l 707 881 l 768 942 l 955 756 l 1141 942 l 1202 881 l 1017 694 z "},"":{"ha":1389,"x_min":0,"x_max":1389,"o":"m 1126 781 q 1229 761 1181 781 q 1312 706 1276 741 q 1368 623 1348 671 q 1389 521 1389 576 q 1369 419 1389 467 q 1313 337 1348 372 q 1230 281 1277 301 q 1128 260 1182 260 l 347 260 q 212 288 275 260 q 101 362 149 315 q 27 472 54 409 q 0 608 0 536 q 27 743 0 680 q 101 853 54 806 q 212 928 149 901 q 347 955 275 955 q 410 949 378 955 q 473 1024 437 991 q 551 1081 509 1058 q 640 1116 593 1104 q 738 1128 688 1128 q 880 1102 813 1128 q 998 1029 947 1076 q 1083 919 1050 983 q 1126 781 1117 855 m 1128 347 q 1196 361 1164 347 q 1251 398 1227 374 q 1289 453 1275 422 q 1302 521 1302 485 q 1289 588 1302 557 q 1251 644 1275 620 q 1196 681 1227 667 q 1128 694 1164 694 l 1042 694 l 1042 738 q 1018 856 1042 801 q 953 953 994 911 q 856 1018 911 994 q 738 1042 801 1042 q 646 1027 690 1042 q 565 987 602 1013 q 500 925 528 962 q 454 844 471 889 q 347 868 404 868 q 246 848 293 868 q 163 792 199 827 q 107 709 127 756 q 87 608 87 661 q 107 506 87 553 q 163 424 127 459 q 246 368 199 388 q 347 347 293 347 l 1128 347 z "},"":{"ha":1389,"x_min":0,"x_max":1389,"o":"m 1389 1128 l 1389 347 l 1067 347 l 893 521 l 0 521 l 0 955 l 893 955 l 1067 1128 l 1389 1128 m 87 608 l 868 608 l 868 868 l 87 868 l 87 608 m 1103 434 l 1128 434 l 1128 1042 l 1103 1042 l 955 893 l 955 583 l 1103 434 m 1302 1042 l 1215 1042 l 1215 434 l 1302 434 l 1302 1042 m 738 781 q 768 768 755 781 q 781 738 781 755 q 768 707 781 720 q 738 694 755 694 q 707 707 720 694 q 694 738 694 720 q 707 768 694 755 q 738 781 720 781 z "},"":{"ha":1389,"x_min":0,"x_max":1389,"o":"m 868 695 q 935 681 903 695 q 990 644 967 667 q 1028 589 1014 621 q 1042 522 1042 557 l 1042 435 l 1128 435 l 1128 1 l 608 1 l 608 435 l 694 435 l 694 522 q 708 589 694 557 q 746 644 722 621 q 801 681 769 667 q 868 695 832 695 m 781 435 l 955 435 l 955 522 q 948 555 955 539 q 929 583 941 571 q 902 602 918 595 q 868 608 886 608 q 834 602 850 608 q 807 583 819 595 q 788 555 795 571 q 781 522 781 540 l 781 435 m 1042 348 l 694 348 l 694 87 l 1042 87 l 1042 348 m 338 469 l 399 531 l 530 400 l 469 339 l 338 469 m 842 1389 q 876 1383 860 1389 q 904 1364 892 1377 l 1364 905 q 1382 877 1376 892 q 1389 843 1389 861 q 1382 810 1389 826 q 1364 782 1376 794 l 1126 545 q 1099 640 1121 595 l 1302 844 l 843 1303 l 87 547 l 521 113 l 521 6 q 502 14 511 9 q 485 26 492 19 l 25 486 q 6 514 13 498 q 0 547 0 530 q 6 580 0 564 q 25 608 13 596 l 781 1364 q 809 1383 793 1377 q 842 1389 825 1389 z "},"":{"ha":1389,"x_min":0,"x_max":1389,"o":"m 1389 1215 l 1389 174 l 0 174 l 0 1215 l 1389 1215 m 1302 1128 l 87 1128 l 87 260 l 1302 260 l 1302 1128 m 1128 434 l 260 434 l 260 781 l 1128 781 l 1128 434 m 1042 694 l 347 694 l 347 521 l 1042 521 l 1042 694 z "},"":{"ha":1389,"x_min":0,"x_max":1389,"o":"m 1389 1215 l 1389 174 l 0 174 l 0 1215 l 1389 1215 m 1302 521 l 87 521 l 87 260 l 1302 260 l 1302 521 m 1302 608 l 1302 1128 l 87 1128 l 87 608 l 1302 608 z "},"":{"ha":1389,"x_min":0,"x_max":1385,"o":"m 756 174 l 1042 174 l 1042 87 l 307 87 l 34 361 q 9 399 18 377 q 0 445 0 421 q 9 491 0 469 q 35 530 18 513 l 846 1342 l 1385 803 l 756 174 m 846 1219 l 365 738 l 781 322 l 1262 803 l 846 1219 m 633 174 l 720 260 l 304 677 l 96 469 q 87 445 87 459 q 96 421 87 431 l 343 174 l 633 174 z "},"":{"ha":1389,"x_min":260,"x_max":1128,"o":"m 694 1389 q 863 1355 784 1389 q 1001 1261 942 1320 q 1094 1123 1060 1202 q 1128 955 1128 1044 l 1128 434 q 1094 266 1128 345 q 1001 127 1060 186 q 863 34 942 68 q 694 0 784 0 q 526 34 605 0 q 388 127 447 68 q 295 266 329 186 q 260 434 260 345 l 260 955 q 295 1123 260 1044 q 388 1261 329 1202 q 526 1355 447 1320 q 694 1389 605 1389 m 694 694 q 795 715 748 694 q 878 771 843 736 q 934 854 913 806 q 955 955 955 901 q 934 1056 955 1008 q 878 1139 913 1103 q 795 1195 843 1174 q 694 1215 748 1215 q 593 1195 641 1215 q 511 1139 546 1174 q 455 1056 475 1103 q 434 955 434 1008 q 455 854 434 901 q 511 771 475 806 q 593 715 546 736 q 694 694 641 694 m 694 1136 q 765 1122 732 1136 q 822 1083 798 1107 q 861 1025 847 1058 q 876 955 876 992 q 861 885 876 918 q 822 827 847 852 q 765 788 798 802 q 694 774 732 774 q 624 788 657 774 q 567 827 591 802 q 528 885 542 852 q 513 955 513 918 q 528 1025 513 992 q 567 1083 542 1058 q 624 1122 591 1107 q 694 1136 657 1136 z "},"":{"ha":1389,"x_min":260,"x_max":1128,"o":"m 434 1128 l 260 1128 l 260 1302 l 434 1302 l 434 1128 m 781 1128 l 608 1128 l 608 1302 l 781 1302 l 781 1128 m 1128 1128 l 955 1128 l 955 1302 l 1128 1302 l 1128 1128 m 434 781 l 260 781 l 260 955 l 434 955 l 434 781 m 781 781 l 608 781 l 608 955 l 781 955 l 781 781 m 1128 781 l 955 781 l 955 955 l 1128 955 l 1128 781 m 434 434 l 260 434 l 260 608 l 434 608 l 434 434 m 781 434 l 608 434 l 608 608 l 781 608 l 781 434 m 781 87 l 608 87 l 608 260 l 781 260 l 781 87 m 1128 434 l 955 434 l 955 608 l 1128 608 l 1128 434 z "},"":{"ha":1389,"x_min":0,"x_max":1388,"o":"m 1135 1308 q 1243 1176 1196 1247 q 1322 1026 1290 1105 q 1372 864 1355 948 q 1388 694 1388 781 q 1372 525 1388 608 q 1322 362 1355 441 q 1243 213 1290 284 q 1135 81 1196 142 l 1074 142 q 1171 261 1128 197 q 1242 395 1213 325 q 1287 542 1272 466 q 1302 694 1302 617 q 1287 847 1302 772 q 1242 994 1272 923 q 1171 1128 1213 1064 q 1074 1247 1128 1192 l 1135 1308 m 951 1124 q 1026 1032 994 1082 q 1082 927 1059 982 q 1117 813 1105 872 q 1128 694 1128 754 q 1117 575 1128 634 q 1082 462 1105 517 q 1026 357 1059 407 q 951 264 994 307 l 889 326 q 1002 495 962 399 q 1042 694 1042 591 q 1002 894 1042 798 q 889 1063 962 989 l 951 1124 m 766 940 q 842 827 815 891 q 868 694 868 764 q 842 562 868 625 q 766 449 815 498 l 705 510 q 762 594 742 547 q 781 694 781 642 q 762 794 781 747 q 705 879 742 842 l 766 940 m 459 1215 l 521 1215 l 521 174 l 459 174 l 199 434 l 0 434 l 0 955 l 199 955 l 459 1215 m 434 1067 l 235 868 l 87 868 l 87 521 l 235 521 l 434 322 l 434 1067 z "},"":{"ha":1389,"x_min":347,"x_max":1215,"o":"m 1215 694 l 347 87 l 347 1302 l 1215 694 m 434 254 l 1064 694 l 434 1135 l 434 254 z "},"":{"ha":1389,"x_min":434,"x_max":955,"o":"m 434 1215 l 521 1215 l 521 174 l 434 174 l 434 1215 m 955 1215 l 955 174 l 868 174 l 868 1215 l 955 1215 z "},"":{"ha":1389,"x_min":286,"x_max":1040,"o":"m 979 2 l 286 694 l 979 1387 l 1040 1326 l 409 694 l 1040 63 l 979 2 z "},"":{"ha":1389,"x_min":349,"x_max":1103,"o":"m 349 63 l 980 694 l 349 1326 l 410 1387 l 1103 694 l 410 2 l 349 63 z "},"":{"ha":1389,"x_min":87,"x_max":1302,"o":"m 1302 1042 l 1221 1042 l 916 434 l 867 434 q 865 386 867 415 q 860 323 863 357 q 849 252 856 289 q 834 179 843 215 q 812 111 825 143 q 782 54 799 78 q 743 15 765 29 q 694 0 722 0 q 632 25 659 0 q 587 90 606 50 q 555 179 568 130 q 535 276 543 228 q 525 367 528 325 q 522 434 522 408 l 473 434 l 168 1042 l 87 1042 l 87 1389 l 174 1389 l 174 1128 l 1215 1128 l 1215 1389 l 1302 1389 l 1302 1042 m 694 87 q 722 119 710 95 q 744 176 734 143 q 760 248 753 210 q 771 321 766 286 q 778 387 775 357 q 781 434 780 417 l 608 434 q 611 387 609 417 q 618 321 614 357 q 629 248 623 286 q 645 176 635 210 q 667 119 654 143 q 694 87 679 95 m 1123 1042 l 266 1042 l 526 521 l 863 521 l 1123 1042 z "},"":{"ha":1389,"x_min":0,"x_max":1389,"o":"m 0 868 l 1389 868 l 1389 781 l 0 781 l 0 868 m 0 521 l 0 608 l 1389 608 l 1389 521 l 0 521 z "},"":{"ha":1389,"x_min":0,"x_max":1389,"o":"m 1356 355 q 1371 335 1364 347 q 1381 311 1377 323 q 1387 284 1385 298 q 1389 260 1389 271 q 1382 227 1389 242 q 1363 199 1375 211 q 1336 180 1352 187 q 1302 174 1320 174 l 87 174 q 53 180 68 174 q 25 199 37 187 q 7 227 14 211 q 0 260 0 242 q 2 284 0 271 q 8 311 4 298 q 18 335 12 323 q 33 355 24 347 l 174 496 l 174 1128 l 1215 1128 l 1215 496 l 1356 355 m 260 521 l 1128 521 l 1128 1042 l 260 1042 l 260 521 m 1302 260 q 1299 280 1302 268 q 1291 297 1297 292 l 1154 434 l 235 434 l 98 297 q 90 280 92 292 q 87 260 87 268 l 1302 260 z "},"":{"ha":1389,"x_min":0,"x_max":1302,"o":"m 694 174 l 694 87 l 868 87 l 868 0 l 434 0 l 434 87 l 608 87 l 608 174 l 0 174 l 0 955 l 694 955 l 607 868 l 87 868 l 87 260 l 1215 260 l 1215 781 l 1302 868 l 1302 174 l 694 174 m 347 434 q 381 441 366 434 q 409 459 397 448 q 427 487 420 471 q 434 521 434 503 q 446 584 434 554 q 478 637 458 614 q 527 675 499 660 q 589 694 555 690 l 1071 1176 q 1115 1205 1090 1195 q 1166 1215 1140 1215 q 1219 1205 1194 1215 q 1262 1176 1244 1194 q 1291 1133 1280 1158 q 1301 1080 1301 1108 q 1291 1028 1301 1053 q 1262 984 1281 1003 l 780 502 q 762 441 777 469 q 723 392 747 412 q 670 359 700 371 q 608 347 641 347 l 174 347 l 174 434 l 347 434 m 1166 1128 q 1133 1114 1147 1128 l 831 812 q 899 744 869 783 l 1201 1046 q 1215 1080 1215 1060 q 1201 1114 1215 1100 q 1166 1128 1186 1128 m 707 688 q 775 620 748 661 l 838 682 q 768 751 809 722 l 707 688 m 694 521 q 688 555 694 539 q 669 582 681 570 q 642 601 657 594 q 608 608 626 608 q 574 601 589 608 q 546 582 558 594 q 528 555 534 570 q 521 521 521 539 q 498 434 521 475 l 608 434 q 641 441 625 434 q 669 459 657 448 q 688 487 681 471 q 694 521 694 503 z "},"":{"ha":1389,"x_min":0,"x_max":1389,"o":"m 1128 781 q 1230 761 1182 781 q 1312 705 1277 740 q 1368 622 1348 669 q 1389 521 1389 574 q 1368 420 1389 467 q 1312 337 1348 372 q 1230 281 1277 302 q 1128 260 1182 260 q 1049 273 1088 260 q 978 309 1010 285 q 942 271 967 298 q 883 210 916 244 q 813 139 850 176 q 743 71 776 102 q 686 20 711 40 q 651 0 661 0 q 621 13 633 0 q 608 43 608 26 q 628 78 608 53 q 679 136 648 103 q 746 205 709 168 q 818 275 783 242 q 879 334 852 309 q 916 370 905 359 q 880 441 892 403 q 868 521 868 480 q 889 622 868 574 q 945 705 909 669 q 1027 761 980 740 q 1128 781 1075 781 m 1128 347 q 1196 361 1164 347 q 1251 398 1227 375 q 1288 453 1274 422 q 1302 521 1302 485 q 1288 588 1302 556 q 1251 643 1274 620 q 1196 681 1227 667 q 1128 694 1164 694 q 1061 681 1093 694 q 1006 643 1029 667 q 969 588 983 620 q 955 521 955 556 q 969 453 955 485 q 1006 398 983 422 q 1061 361 1029 375 q 1128 347 1093 347 m 174 434 l 174 608 l 0 608 l 0 1389 l 1042 1389 l 1042 1215 l 1215 1215 l 1215 856 q 1172 865 1194 861 q 1128 868 1150 868 l 1128 1128 l 260 1128 l 260 521 l 781 521 q 785 477 781 499 q 793 434 788 456 l 174 434 m 174 694 l 174 1215 l 955 1215 l 955 1302 l 87 1302 l 87 694 l 174 694 z "},"":{"ha":1389,"x_min":0,"x_max":1389,"o":"m 694 1389 q 879 1364 790 1389 q 1045 1294 968 1339 q 1186 1186 1122 1249 q 1294 1045 1249 1122 q 1364 879 1339 968 q 1389 694 1389 790 q 1364 510 1389 599 q 1294 344 1339 421 q 1186 203 1249 267 q 1045 95 1122 140 q 879 25 968 50 q 694 0 790 0 q 510 25 599 0 q 344 95 421 50 q 203 203 267 140 q 95 344 140 267 q 25 510 50 421 q 0 694 0 598 q 25 879 0 790 q 95 1045 50 968 q 203 1186 140 1122 q 344 1294 267 1249 q 510 1364 421 1339 q 694 1389 598 1389 m 1243 955 q 1181 1058 1217 1010 q 1099 1147 1144 1107 q 1002 1218 1055 1187 q 893 1269 950 1249 q 937 1197 918 1235 q 972 1119 957 1159 q 998 1037 987 1078 q 1017 955 1009 996 l 1243 955 m 1302 694 q 1277 868 1302 785 l 1031 868 q 1039 782 1036 825 q 1042 694 1042 739 q 1039 607 1042 650 q 1031 521 1036 564 l 1277 521 q 1302 694 1302 604 m 694 87 q 756 105 728 87 q 810 153 785 123 q 853 221 834 183 q 888 297 873 258 q 913 372 903 336 q 928 434 923 408 l 460 434 q 476 372 466 408 q 501 297 486 336 q 535 221 516 258 q 579 153 555 183 q 632 105 604 123 q 694 87 661 87 m 943 521 q 952 607 949 564 q 955 694 955 650 q 952 782 955 739 q 943 868 949 825 l 446 868 q 437 782 440 825 q 434 694 434 739 q 437 607 434 650 q 446 521 440 564 l 943 521 m 87 694 q 112 521 87 604 l 358 521 q 350 607 353 564 q 347 694 347 650 q 350 782 347 739 q 358 868 353 825 l 112 868 q 87 694 87 785 m 694 1302 q 632 1284 661 1302 q 579 1236 604 1265 q 535 1168 555 1206 q 501 1092 516 1131 q 476 1017 486 1053 q 460 955 466 981 l 928 955 q 913 1017 923 981 q 888 1092 903 1053 q 853 1168 873 1131 q 810 1236 834 1206 q 756 1284 785 1265 q 694 1302 728 1302 m 496 1269 q 387 1218 439 1249 q 290 1147 334 1187 q 208 1058 245 1107 q 146 955 172 1010 l 372 955 q 391 1037 380 996 q 417 1119 401 1078 q 452 1197 432 1159 q 496 1269 471 1235 m 146 434 q 208 331 172 379 q 290 242 245 282 q 387 171 334 202 q 496 120 439 140 q 452 192 471 154 q 417 270 432 230 q 391 352 401 311 q 372 434 380 393 l 146 434 m 893 120 q 1002 171 950 140 q 1099 242 1055 202 q 1181 331 1144 282 q 1243 434 1217 379 l 1017 434 q 998 352 1009 393 q 972 270 987 311 q 937 192 957 230 q 893 120 918 154 z "},"":{"ha":1389,"x_min":0,"x_max":1378,"o":"m 408 608 l 610 0 l 519 0 l 460 174 l 234 174 l 176 0 l 85 0 l 287 608 l 408 608 m 432 260 l 347 514 l 262 260 l 432 260 m 434 1215 l 434 955 l 608 955 l 608 868 l 347 868 l 347 1215 l 434 1215 m 174 610 q 101 679 134 640 q 46 762 68 718 q 12 855 24 806 q 0 955 0 904 q 16 1070 0 1015 q 59 1174 31 1126 q 127 1262 87 1222 q 215 1330 167 1301 q 319 1373 263 1358 q 434 1389 374 1389 q 549 1373 494 1389 q 653 1330 605 1358 q 741 1262 701 1301 q 809 1174 781 1222 q 852 1070 837 1126 q 868 955 868 1015 q 866 911 868 933 q 859 868 863 890 l 769 868 q 778 911 774 890 q 781 955 781 933 q 754 1090 781 1027 q 679 1200 726 1153 q 569 1275 632 1247 q 434 1302 506 1302 q 299 1275 362 1302 q 189 1200 236 1247 q 114 1090 142 1153 q 87 955 87 1027 q 118 813 87 880 q 203 697 149 747 l 174 610 m 1377 411 q 1378 402 1378 406 l 1378 337 q 1377 329 1378 334 q 1368 328 1371 328 q 1314 329 1341 328 q 1261 330 1288 330 l 1043 330 l 1043 307 q 1044 237 1043 272 q 1046 166 1044 201 l 1046 163 q 1040 131 1046 147 q 1020 105 1034 115 q 993 95 1010 98 q 956 89 976 91 q 918 87 937 87 q 888 87 899 87 q 876 87 884 87 q 863 91 867 87 q 859 102 861 93 q 854 114 856 111 q 843 147 850 132 q 827 178 837 162 q 873 174 850 175 q 920 173 897 173 q 944 178 936 173 q 953 201 953 183 l 953 330 l 736 330 q 682 329 709 330 q 628 328 655 328 q 620 330 623 328 q 618 337 618 334 l 618 402 q 619 407 618 404 q 621 412 619 410 q 628 413 625 413 q 682 412 655 412 q 736 411 709 411 l 953 411 q 951 447 951 429 q 947 482 951 465 q 974 480 961 481 q 1001 477 987 479 q 1003 477 1002 477 q 1006 477 1004 477 q 1051 513 1029 494 q 1095 551 1073 532 l 886 551 q 829 551 857 551 q 772 549 801 550 q 764 551 767 549 q 763 559 763 555 l 763 623 q 764 631 763 626 q 772 633 770 633 q 829 631 801 632 q 886 631 857 631 l 1139 631 q 1159 634 1149 631 q 1176 637 1168 637 q 1192 629 1181 637 q 1212 610 1202 621 q 1230 588 1222 599 q 1238 571 1238 576 q 1233 561 1238 564 q 1223 554 1229 557 q 1205 542 1214 549 q 1188 528 1196 534 q 1117 471 1153 498 q 1043 418 1082 444 l 1043 411 l 1261 411 q 1314 412 1288 411 q 1368 413 1341 412 q 1377 411 1373 413 m 943 786 q 943 827 943 806 q 937 868 942 848 q 1030 864 984 868 q 1039 862 1034 863 q 1043 855 1043 861 q 1041 847 1043 852 q 1038 839 1039 842 q 1035 828 1036 835 q 1034 813 1034 821 q 1034 799 1034 806 q 1034 787 1034 791 l 1034 779 l 1234 779 q 1291 779 1263 779 q 1348 781 1319 780 q 1356 779 1352 781 q 1358 772 1358 775 q 1357 748 1358 760 q 1356 724 1356 735 l 1356 684 q 1357 635 1356 660 q 1358 586 1358 610 q 1358 581 1358 584 q 1356 577 1358 578 q 1348 576 1351 576 q 1331 575 1344 576 q 1303 575 1317 575 q 1280 576 1290 575 q 1268 578 1270 576 q 1266 594 1267 583 q 1266 618 1266 605 q 1267 665 1266 641 q 1267 700 1267 688 l 724 700 q 724 690 724 697 q 724 673 724 683 q 724 652 724 663 q 724 629 724 641 q 724 594 724 610 q 722 576 723 578 q 713 575 716 575 l 644 575 q 635 577 636 575 q 633 586 633 579 q 634 640 634 613 q 634 693 634 666 q 634 732 634 713 q 633 772 634 752 q 635 779 633 775 q 644 781 640 781 q 700 779 672 780 q 757 779 728 779 l 943 779 l 943 786 z "},"":{"ha":1389,"x_min":2,"x_max":1389,"o":"m 2 694 q 44 867 9 784 q 136 1018 78 949 l 197 956 q 123 833 151 901 q 89 694 96 766 l 2 694 m 197 1079 q 349 1172 266 1137 q 521 1213 431 1206 l 521 1126 q 382 1092 449 1119 q 259 1018 315 1065 l 197 1079 m 136 284 q 44 435 78 353 q 2 608 9 518 l 89 608 q 123 469 96 536 q 197 346 151 401 l 136 284 m 521 89 q 349 131 431 96 q 197 223 266 165 l 259 284 q 382 210 315 237 q 521 176 449 183 l 521 89 m 1126 608 q 1085 435 1119 518 q 992 284 1050 353 l 931 346 q 1005 469 978 401 q 1040 608 1032 536 l 1126 608 m 931 223 q 780 131 863 165 q 608 89 697 96 l 608 176 q 747 210 680 183 q 869 284 814 237 l 931 223 m 694 1302 l 694 781 l 825 781 l 651 608 l 477 781 l 608 781 l 608 1302 l 694 1302 m 1215 564 l 1215 694 l 861 694 l 947 781 l 1215 781 l 1215 911 l 1389 738 l 1215 564 z "},"":{"ha":1389,"x_min":0,"x_max":1389,"o":"m 694 1389 q 879 1364 790 1389 q 1045 1294 968 1339 q 1186 1186 1122 1249 q 1294 1045 1249 1122 q 1364 879 1339 968 q 1389 694 1389 790 q 1364 510 1389 599 q 1294 344 1339 421 q 1186 203 1249 267 q 1045 95 1122 140 q 879 25 968 50 q 694 0 790 0 q 470 37 578 0 q 274 142 363 75 q 121 303 186 210 q 26 509 56 397 l 109 532 q 193 352 136 434 q 327 212 250 271 q 498 120 404 153 q 694 87 593 87 q 856 109 778 87 q 1001 170 933 130 q 1124 265 1068 210 q 1219 388 1179 321 q 1280 533 1259 456 q 1302 694 1302 610 q 1280 856 1302 778 q 1219 1001 1259 933 q 1124 1124 1179 1068 q 1001 1219 1068 1179 q 856 1280 933 1259 q 694 1302 778 1302 q 524 1278 607 1302 q 370 1208 441 1253 q 241 1098 298 1162 q 146 955 183 1034 l 347 955 l 347 868 l 0 868 l 0 1215 l 87 1215 l 87 1029 q 197 1179 132 1113 q 341 1292 262 1246 q 510 1364 420 1339 q 694 1389 600 1389 z "},"":{"ha":1389,"x_min":0,"x_max":1302,"o":"m 651 1215 q 744 1211 693 1215 q 848 1195 794 1206 q 956 1168 901 1185 q 1061 1128 1010 1152 q 1155 1076 1112 1105 q 1232 1008 1199 1046 q 1283 925 1265 970 q 1302 825 1302 879 l 1302 738 q 1292 687 1302 711 q 1264 646 1282 663 q 1223 618 1246 628 q 1172 608 1199 608 l 998 608 q 937 619 960 608 q 899 648 913 630 q 880 690 886 667 q 872 738 874 713 q 868 786 869 762 q 864 827 867 809 q 851 857 860 846 q 825 868 842 868 l 477 868 q 451 857 460 868 q 438 827 442 846 q 434 786 435 809 q 430 738 433 762 q 422 690 428 713 q 403 648 416 667 q 366 619 389 630 q 304 608 342 608 l 130 608 q 79 618 103 608 q 38 646 56 628 q 10 687 20 663 q 0 738 0 711 l 0 825 q 19 925 0 879 q 70 1008 37 970 q 147 1076 103 1046 q 241 1128 191 1105 q 346 1168 292 1152 q 454 1195 401 1185 q 558 1211 508 1206 q 651 1215 609 1215 m 1215 825 q 1185 926 1215 882 q 1107 1004 1156 970 q 998 1062 1059 1038 q 874 1100 937 1085 q 752 1122 811 1115 q 651 1128 694 1128 q 550 1122 608 1128 q 428 1100 491 1115 q 304 1062 366 1085 q 195 1004 243 1038 q 117 926 146 970 q 87 825 87 882 l 87 738 q 100 707 87 720 q 130 694 113 694 l 304 694 q 327 701 318 694 q 341 718 336 707 q 348 742 346 729 q 349 770 349 755 q 348 800 349 785 q 347 825 347 814 q 357 876 347 852 q 385 917 368 899 q 427 945 403 935 q 477 955 450 955 l 825 955 q 876 945 852 955 q 917 917 899 935 q 945 876 935 899 q 955 825 955 852 q 954 800 955 814 q 953 770 953 785 q 955 742 953 755 q 961 718 956 729 q 975 701 966 707 q 998 694 984 694 l 1172 694 q 1202 707 1190 694 q 1215 738 1215 720 l 1215 825 m 838 378 l 899 317 l 651 69 l 404 317 l 465 378 l 608 235 l 608 694 l 694 694 l 694 235 l 838 378 z "},"":{"ha":1389,"x_min":0,"x_max":1389,"o":"m 502 659 q 582 603 546 636 q 642 530 617 570 q 681 443 667 490 q 694 347 694 397 l 608 347 q 587 448 608 401 q 531 531 566 496 q 448 587 496 566 q 347 608 401 608 q 246 587 294 608 q 163 531 199 566 q 107 448 128 496 q 87 347 87 401 l 0 347 q 14 443 0 397 q 52 530 27 490 q 113 603 77 570 q 193 659 149 636 q 115 751 143 695 q 87 868 87 806 q 107 969 87 922 q 163 1052 128 1017 q 246 1108 199 1087 q 347 1128 294 1128 q 448 1108 401 1128 q 531 1052 496 1087 q 587 969 566 1017 q 608 868 608 922 q 579 751 608 806 q 502 659 551 695 m 174 868 q 188 801 174 832 q 225 746 201 769 q 280 708 248 722 q 347 694 311 694 q 414 708 382 694 q 470 746 446 722 q 507 801 493 769 q 521 868 521 832 q 507 935 521 903 q 470 990 493 967 q 414 1028 446 1014 q 347 1042 382 1042 q 280 1028 311 1042 q 225 990 248 1014 q 188 935 201 967 q 174 868 174 903 m 1389 1128 l 1389 1042 l 781 1042 l 781 1128 l 1389 1128 m 781 781 l 1389 781 l 1389 694 l 781 694 l 781 781 m 781 434 l 1389 434 l 1389 347 l 781 347 l 781 434 z "},"":{"ha":1389,"x_min":0,"x_max":1350,"o":"m 998 608 q 1117 584 1061 608 q 1213 519 1172 560 q 1278 422 1255 477 q 1302 304 1302 367 q 1278 185 1302 241 q 1213 89 1255 130 q 1117 24 1172 47 q 998 0 1061 0 q 880 24 935 0 q 783 89 825 47 q 718 185 742 130 q 694 304 694 241 q 718 422 694 367 q 783 519 742 477 q 880 584 825 560 q 998 608 935 608 m 781 304 q 798 219 781 259 q 845 150 815 180 q 914 104 874 121 q 998 87 954 87 q 1061 96 1030 87 q 1118 123 1091 105 l 817 423 q 790 366 800 397 q 781 304 781 336 m 1179 184 q 1206 241 1197 211 q 1215 304 1215 272 q 1198 388 1215 349 q 1151 457 1181 427 q 1082 504 1122 486 q 998 521 1043 521 q 936 512 966 521 q 879 485 905 503 l 1179 184 m 1350 882 q 1306 841 1327 859 q 1262 809 1284 822 q 1212 789 1239 796 q 1152 782 1185 782 q 1107 786 1128 782 l 1017 694 l 893 694 l 1082 883 l 1088 881 q 1120 872 1104 876 q 1152 869 1135 869 q 1222 886 1189 869 l 886 1222 q 869 1152 869 1189 q 872 1120 869 1135 q 881 1088 876 1104 l 883 1082 l 549 749 q 518 762 533 755 q 488 772 503 768 q 457 778 473 776 q 423 781 441 781 q 348 769 385 781 q 280 736 311 758 l 608 409 l 608 286 l 477 416 l 92 31 l 0 0 l 31 92 l 416 477 l 155 739 l 185 770 q 295 842 233 817 q 425 867 357 867 q 477 863 451 867 q 529 850 503 859 l 786 1107 q 782 1152 782 1128 q 789 1212 782 1185 q 809 1261 796 1238 q 841 1306 822 1284 q 882 1350 859 1327 l 1350 882 z "},"":{"ha":1389,"x_min":87,"x_max":1302,"o":"m 902 573 q 1068 484 994 541 q 1195 351 1143 427 q 1274 186 1246 276 q 1302 0 1302 97 l 1215 0 q 1176 207 1215 111 q 1066 372 1136 302 q 901 481 996 441 q 694 521 806 521 q 555 503 622 521 q 430 451 488 484 q 325 370 372 417 q 244 265 277 323 q 192 140 210 207 q 174 0 174 73 l 87 0 q 115 187 87 98 q 196 351 144 276 q 322 482 248 425 q 488 572 397 539 q 393 642 435 601 q 322 732 351 682 q 276 839 292 782 q 260 955 260 895 q 294 1124 260 1045 q 387 1262 328 1203 q 525 1355 446 1321 q 694 1389 604 1389 q 864 1355 785 1389 q 1002 1262 943 1321 q 1095 1124 1061 1203 q 1128 955 1128 1045 q 1113 839 1128 895 q 1067 733 1097 783 q 996 643 1038 684 q 902 573 954 602 m 347 955 q 375 820 347 883 q 449 710 402 757 q 559 635 496 663 q 694 608 623 608 q 829 635 766 608 q 940 710 892 663 q 1014 820 987 757 q 1042 955 1042 883 q 1014 1090 1042 1027 q 940 1200 987 1153 q 829 1275 892 1247 q 694 1302 766 1302 q 559 1275 623 1302 q 449 1200 496 1247 q 375 1090 402 1153 q 347 955 347 1027 z "},"":{"ha":1389,"x_min":0,"x_max":1389,"o":"m 1085 1042 q 1203 1018 1148 1042 q 1300 952 1259 994 q 1365 856 1341 911 q 1389 738 1389 801 q 1365 620 1389 675 q 1300 523 1341 564 q 1203 458 1259 482 q 1085 434 1148 434 l 304 434 q 185 458 241 434 q 89 523 130 482 q 24 620 48 564 q 0 738 0 675 q 24 856 0 801 q 89 952 48 911 q 185 1018 130 994 q 304 1042 241 1042 q 422 1018 367 1042 q 518 952 477 994 q 584 856 559 911 q 608 738 608 801 q 605 704 608 724 q 596 662 602 684 q 583 619 591 641 q 564 577 574 597 q 542 543 554 558 q 516 521 530 528 l 873 521 q 847 543 859 528 q 825 577 835 558 q 806 619 814 597 q 793 662 798 641 q 784 703 787 684 q 781 738 781 723 q 805 856 781 801 q 870 952 829 911 q 967 1018 911 994 q 1085 1042 1022 1042 m 87 738 q 104 654 87 693 q 151 585 121 614 q 220 538 180 555 q 304 521 259 521 q 388 538 349 521 q 457 585 427 555 q 504 654 486 614 q 521 738 521 693 q 504 822 521 783 q 457 891 486 861 q 388 938 427 920 q 304 955 349 955 q 220 938 259 955 q 151 891 180 920 q 104 822 121 861 q 87 738 87 783 m 1085 521 q 1169 538 1130 521 q 1238 585 1208 555 q 1285 654 1267 614 q 1302 738 1302 693 q 1285 822 1302 783 q 1238 891 1267 861 q 1169 938 1208 920 q 1085 955 1130 955 q 1001 938 1040 955 q 932 891 962 920 q 885 822 903 861 q 868 738 868 783 q 885 654 868 693 q 932 585 903 614 q 1001 538 962 555 q 1085 521 1040 521 z "},"":{"ha":1389,"x_min":87,"x_max":1333,"o":"m 1038 503 q 1089 492 1064 503 q 1133 463 1114 482 q 1165 433 1147 449 q 1202 400 1183 417 q 1239 363 1221 382 q 1271 325 1257 345 q 1294 283 1285 304 q 1302 238 1302 261 q 1292 186 1302 212 q 1263 142 1282 161 q 1200 81 1228 108 q 1142 37 1173 55 q 1076 9 1112 18 q 988 0 1039 0 q 836 23 914 0 q 681 87 758 46 q 530 184 604 127 q 390 307 456 240 q 268 447 323 373 q 172 598 212 521 q 110 752 132 675 q 87 901 87 829 q 96 989 87 952 q 123 1055 105 1025 q 168 1113 141 1085 q 229 1176 194 1141 q 273 1205 248 1195 q 325 1215 298 1215 q 390 1197 359 1215 q 450 1152 422 1179 q 504 1097 479 1126 q 550 1046 529 1067 q 579 1002 569 1027 q 589 951 589 977 q 581 903 589 924 q 558 866 572 882 q 530 835 545 849 q 502 808 515 821 q 479 783 488 795 q 471 756 471 770 q 483 730 471 748 q 517 688 496 712 q 565 636 538 665 q 622 578 593 608 q 681 521 652 549 q 736 468 711 492 q 781 425 762 444 q 809 398 800 407 q 843 384 823 384 q 870 393 857 384 q 895 415 882 401 q 921 443 907 428 q 952 472 935 458 q 990 494 969 485 q 1038 503 1010 503 m 988 87 q 1058 95 1029 87 q 1108 117 1086 102 q 1152 154 1131 132 q 1201 203 1173 176 q 1215 237 1215 218 q 1204 263 1215 246 q 1177 299 1194 279 q 1140 340 1160 319 q 1099 377 1119 360 q 1063 405 1080 394 q 1038 416 1046 416 q 1010 407 1023 416 q 985 385 998 398 q 959 356 972 372 q 928 328 945 341 q 890 306 911 315 q 843 297 869 297 q 791 308 816 297 q 747 337 766 318 l 424 661 q 394 704 405 680 q 384 756 384 729 q 393 803 384 783 q 415 841 401 824 q 443 872 428 858 q 472 899 458 886 q 494 924 485 911 q 503 951 503 937 q 492 976 503 960 q 464 1012 481 992 q 427 1053 448 1032 q 386 1090 406 1074 q 350 1118 366 1107 q 325 1128 334 1128 q 290 1114 304 1128 q 241 1065 262 1086 q 204 1022 219 1044 q 181 971 189 999 q 174 903 174 943 q 195 768 174 838 q 253 629 216 699 q 342 492 291 559 q 454 365 394 425 q 582 254 515 304 q 719 165 650 203 q 857 107 788 128 q 988 87 925 87 m 1215 694 l 781 694 l 781 1128 l 868 1128 l 868 843 l 1272 1246 l 1333 1185 l 930 781 l 1215 781 l 1215 694 z "},"":{"ha":1389,"x_min":87,"x_max":1302,"o":"m 1302 868 l 1302 0 l 608 0 l 608 87 l 87 87 l 87 1215 l 434 1215 q 448 1282 434 1251 q 485 1338 462 1314 q 540 1375 509 1361 q 608 1389 572 1389 q 675 1375 643 1389 q 730 1338 707 1361 q 767 1282 753 1314 q 781 1215 781 1251 l 1128 1215 l 1128 868 l 1302 868 m 347 1128 l 347 1042 l 868 1042 l 868 1128 l 694 1128 q 695 1151 694 1139 q 695 1175 695 1163 q 693 1221 695 1198 q 681 1262 690 1244 q 655 1291 672 1280 q 608 1302 637 1302 q 561 1291 578 1302 q 534 1262 543 1280 q 523 1221 525 1244 q 520 1175 520 1198 q 520 1151 520 1163 q 521 1128 521 1139 l 347 1128 m 608 174 l 608 868 l 1042 868 l 1042 1128 l 955 1128 l 955 955 l 260 955 l 260 1128 l 174 1128 l 174 174 l 608 174 m 1215 781 l 694 781 l 694 87 l 1215 87 l 1215 781 z "},"":{"ha":1389,"x_min":87,"x_max":1302,"o":"m 1302 1389 l 1302 0 l 217 0 q 166 10 190 0 q 125 38 142 20 q 97 79 107 56 q 87 130 87 103 l 87 1215 q 101 1280 87 1249 q 140 1336 116 1312 q 195 1374 164 1360 q 260 1389 227 1389 l 1302 1389 m 1215 174 l 217 174 q 186 161 199 174 q 174 130 174 148 q 186 100 174 113 q 217 87 199 87 l 1215 87 l 1215 174 m 1215 1302 l 260 1302 q 229 1294 245 1302 q 201 1274 214 1286 q 181 1246 189 1262 q 174 1215 174 1231 l 174 253 q 217 260 196 260 l 1215 260 l 1215 1302 m 898 347 q 753 375 828 347 q 608 451 679 404 q 474 563 537 499 q 363 697 411 626 q 288 841 316 768 q 260 983 260 915 q 267 1047 260 1021 q 286 1096 273 1074 q 318 1139 299 1118 q 363 1184 338 1159 q 398 1207 378 1199 q 439 1215 417 1215 q 480 1207 460 1215 q 514 1184 499 1199 q 551 1150 530 1168 q 591 1112 572 1132 q 622 1068 610 1091 q 635 1019 635 1045 q 628 981 635 998 q 610 951 621 965 q 586 925 600 937 q 559 899 572 912 l 553 884 q 569 862 553 880 q 607 820 584 844 q 659 768 631 796 q 712 715 686 740 q 757 671 737 690 q 783 646 777 652 q 798 640 789 640 q 812 646 805 640 q 828 661 820 652 q 846 681 836 670 q 868 701 856 692 q 897 715 881 709 q 932 722 912 722 q 981 709 958 722 q 1025 678 1004 696 q 1063 638 1045 659 q 1097 601 1081 617 q 1120 566 1112 586 q 1128 526 1128 547 q 1120 485 1128 504 q 1097 450 1112 465 q 1052 406 1073 425 q 1010 374 1031 387 q 961 354 988 361 q 898 347 935 347 m 439 1128 q 425 1122 431 1128 q 392 1090 406 1104 q 367 1062 377 1076 q 352 1029 357 1047 q 347 984 347 1011 q 372 863 347 926 q 440 739 397 800 q 539 622 483 677 q 656 525 595 567 q 779 459 717 484 q 898 434 842 434 q 943 439 925 434 q 976 454 961 444 q 1004 479 990 465 q 1036 511 1017 493 l 1042 525 q 1035 538 1042 528 q 1016 560 1027 548 q 992 586 1005 572 q 966 610 979 599 q 945 628 954 621 q 932 635 935 635 q 909 622 921 635 q 883 594 898 609 q 847 566 868 578 q 798 553 827 553 q 756 561 776 553 q 722 585 737 569 l 498 808 q 466 884 466 840 q 479 934 466 913 q 507 969 492 954 q 535 996 522 985 q 548 1019 548 1008 q 541 1032 548 1022 q 523 1054 534 1042 q 498 1079 511 1066 q 473 1103 486 1093 q 452 1121 461 1114 q 439 1128 442 1128 z "},"":{"ha":1389,"x_min":0,"x_max":1302,"o":"m 694 1215 l 608 1215 l 608 1389 l 694 1389 l 694 1215 m 283 1045 l 160 1168 l 221 1229 l 344 1106 l 283 1045 m 0 781 l 174 781 l 174 694 l 0 694 l 0 781 m 1302 781 l 1302 694 l 1128 694 l 1128 781 l 1302 781 m 1019 1045 l 958 1106 l 1081 1229 l 1142 1168 l 1019 1045 m 651 1042 q 769 1018 714 1042 q 866 952 825 994 q 931 856 907 911 q 955 738 955 801 l 955 260 l 1042 260 l 1042 174 l 868 174 l 868 0 l 781 0 l 781 174 l 521 174 l 521 0 l 434 0 l 434 174 l 260 174 l 260 260 l 347 260 l 347 738 q 371 856 347 801 q 436 952 395 911 q 533 1018 477 994 q 651 1042 588 1042 m 868 260 l 868 738 q 851 822 868 783 q 804 891 833 861 q 735 938 774 920 q 651 955 696 955 q 567 938 606 955 q 498 891 528 920 q 451 822 469 861 q 434 738 434 783 l 434 260 l 868 260 z "},"":{"ha":1389,"x_min":260,"x_max":1259,"o":"m 1128 955 q 1179 945 1156 955 q 1221 917 1203 935 q 1249 876 1238 899 q 1259 825 1259 852 q 1249 774 1259 798 q 1221 732 1238 750 q 1179 705 1203 715 q 1128 694 1156 694 l 911 694 q 893 699 902 694 q 877 711 884 704 q 862 726 869 718 q 848 740 854 734 l 821 629 l 1029 421 q 1042 391 1042 408 l 1042 130 q 1031 79 1042 103 q 1004 38 1021 56 q 962 10 986 20 q 911 0 939 0 q 861 10 884 0 q 819 38 837 20 q 791 79 802 56 q 781 130 781 103 l 781 286 l 633 433 l 585 211 q 574 157 579 184 q 562 102 568 130 q 544 61 556 80 q 516 28 532 42 q 478 7 499 15 q 434 0 458 0 q 383 10 407 0 q 342 38 359 20 q 314 80 324 56 q 304 131 304 104 q 304 144 304 138 q 307 158 305 151 l 387 521 q 337 532 360 522 q 297 561 315 543 q 270 602 280 578 q 260 651 260 625 l 260 977 q 267 999 260 988 q 284 1015 273 1010 l 465 1105 q 525 1125 496 1121 q 587 1128 553 1128 q 564 1215 564 1169 q 578 1283 564 1251 q 615 1338 591 1314 q 670 1375 639 1362 q 738 1389 702 1389 q 805 1375 774 1389 q 861 1338 837 1362 q 898 1283 884 1314 q 911 1215 911 1251 q 900 1155 911 1184 q 869 1101 889 1125 q 875 1096 872 1099 q 881 1090 878 1094 l 1017 955 l 1128 955 m 651 1215 q 658 1181 651 1197 q 676 1154 665 1166 q 704 1135 688 1142 q 738 1128 720 1128 q 772 1135 756 1128 q 799 1154 787 1142 q 818 1181 811 1166 q 825 1215 825 1197 q 818 1249 825 1234 q 799 1277 811 1265 q 772 1295 787 1289 q 738 1302 756 1302 q 704 1295 720 1302 q 676 1277 688 1289 q 658 1249 665 1265 q 651 1215 651 1234 m 1128 781 q 1159 794 1146 781 q 1172 825 1172 807 q 1160 856 1172 846 q 1128 868 1147 865 q 1086 869 1109 871 q 1040 866 1062 867 q 998 868 1017 865 q 968 881 979 870 l 819 1029 q 789 1042 806 1042 l 562 1042 q 504 1028 531 1042 l 347 949 l 347 651 q 360 621 347 633 q 391 608 373 608 q 421 621 408 608 q 434 651 434 633 l 434 846 q 440 869 434 858 q 458 885 447 880 q 480 897 466 889 q 511 913 495 905 q 542 927 527 921 q 564 933 556 933 q 595 920 582 933 q 608 890 608 907 q 601 867 608 878 q 584 851 595 857 l 521 820 l 521 651 q 511 602 521 625 q 484 560 501 578 l 392 140 q 391 130 391 133 q 403 100 391 113 q 433 87 416 87 q 461 96 450 87 q 476 121 473 105 q 521 325 500 223 q 566 530 543 427 q 581 554 569 545 q 608 564 592 564 q 639 551 626 564 l 855 334 q 868 304 868 321 l 868 130 q 881 100 868 113 q 911 87 894 87 q 942 100 929 87 q 955 130 955 113 l 955 372 l 742 586 q 729 616 729 599 q 732 637 729 621 q 741 675 736 654 q 753 722 747 697 q 765 769 759 746 q 776 809 771 791 q 783 835 781 827 q 798 859 786 850 q 825 868 809 868 q 855 855 842 868 l 930 781 l 1128 781 z "},"":{"ha":1389,"x_min":0,"x_max":1302,"o":"m 1302 955 l 1302 781 l 1215 781 l 1215 130 q 1213 84 1215 107 q 1202 42 1211 60 q 1176 12 1194 23 q 1128 0 1159 0 q 1092 -1 1112 0 q 1054 0 1073 -1 q 1016 6 1034 1 q 985 20 998 10 q 963 45 971 29 q 955 87 955 62 l 347 87 q 340 53 347 68 q 322 25 334 37 q 294 7 310 14 q 260 0 279 0 q 180 1 214 0 q 126 13 147 1 q 96 51 106 24 q 87 130 87 77 l 87 781 l 0 781 l 0 955 l 87 955 l 87 1172 q 97 1223 87 1199 q 125 1264 107 1246 q 166 1292 142 1282 q 217 1302 190 1302 l 1085 1302 q 1136 1292 1112 1302 q 1177 1264 1160 1282 q 1205 1223 1195 1246 q 1215 1172 1215 1199 l 1215 955 l 1302 955 m 1128 521 l 174 521 l 174 347 l 260 347 q 260 375 260 359 q 263 403 260 390 q 276 425 267 416 q 304 434 285 434 q 332 425 323 434 q 345 403 341 416 q 348 375 348 390 q 347 347 347 359 l 955 347 q 955 375 955 359 q 958 403 954 390 q 970 425 961 416 q 998 434 979 434 q 1026 425 1017 434 q 1039 403 1036 416 q 1042 375 1042 390 q 1042 347 1042 359 l 1128 347 l 1128 521 m 608 608 l 608 955 l 174 955 l 174 608 l 608 608 m 1128 955 l 694 955 l 694 608 l 1128 608 l 1128 955 m 217 1215 q 186 1202 199 1215 q 174 1172 174 1190 l 174 1042 l 1128 1042 l 1128 1172 q 1116 1202 1128 1190 q 1085 1215 1103 1215 l 217 1215 m 1128 174 l 1128 260 l 174 260 l 174 174 l 1128 174 z "},"":{"ha":1389,"x_min":87,"x_max":1302,"o":"m 1038 503 q 1089 492 1064 503 q 1133 463 1114 482 q 1165 433 1147 449 q 1202 400 1183 417 q 1239 363 1221 382 q 1271 325 1257 345 q 1294 283 1285 304 q 1302 238 1302 261 q 1292 186 1302 212 q 1263 142 1282 161 q 1200 81 1228 108 q 1142 37 1173 55 q 1076 9 1112 18 q 988 0 1039 0 q 836 23 914 0 q 681 87 758 46 q 530 184 604 127 q 390 307 456 240 q 268 447 323 373 q 172 598 212 521 q 110 752 132 675 q 87 901 87 829 q 96 989 87 952 q 123 1055 105 1025 q 168 1113 141 1085 q 229 1176 194 1141 q 273 1205 248 1195 q 325 1215 298 1215 q 390 1197 359 1215 q 450 1152 422 1179 q 504 1097 479 1126 q 550 1046 529 1067 q 579 1002 569 1027 q 589 951 589 977 q 581 904 589 924 q 558 866 572 883 q 530 834 545 848 q 502 808 515 821 q 479 782 488 795 q 471 756 471 770 q 483 730 471 748 q 517 688 496 712 q 565 636 538 664 q 622 578 593 608 q 681 520 652 549 q 736 468 711 492 q 781 425 762 444 q 809 398 800 407 q 843 384 823 384 q 870 393 857 384 q 895 415 882 401 q 921 443 907 428 q 952 472 935 458 q 990 494 969 485 q 1038 503 1010 503 m 988 87 q 1058 95 1029 87 q 1108 117 1086 102 q 1152 154 1131 132 q 1201 203 1173 176 q 1215 237 1215 218 q 1204 263 1215 246 q 1177 299 1194 279 q 1140 340 1160 319 q 1099 377 1119 360 q 1063 405 1080 394 q 1038 416 1046 416 q 1010 407 1023 416 q 985 385 998 398 q 959 356 972 372 q 928 328 945 341 q 890 306 911 315 q 843 297 869 297 q 791 308 816 297 q 747 337 766 318 l 424 661 q 394 704 405 680 q 384 756 384 729 q 393 803 384 783 q 415 841 401 824 q 443 872 428 858 q 472 899 458 886 q 494 924 485 911 q 503 951 503 937 q 492 976 503 960 q 464 1012 481 992 q 427 1053 448 1032 q 386 1090 406 1074 q 350 1118 366 1107 q 325 1128 334 1128 q 290 1114 304 1128 q 241 1065 262 1086 q 204 1022 219 1044 q 181 971 189 999 q 174 903 174 943 q 195 768 174 838 q 253 628 216 698 q 342 492 291 559 q 454 364 394 425 q 582 253 515 304 q 719 165 650 202 q 857 107 788 128 q 988 87 925 87 m 1215 694 l 781 694 l 781 781 l 1215 781 l 1215 694 m 868 1042 l 781 1042 l 781 1128 l 868 1128 l 868 1042 m 1042 1042 l 955 1042 l 955 1128 l 1042 1128 l 1042 1042 m 1215 1042 l 1128 1042 l 1128 1128 l 1215 1128 l 1215 1042 m 868 868 l 781 868 l 781 955 l 868 955 l 868 868 m 1042 868 l 955 868 l 955 955 l 1042 955 l 1042 868 m 1215 868 l 1128 868 l 1128 955 l 1215 955 l 1215 868 z "},"":{"ha":1389,"x_min":418,"x_max":952,"o":"m 952 679 l 806 292 l 418 437 l 450 518 l 676 433 q 613 603 635 515 q 591 783 591 691 q 618 977 591 882 q 702 1153 646 1072 l 774 1104 q 701 951 725 1034 q 677 784 677 869 q 701 607 677 694 q 770 441 725 519 l 871 710 l 952 679 z "},"":{"ha":1389,"x_min":437,"x_max":970,"o":"m 970 437 l 583 292 l 437 679 l 518 710 l 618 441 q 688 607 664 519 q 711 784 711 694 q 688 951 711 869 q 615 1104 664 1034 l 687 1153 q 770 977 743 1072 q 798 783 798 882 q 776 603 798 691 q 713 433 754 515 l 939 518 l 970 437 z "},"":{"ha":1389,"x_min":56,"x_max":1333,"o":"m 694 1277 l 1333 638 l 1272 577 l 1215 633 l 1215 87 l 781 87 l 781 521 l 608 521 l 608 87 l 174 87 l 174 633 l 117 577 l 56 638 l 694 1277 m 1128 174 l 1128 720 l 694 1154 l 260 720 l 260 174 l 521 174 l 521 608 l 868 608 l 868 174 l 1128 174 z "},"":{"ha":1389,"x_min":0,"x_max":1389,"o":"m 1369 399 q 1389 309 1389 356 l 1389 260 q 1361 166 1389 209 q 1286 102 1333 123 q 1223 28 1265 56 q 1128 0 1180 0 q 1042 23 1082 0 q 978 87 1002 46 l 498 87 q 434 23 474 46 q 347 0 394 0 q 260 23 300 0 q 197 87 220 46 l 87 87 q 53 94 68 87 q 25 112 37 100 q 7 140 14 124 q 0 174 0 155 l 0 347 q 20 449 0 401 q 76 532 41 496 q 159 587 111 567 q 260 608 206 608 l 286 608 l 508 830 q 550 858 526 848 q 600 868 574 868 l 1215 868 l 1215 781 l 1196 781 l 1369 399 m 868 781 l 868 608 l 1179 608 l 1112 756 q 1096 774 1107 768 q 1072 781 1084 781 l 868 781 m 600 781 q 570 768 583 781 l 409 608 l 781 608 l 781 781 l 600 781 m 347 87 q 381 94 366 87 q 409 112 397 100 q 427 140 420 124 q 434 174 434 155 q 427 208 434 192 q 409 235 420 223 q 381 254 397 247 q 347 260 366 260 q 313 254 329 260 q 286 235 298 247 q 267 208 274 223 q 260 174 260 192 q 267 140 260 155 q 286 112 274 124 q 313 94 298 100 q 347 87 329 87 m 347 347 q 415 334 383 347 q 470 296 446 320 q 507 241 494 273 q 521 174 521 210 l 781 174 l 781 521 l 260 521 q 193 507 224 521 q 138 470 161 494 q 100 415 114 446 q 87 347 87 383 l 87 174 l 174 174 q 187 241 174 210 q 224 296 201 273 q 280 334 248 320 q 347 347 311 347 m 1128 87 q 1162 94 1147 87 q 1190 112 1178 100 q 1208 140 1202 124 q 1215 174 1215 155 q 1208 208 1215 192 q 1190 235 1202 223 q 1162 254 1178 247 q 1128 260 1147 260 q 1095 254 1110 260 q 1067 235 1079 247 q 1048 208 1055 223 q 1042 174 1042 192 q 1048 140 1042 155 q 1067 112 1055 124 q 1095 94 1079 100 q 1128 87 1110 87 m 1302 309 q 1291 363 1302 337 l 1219 521 l 868 521 l 868 174 l 955 174 q 968 241 955 210 q 1006 296 982 273 q 1061 334 1029 320 q 1128 347 1093 347 q 1183 338 1157 347 q 1232 313 1210 330 q 1270 274 1253 297 q 1295 224 1286 252 q 1302 260 1302 243 l 1302 309 z "},"":{"ha":1389,"x_min":521,"x_max":868,"o":"m 694 1172 l 868 694 l 521 694 l 694 1172 l 694 1172 z "},"":{"ha":1389,"x_min":521,"x_max":868,"o":"m 868 694 l 694 217 l 521 694 l 868 694 l 868 694 z "},"":{"ha":1389,"x_min":0,"x_max":1389,"o":"m 694 1389 l 1389 694 l 694 0 l 0 694 l 694 1389 m 521 296 l 694 123 l 1266 694 l 694 1266 l 123 694 l 434 383 l 434 781 l 806 781 l 664 924 l 725 985 l 972 738 l 725 490 l 664 551 l 806 694 l 521 694 l 521 296 z "},"":{"ha":1389,"x_min":260,"x_max":1128,"o":"m 608 1096 l 890 955 l 608 814 l 608 1096 m 694 1389 q 810 1373 754 1389 q 913 1330 865 1358 q 1001 1262 962 1301 q 1069 1174 1041 1222 q 1113 1070 1097 1126 q 1128 955 1128 1015 q 1117 866 1128 908 q 1085 781 1106 823 l 694 0 l 304 781 q 272 866 283 823 q 260 955 260 908 q 276 1070 260 1015 q 320 1174 292 1126 q 388 1262 348 1222 q 475 1330 427 1301 q 579 1373 524 1358 q 694 1389 635 1389 m 1017 815 q 1018 816 1017 816 q 1018 817 1018 816 q 1044 884 1035 848 q 1053 955 1053 919 q 1024 1094 1053 1029 q 947 1208 996 1159 q 833 1285 899 1257 q 694 1313 768 1313 q 555 1285 621 1313 q 441 1208 490 1257 q 365 1094 393 1159 q 336 955 336 1029 q 345 884 336 919 q 371 817 354 848 q 371 816 371 816 q 372 815 372 816 l 694 170 l 1017 815 z "},"":{"ha":1389,"x_min":260,"x_max":1128,"o":"m 694 1389 q 810 1373 754 1389 q 913 1330 865 1358 q 1001 1262 962 1301 q 1069 1174 1041 1222 q 1113 1070 1097 1126 q 1128 955 1128 1015 q 1117 866 1128 908 q 1085 781 1106 823 l 694 0 l 304 781 q 272 866 283 823 q 260 955 260 908 q 276 1070 260 1015 q 320 1174 292 1126 q 388 1262 348 1222 q 475 1330 427 1301 q 579 1373 524 1358 q 694 1389 635 1389 m 1017 815 q 1018 816 1017 816 q 1018 817 1018 816 q 1044 884 1035 848 q 1053 955 1053 919 q 1024 1094 1053 1029 q 947 1208 996 1159 q 833 1285 899 1257 q 694 1313 768 1313 q 555 1285 621 1313 q 441 1208 490 1257 q 365 1094 393 1159 q 336 955 336 1029 q 345 884 336 919 q 371 817 354 848 q 371 816 371 816 q 372 815 372 816 l 694 170 l 1017 815 m 521 1128 l 608 1128 l 608 781 l 521 781 l 521 1128 m 781 1128 l 868 1128 l 868 781 l 781 781 l 781 1128 z "},"":{"ha":1389,"x_min":174,"x_max":1302,"o":"m 781 1215 l 1302 1215 l 1302 521 l 694 521 l 694 694 l 260 694 l 260 0 l 174 0 l 174 1389 l 781 1389 l 781 1215 m 260 781 l 694 781 l 694 1302 l 260 1302 l 260 781 m 1215 608 l 1215 1128 l 781 1128 l 781 608 l 1215 608 z "},"":{"ha":1389,"x_min":0,"x_max":1389,"o":"m 694 1042 l 694 669 l 942 421 l 881 360 l 608 633 l 608 1042 l 694 1042 m 1335 965 q 1389 694 1389 835 q 1335 424 1389 554 q 1185 203 1282 300 q 965 54 1089 107 q 694 0 835 0 q 467 39 576 0 q 271 144 359 76 q 119 306 182 213 q 64 404 87 353 q 26 509 41 454 l 109 532 q 193 352 136 434 q 327 211 250 270 q 498 119 404 152 q 694 87 593 87 q 856 109 778 87 q 1001 170 933 130 q 1124 265 1068 210 q 1219 388 1179 321 q 1280 533 1259 456 q 1302 694 1302 610 q 1280 856 1302 778 q 1219 1001 1259 933 q 1124 1124 1179 1068 q 1001 1219 1068 1179 q 856 1280 933 1259 q 694 1302 778 1302 q 524 1277 606 1302 q 369 1207 441 1253 q 240 1098 298 1162 q 146 955 183 1034 l 347 955 l 347 868 l 0 868 l 0 1215 l 87 1215 l 87 1029 q 112 1072 98 1051 q 140 1112 125 1093 q 290 1259 204 1197 q 481 1356 379 1322 q 694 1389 584 1389 q 965 1335 835 1389 q 1185 1185 1089 1282 q 1335 965 1282 1089 z "},"":{"ha":1389,"x_min":0,"x_max":1389,"o":"m 434 521 q 468 514 452 521 q 495 495 484 507 q 514 468 507 484 q 521 434 521 452 q 514 400 521 416 q 495 373 507 385 q 468 354 484 361 q 434 347 452 347 q 400 354 416 347 q 373 373 385 361 q 354 400 361 385 q 347 434 347 416 q 354 468 347 452 q 373 495 361 484 q 400 514 385 507 q 434 521 416 521 m 955 1042 q 989 1035 973 1042 q 1016 1016 1004 1028 q 1035 989 1028 1004 q 1042 955 1042 973 q 1035 921 1042 937 q 1016 893 1028 905 q 989 875 1004 882 q 955 868 973 868 q 921 875 937 868 q 893 893 905 882 q 875 921 882 905 q 868 955 868 937 q 875 989 868 973 q 893 1016 882 1004 q 921 1035 905 1028 q 955 1042 937 1042 m 1363 867 q 1389 808 1389 843 q 1383 777 1389 792 q 1365 751 1377 762 l 1312 696 q 1285 679 1300 685 q 1254 673 1270 673 q 1194 699 1219 673 l 690 195 q 716 135 716 170 q 710 104 716 119 q 692 77 704 89 l 638 24 q 581 0 614 0 q 522 26 546 0 l 521 25 q 490 56 506 41 q 459 86 475 71 l 459 87 l 302 243 q 281 264 291 255 q 262 281 271 273 q 244 300 253 290 q 224 321 235 309 q 216 338 224 322 q 197 375 208 355 q 178 413 187 395 q 168 434 170 431 l 104 434 l 74 404 l 13 465 l 69 521 l 125 521 l 27 717 q 7 769 14 744 q 0 825 0 794 q 3 866 0 844 q 14 909 7 888 q 31 951 21 931 q 56 984 41 970 l 407 1333 q 440 1357 420 1347 q 480 1375 459 1368 q 524 1385 502 1382 q 564 1389 545 1389 q 620 1382 595 1389 q 672 1362 645 1375 l 868 1263 l 868 1320 l 924 1376 l 985 1315 l 955 1284 l 955 1221 q 976 1211 958 1219 q 1014 1192 994 1202 q 1050 1173 1034 1181 q 1067 1164 1067 1165 q 1089 1145 1080 1154 q 1107 1126 1099 1135 q 1125 1107 1116 1117 q 1145 1086 1134 1098 l 1302 930 l 1303 930 q 1333 899 1318 914 q 1364 868 1348 883 l 1363 867 m 87 825 q 91 790 87 805 q 104 758 95 775 l 186 594 l 795 1203 l 630 1286 q 598 1298 614 1294 q 564 1302 583 1302 q 539 1300 553 1302 q 512 1294 526 1298 q 486 1283 498 1289 q 465 1269 473 1277 l 120 926 q 105 905 112 918 q 95 878 99 892 q 89 850 91 864 q 87 825 87 836 m 760 387 l 1002 629 l 996 635 l 901 667 l 722 488 l 754 393 l 760 387 m 1063 690 q 1152 779 1108 735 q 1240 868 1196 823 l 1090 1018 q 1071 1038 1080 1029 q 1054 1057 1063 1048 q 1037 1074 1046 1065 q 1016 1093 1028 1083 q 1005 1098 1015 1093 q 981 1111 996 1103 q 949 1126 966 1118 q 917 1142 932 1135 q 891 1155 902 1149 q 877 1162 880 1161 l 227 512 q 234 498 228 509 q 247 472 239 487 q 263 439 254 456 q 278 408 271 422 q 291 384 286 393 q 296 373 296 374 q 315 352 306 361 q 332 335 323 343 q 351 318 341 326 q 371 298 360 309 l 521 149 q 610 237 566 193 q 699 326 654 281 l 678 345 l 623 511 l 878 766 l 1044 711 l 1063 690 z "},"":{"ha":1389,"x_min":0,"x_max":1389,"o":"m 1389 1128 l 1389 260 l 0 260 l 0 1128 l 434 1128 l 434 1215 q 441 1249 434 1234 q 459 1277 448 1265 q 487 1295 471 1289 q 521 1302 503 1302 l 868 1302 q 902 1295 886 1302 q 929 1277 918 1289 q 948 1249 941 1265 q 955 1215 955 1234 l 955 1128 l 1389 1128 m 521 1128 l 868 1128 l 868 1215 l 521 1215 l 521 1128 m 87 1042 l 87 916 l 521 700 l 521 781 l 868 781 l 868 700 l 1302 916 l 1302 1042 l 87 1042 m 608 694 l 608 608 l 781 608 l 781 694 l 608 694 m 1302 347 l 1302 820 l 868 602 l 868 521 l 521 521 l 521 602 l 87 820 l 87 347 l 1302 347 z "},"":{"ha":1389,"x_min":0,"x_max":1389,"o":"m 868 0 l 963 191 l 781 372 l 781 130 q 771 79 781 103 q 743 38 761 56 q 702 10 726 20 q 651 0 678 0 q 600 10 624 0 q 559 38 576 20 q 531 79 541 56 q 521 130 521 103 l 521 294 l 520 295 q 508 273 517 282 l 318 83 q 274 54 299 64 q 222 43 249 43 q 170 54 195 43 q 127 83 145 64 q 98 126 109 101 q 87 178 87 151 q 97 231 87 205 q 127 275 108 256 l 260 409 l 260 659 q 217 651 238 651 q 166 661 190 651 q 125 689 142 671 q 97 730 107 707 q 87 781 87 754 l 87 998 q 95 1023 87 1012 q 115 1039 102 1034 l 13 1141 q 0 1172 0 1154 q 13 1202 0 1190 q 43 1215 26 1215 q 74 1202 61 1215 l 213 1064 l 467 1127 q 494 1129 479 1131 q 521 1128 508 1128 q 534 1196 521 1164 q 572 1251 548 1227 q 627 1289 595 1275 q 694 1302 659 1302 q 762 1289 730 1302 q 817 1251 793 1275 q 854 1196 841 1227 q 868 1128 868 1164 q 855 1062 868 1094 q 818 1006 842 1030 l 909 592 q 911 578 910 585 q 911 565 911 572 q 890 493 911 526 q 832 444 869 460 l 1004 273 l 1128 521 l 1389 0 l 868 0 m 694 1215 q 661 1208 676 1215 q 633 1190 645 1202 q 614 1162 621 1178 q 608 1128 608 1147 q 614 1095 608 1110 q 633 1067 621 1079 q 661 1048 645 1055 q 694 1042 676 1042 q 728 1048 713 1042 q 756 1067 744 1055 q 774 1095 768 1079 q 781 1128 781 1110 q 774 1162 781 1147 q 756 1190 768 1178 q 728 1208 744 1202 q 694 1215 713 1215 m 217 738 q 248 751 235 738 q 260 781 260 764 l 260 859 q 270 886 260 875 q 294 901 279 898 q 323 909 303 904 q 366 921 344 915 q 407 931 387 926 q 433 935 426 935 q 464 922 451 935 q 477 891 477 909 q 474 872 477 880 q 463 860 470 865 q 448 851 456 854 q 431 846 439 848 l 608 669 l 608 753 q 620 784 608 771 q 650 797 633 797 q 678 788 666 797 q 694 763 690 779 q 716 659 706 711 q 739 555 726 606 q 754 530 743 539 q 782 521 766 521 q 812 533 800 521 q 825 564 825 546 q 823 574 825 567 l 739 961 q 694 955 718 955 q 608 978 648 955 q 544 1042 568 1001 l 483 1042 l 174 964 l 174 781 q 186 751 174 764 q 217 738 199 738 m 694 380 q 686 396 692 384 q 671 426 680 409 q 653 463 663 444 q 635 499 644 482 q 622 527 627 515 q 615 538 616 538 q 593 564 604 553 q 572 584 583 574 q 550 604 562 594 q 526 628 538 614 l 347 806 l 347 391 q 334 360 347 373 l 188 214 q 174 179 174 199 q 188 145 174 159 q 222 130 202 130 q 256 144 242 130 l 434 322 l 434 477 q 447 508 434 495 q 477 521 460 521 q 500 514 490 521 q 516 497 511 508 l 603 323 q 608 304 608 315 l 608 130 q 621 100 608 113 q 651 87 633 87 q 682 100 669 87 q 694 130 694 113 l 694 380 m 1128 327 l 1008 87 l 1249 87 l 1128 327 z "},"":{"ha":1389,"x_min":0,"x_max":1389,"o":"m 694 0 q 510 25 598 0 q 344 95 421 50 q 203 203 267 140 q 95 344 140 267 q 25 510 50 421 q 0 694 0 599 q 25 879 0 790 q 95 1045 50 968 q 203 1186 140 1122 q 344 1294 267 1249 q 510 1364 421 1339 q 694 1389 599 1389 q 879 1364 790 1389 q 1045 1294 968 1339 q 1186 1186 1122 1249 q 1294 1045 1249 1122 q 1364 879 1339 968 q 1389 694 1389 790 q 1364 510 1389 598 q 1294 344 1339 421 q 1186 203 1249 267 q 1045 95 1122 140 q 879 25 968 50 q 694 0 790 0 m 694 1302 q 533 1280 611 1302 q 388 1219 456 1259 q 265 1124 321 1179 q 170 1001 210 1068 q 109 856 130 933 q 87 694 87 778 q 109 533 87 611 q 170 388 130 456 q 265 265 210 321 q 388 170 321 210 q 533 109 456 130 q 694 87 611 87 q 856 109 778 87 q 1001 170 933 130 q 1124 265 1068 210 q 1219 388 1179 321 q 1280 533 1259 456 q 1302 694 1302 611 q 1280 856 1302 778 q 1219 1001 1259 933 q 1124 1124 1179 1068 q 1001 1219 1068 1179 q 856 1280 933 1259 q 694 1302 778 1302 m 694 694 l 694 1128 l 608 1128 l 608 608 l 955 608 l 955 694 l 694 694 z "},"":{"ha":1389,"x_min":0,"x_max":1302,"o":"m 1215 868 l 1215 347 q 1221 329 1215 347 q 1237 283 1227 311 q 1257 223 1246 256 q 1277 162 1267 191 q 1294 112 1286 133 q 1302 87 1301 92 l 0 87 q 8 112 1 92 q 25 162 16 133 q 45 223 35 191 q 65 283 56 256 q 81 329 75 311 q 87 347 87 347 l 87 868 l 0 868 l 0 955 l 651 1280 l 1302 955 l 1302 868 l 1215 868 m 194 955 l 1108 955 l 651 1183 l 194 955 m 1042 868 l 1042 347 l 1128 347 l 1128 868 l 1042 868 m 868 868 l 868 347 l 955 347 l 955 868 l 868 868 m 694 868 l 694 347 l 781 347 l 781 868 l 694 868 m 521 868 l 521 347 l 608 347 l 608 868 l 521 868 m 347 868 l 347 347 l 434 347 l 434 868 l 347 868 m 174 347 l 260 347 l 260 868 l 174 868 l 174 347 m 1181 174 l 1153 260 l 149 260 l 121 174 l 1181 174 z "},"":{"ha":1389,"x_min":0,"x_max":1389,"o":"m 1255 922 q 1310 881 1285 905 q 1353 826 1335 856 q 1379 763 1370 797 q 1389 694 1389 730 l 1302 694 q 1288 762 1302 730 q 1251 817 1274 793 q 1196 854 1227 840 q 1128 868 1164 868 q 1061 854 1093 868 q 1006 817 1029 840 q 969 762 983 793 q 955 694 955 730 q 927 577 955 633 q 849 485 899 522 q 929 430 893 463 q 989 356 964 397 q 1028 270 1015 316 q 1042 174 1042 223 l 955 174 q 934 275 955 227 q 878 357 913 322 q 795 413 843 393 q 694 434 748 434 q 593 413 641 434 q 511 357 546 393 q 455 275 475 322 q 434 174 434 227 l 347 174 q 361 270 347 223 q 399 356 374 316 q 460 430 425 397 q 540 485 496 463 q 462 577 490 522 q 434 694 434 633 q 420 762 434 730 q 383 817 406 793 q 328 854 359 840 q 260 868 296 868 q 193 854 224 868 q 138 817 161 840 q 101 762 115 793 q 87 694 87 730 l 0 694 q 9 763 0 730 q 36 826 19 797 q 79 881 54 856 q 134 922 104 905 q 99 977 112 946 q 87 1042 87 1008 q 101 1109 87 1077 q 138 1164 115 1141 q 193 1201 161 1187 q 260 1215 224 1215 q 328 1201 296 1215 q 383 1164 359 1187 q 420 1109 406 1141 q 434 1042 434 1077 q 421 977 434 1008 q 387 922 409 946 q 477 838 442 892 q 571 924 514 892 q 694 955 629 955 q 818 924 760 955 q 911 838 875 892 q 1002 922 947 892 q 967 977 980 946 q 955 1042 955 1008 q 969 1109 955 1077 q 1006 1164 983 1141 q 1061 1201 1029 1187 q 1128 1215 1093 1215 q 1196 1201 1164 1215 q 1251 1164 1227 1187 q 1288 1109 1274 1141 q 1302 1042 1302 1077 q 1290 977 1302 1008 q 1255 922 1277 946 m 174 1042 q 180 1008 174 1023 q 199 980 187 992 q 227 962 211 968 q 260 955 242 955 q 294 962 279 955 q 322 980 310 968 q 340 1008 334 992 q 347 1042 347 1023 q 340 1076 347 1060 q 322 1103 334 1091 q 294 1122 310 1115 q 260 1128 279 1128 q 227 1122 242 1128 q 199 1103 211 1115 q 180 1076 187 1091 q 174 1042 174 1060 m 694 521 q 762 535 730 521 q 817 572 793 549 q 854 627 840 595 q 868 694 868 659 q 854 762 868 730 q 817 817 840 793 q 762 854 793 840 q 694 868 730 868 q 627 854 659 868 q 572 817 595 840 q 535 762 549 793 q 521 694 521 730 q 535 627 521 659 q 572 572 549 595 q 627 535 595 549 q 694 521 659 521 m 1042 1042 q 1048 1008 1042 1023 q 1067 980 1055 992 q 1095 962 1079 968 q 1128 955 1110 955 q 1162 962 1147 955 q 1190 980 1178 968 q 1208 1008 1202 992 q 1215 1042 1215 1023 q 1208 1076 1215 1060 q 1190 1103 1202 1091 q 1162 1122 1178 1115 q 1128 1128 1147 1128 q 1095 1122 1110 1128 q 1067 1103 1079 1115 q 1048 1076 1055 1091 q 1042 1042 1042 1060 z "},"":{"ha":1389,"x_min":0,"x_max":1389,"o":"m 1389 1162 q 1372 1075 1389 1117 q 1322 1000 1355 1033 l 429 107 l 0 0 l 107 429 l 1000 1322 q 1075 1372 1033 1355 q 1162 1389 1117 1389 q 1250 1371 1208 1389 q 1322 1322 1291 1353 q 1371 1250 1353 1291 q 1389 1162 1389 1208 m 221 420 q 345 345 293 397 q 420 221 397 293 l 1154 955 l 955 1154 l 221 420 m 119 119 l 342 175 q 320 234 336 206 q 283 283 305 262 q 234 320 262 305 q 175 342 206 336 l 119 119 m 1215 1017 q 1248 1048 1232 1034 q 1276 1080 1263 1063 q 1295 1116 1288 1097 q 1302 1161 1302 1135 q 1291 1216 1302 1190 q 1260 1260 1280 1241 q 1216 1291 1241 1280 q 1161 1302 1190 1302 q 1116 1295 1135 1302 q 1080 1276 1097 1288 q 1048 1248 1063 1263 q 1017 1215 1034 1232 l 1215 1017 z "},"":{"ha":1389,"x_min":87,"x_max":1302,"o":"m 1109 919 q 1189 864 1154 897 q 1250 790 1225 831 q 1289 704 1275 750 q 1302 608 1302 657 l 1215 608 q 1195 709 1215 661 q 1139 791 1174 756 q 1056 847 1103 827 q 955 868 1008 868 q 854 847 901 868 q 771 791 806 827 q 715 709 736 756 q 694 608 694 661 q 666 490 694 546 q 589 398 638 435 q 668 343 633 376 q 729 270 704 310 q 768 183 754 229 q 781 87 781 136 l 694 87 q 674 188 694 140 q 618 271 653 235 q 535 327 583 306 q 434 347 488 347 q 333 327 380 347 q 250 271 286 306 q 194 188 215 235 q 174 87 174 140 l 87 87 q 100 183 87 136 q 139 270 114 229 q 200 343 164 310 q 279 398 235 376 q 202 490 230 435 q 174 608 174 546 q 194 709 174 661 q 250 791 215 756 q 333 847 286 827 q 434 868 380 868 q 551 840 496 868 q 644 762 607 812 q 709 853 669 813 q 800 919 749 893 q 723 1011 751 956 q 694 1128 694 1067 q 715 1230 694 1182 q 771 1312 736 1277 q 854 1368 806 1348 q 955 1389 901 1389 q 1056 1368 1008 1389 q 1139 1312 1103 1348 q 1195 1230 1174 1277 q 1215 1128 1215 1182 q 1187 1011 1215 1067 q 1109 919 1159 956 m 434 434 q 501 448 469 434 q 556 485 533 462 q 594 540 580 509 q 608 608 608 572 q 594 675 608 643 q 556 730 580 707 q 501 767 533 753 q 434 781 469 781 q 367 767 398 781 q 312 730 335 753 q 274 675 288 707 q 260 608 260 643 q 274 540 260 572 q 312 485 288 509 q 367 448 335 462 q 434 434 398 434 m 781 1128 q 795 1061 781 1093 q 832 1006 809 1029 q 887 969 856 983 q 955 955 919 955 q 1022 969 990 955 q 1077 1006 1054 983 q 1115 1061 1101 1029 q 1128 1128 1128 1093 q 1115 1196 1128 1164 q 1077 1251 1101 1227 q 1022 1288 1054 1274 q 955 1302 990 1302 q 887 1288 919 1302 q 832 1251 856 1274 q 795 1196 809 1227 q 781 1128 781 1164 z "},"":{"ha":1389,"x_min":0,"x_max":1389,"o":"m 911 1389 q 1038 1372 977 1389 q 1152 1324 1099 1355 q 1249 1249 1205 1293 q 1324 1152 1293 1205 q 1372 1038 1355 1099 q 1389 911 1389 977 q 1372 785 1389 846 q 1324 671 1355 724 q 1249 574 1293 618 q 1152 499 1205 530 q 1038 451 1099 468 q 911 434 977 434 q 749 463 827 434 q 606 545 671 491 l 74 13 q 43 0 61 0 q 13 13 26 0 q 0 43 0 26 q 13 74 0 61 l 545 606 q 463 749 491 671 q 434 911 434 827 q 451 1038 434 977 q 499 1152 468 1099 q 574 1249 530 1205 q 671 1324 618 1293 q 785 1372 724 1355 q 911 1389 846 1389 m 911 521 q 1063 552 992 521 q 1187 635 1135 583 q 1271 760 1240 688 q 1302 911 1302 831 q 1271 1063 1302 992 q 1187 1187 1240 1135 q 1063 1271 1135 1240 q 911 1302 992 1302 q 760 1271 831 1302 q 635 1187 688 1240 q 552 1063 583 1135 q 521 911 521 992 q 552 760 521 831 q 635 635 583 688 q 760 552 688 583 q 911 521 831 521 z "},"":{"ha":1389,"x_min":0,"x_max":1389,"o":"m 1389 1215 l 1389 174 l 0 174 l 0 1215 l 372 1215 l 459 1302 l 930 1302 l 1017 1215 l 1389 1215 m 1302 1128 l 980 1128 l 893 1215 l 496 1215 l 409 1128 l 87 1128 l 87 260 l 1302 260 l 1302 1128 m 694 1042 q 830 1015 766 1042 q 940 940 893 987 q 1015 830 987 893 q 1042 694 1042 766 q 1015 559 1042 623 q 940 449 987 496 q 830 374 893 401 q 694 347 766 347 q 559 374 623 347 q 449 449 496 401 q 374 559 401 496 q 347 694 347 623 q 374 830 347 766 q 449 940 401 893 q 559 1015 496 987 q 694 1042 623 1042 m 694 434 q 795 455 748 434 q 878 511 843 475 q 934 593 913 546 q 955 694 955 641 q 934 795 955 748 q 878 878 913 843 q 795 934 843 913 q 694 955 748 955 q 593 934 641 955 q 511 878 546 913 q 455 795 475 843 q 434 694 434 748 q 455 593 434 641 q 511 511 475 546 q 593 455 546 475 q 694 434 641 434 m 217 1042 q 248 1029 235 1042 q 260 998 260 1016 q 248 968 260 981 q 217 955 235 955 q 186 968 199 955 q 174 998 174 981 q 186 1029 174 1016 q 217 1042 199 1042 z "},"":{"ha":1389,"x_min":143,"x_max":1246,"o":"m 1246 1011 l 521 286 l 143 664 l 204 725 l 521 409 l 1185 1072 l 1246 1011 z "},"":{"ha":1389,"x_min":87,"x_max":1215,"o":"m 1215 1128 l 1128 1128 l 1128 130 q 1118 79 1128 103 q 1090 38 1108 56 q 1049 10 1073 20 q 998 0 1025 0 l 304 0 q 253 10 277 0 q 212 38 229 20 q 184 79 194 56 q 174 130 174 103 l 174 1128 l 87 1128 l 87 1215 l 434 1215 l 434 1302 q 441 1336 434 1320 q 459 1363 448 1352 q 487 1382 471 1375 q 521 1389 503 1389 l 781 1389 q 815 1382 800 1389 q 843 1363 831 1375 q 861 1336 854 1352 q 868 1302 868 1320 l 868 1215 l 1215 1215 l 1215 1128 m 521 1215 l 781 1215 l 781 1302 l 521 1302 l 521 1215 m 1042 1128 l 260 1128 l 260 130 q 273 100 260 113 q 304 87 286 87 l 998 87 q 1029 100 1016 87 q 1042 130 1042 113 l 1042 1128 m 521 260 l 434 260 l 434 955 l 521 955 l 521 260 m 694 260 l 608 260 l 608 955 l 694 955 l 694 260 m 868 260 l 781 260 l 781 955 l 868 955 l 868 260 z "},"":{"ha":1389,"x_min":87,"x_max":1302,"o":"m 1215 1302 q 1249 1295 1234 1302 q 1277 1277 1265 1289 q 1295 1249 1289 1265 q 1302 1215 1302 1234 l 1302 87 l 242 87 l 87 243 l 87 1215 q 94 1249 87 1234 q 112 1277 100 1265 q 140 1295 124 1289 q 174 1302 155 1302 l 1215 1302 m 347 781 l 1042 781 l 1042 1215 l 347 1215 l 347 781 m 868 434 l 434 434 l 434 174 l 521 174 l 521 347 l 608 347 l 608 174 l 868 174 l 868 434 m 1215 1215 l 1128 1215 l 1128 694 l 260 694 l 260 1215 l 174 1215 l 174 279 l 278 174 l 347 174 l 347 521 l 955 521 l 955 174 l 1215 174 l 1215 1215 z "},"":{"ha":1389,"x_min":0,"x_max":1389,"o":"m 1389 868 l 1302 868 l 1302 87 l 87 87 l 87 868 l 0 868 l 0 1302 l 1389 1302 l 1389 868 m 1215 868 l 174 868 l 174 174 l 1215 174 l 1215 868 m 1302 1215 l 87 1215 l 87 955 l 1302 955 l 1302 1215 m 694 434 l 260 434 l 260 521 l 694 521 l 694 434 m 260 260 l 260 347 l 608 347 l 608 260 l 260 260 z "},"":{"ha":1389,"x_min":0,"x_max":1302,"o":"m 651 1389 q 824 1366 741 1389 q 980 1300 907 1343 q 1112 1199 1053 1258 q 1214 1067 1171 1139 q 1279 911 1256 994 q 1302 738 1302 828 q 1279 565 1302 648 q 1214 409 1256 481 q 1112 277 1171 336 q 980 175 1053 218 q 824 110 907 133 q 651 87 741 87 q 478 110 561 87 q 322 175 395 133 q 190 277 250 218 q 89 409 131 336 q 23 565 46 481 q 0 738 0 648 q 23 911 0 828 q 89 1067 46 994 q 190 1199 131 1139 q 322 1300 250 1258 q 478 1366 395 1343 q 651 1389 561 1389 m 651 174 q 801 194 728 174 q 936 251 873 214 q 1050 339 998 288 q 1138 453 1101 391 q 1195 588 1175 516 q 1215 738 1215 660 q 1195 887 1215 815 q 1138 1022 1175 960 q 1050 1137 1101 1085 q 936 1225 998 1188 q 801 1282 873 1261 q 651 1302 728 1302 q 501 1282 573 1302 q 367 1225 429 1261 q 252 1137 304 1188 q 164 1022 201 1085 q 107 887 127 960 q 87 738 87 815 q 107 588 87 661 q 164 453 127 516 q 252 339 201 391 q 367 251 304 288 q 501 194 429 214 q 651 174 573 174 m 608 1042 l 694 1042 l 694 608 l 608 608 l 608 1042 m 608 521 l 694 521 l 694 434 l 608 434 l 608 521 z "},"":{"ha":1389,"x_min":521,"x_max":868,"o":"m 521 0 l 521 1389 l 608 1389 l 608 0 l 521 0 m 781 1389 l 868 1389 l 868 0 l 781 0 l 781 1389 z "},"":{"ha":1389,"x_min":174,"x_max":1215,"o":"m 1215 781 l 1215 0 l 174 0 l 174 781 l 955 781 l 955 1042 q 935 1145 955 1097 q 880 1227 915 1192 q 798 1282 845 1262 q 694 1302 750 1302 q 591 1282 639 1302 q 509 1227 544 1262 q 454 1145 474 1192 q 434 1042 434 1097 l 347 1042 q 374 1179 347 1116 q 447 1289 400 1242 q 557 1362 494 1336 q 694 1389 621 1389 q 832 1362 768 1389 q 942 1289 895 1336 q 1015 1179 989 1242 q 1042 1042 1042 1116 l 1042 781 l 1215 781 m 1128 694 l 260 694 l 260 87 l 1128 87 l 1128 694 z "},"":{"ha":1389,"x_min":0,"x_max":1389,"o":"m 868 694 l 521 521 l 521 868 l 868 694 m 586 626 l 722 694 l 586 763 l 586 626 m 1389 1215 l 1389 174 l 0 174 l 0 1215 l 1389 1215 m 1302 1128 l 87 1128 l 87 260 l 1302 260 l 1302 1128 m 1215 347 l 174 347 l 174 1042 l 1215 1042 l 1215 347 m 1128 955 l 260 955 l 260 434 l 1128 434 l 1128 955 z "},"":{"ha":1389,"x_min":0,"x_max":1389,"o":"m 521 868 l 608 868 l 608 781 l 521 781 l 521 868 m 781 347 l 868 347 l 868 260 l 781 260 l 781 347 m 1042 868 l 1128 868 l 1128 781 l 1042 781 l 1042 868 m 781 868 l 868 868 l 868 781 l 781 781 l 781 868 m 521 694 l 608 694 l 608 608 l 521 608 l 521 694 m 260 694 l 347 694 l 347 608 l 260 608 l 260 694 m 1042 694 l 1128 694 l 1128 608 l 1042 608 l 1042 694 m 781 694 l 868 694 l 868 608 l 781 608 l 781 694 m 521 521 l 608 521 l 608 434 l 521 434 l 521 521 m 260 521 l 347 521 l 347 434 l 260 434 l 260 521 m 1042 521 l 1128 521 l 1128 434 l 1042 434 l 1042 521 m 781 521 l 868 521 l 868 434 l 781 434 l 781 521 m 521 347 l 608 347 l 608 260 l 521 260 l 521 347 m 260 347 l 347 347 l 347 260 l 260 260 l 260 347 m 1389 1302 l 1389 87 l 0 87 l 0 1302 l 260 1302 l 260 1389 l 347 1389 l 347 1302 l 1042 1302 l 1042 1389 l 1128 1389 l 1128 1302 l 1389 1302 m 87 1215 l 87 1042 l 1302 1042 l 1302 1215 l 1128 1215 l 1128 1128 l 1042 1128 l 1042 1215 l 347 1215 l 347 1128 l 260 1128 l 260 1215 l 87 1215 m 1302 174 l 1302 955 l 87 955 l 87 174 l 1302 174 z "},"":{"ha":1389,"x_min":720,"x_max":1389,"o":"m 1389 669 l 1389 0 l 720 0 l 1389 669 m 1302 459 l 930 87 l 1302 87 l 1302 459 z "},"":{"ha":1389,"x_min":0,"x_max":1389,"o":"m 0 868 q 26 867 9 868 q 58 867 43 867 q 72 867 66 867 q 83 868 79 867 l 1302 1085 q 1313 1086 1306 1086 q 1328 1086 1320 1086 q 1362 1086 1344 1086 q 1389 1085 1379 1085 l 1389 304 q 1362 303 1379 304 q 1329 303 1345 303 q 1309 303 1318 303 q 1295 304 1300 303 l 777 397 q 751 325 770 358 q 703 268 732 292 q 639 231 675 244 q 564 217 604 217 q 480 234 519 217 q 411 280 440 251 q 364 350 381 310 q 347 434 347 389 q 351 473 347 453 l 83 521 q 71 522 77 522 q 57 522 64 522 q 27 522 42 522 q 0 521 12 521 l 0 868 m 564 304 q 610 312 588 304 q 648 335 631 320 q 677 369 665 349 q 692 412 688 389 l 436 458 q 434 434 434 446 q 444 383 434 407 q 472 342 454 359 q 513 314 490 324 q 564 304 537 304 m 1302 998 l 87 781 l 87 608 q 94 607 92 608 l 1302 391 l 1302 998 z "},"":{"ha":1389,"x_min":0,"x_max":1389,"o":"m 434 1128 l 347 1128 l 347 1215 l 434 1215 l 434 1128 m 955 1215 l 1042 1215 l 1042 1128 l 955 1128 l 955 1215 m 434 955 l 347 955 l 347 1042 l 434 1042 l 434 955 m 955 1042 l 1042 1042 l 1042 955 l 955 955 l 955 1042 m 347 260 l 434 260 l 434 174 l 347 174 l 347 260 m 955 260 l 1042 260 l 1042 174 l 955 174 l 955 260 m 347 434 l 434 434 l 434 347 l 347 347 l 347 434 m 955 434 l 1042 434 l 1042 347 l 955 347 l 955 434 m 0 868 l 87 868 l 87 521 l 0 521 l 0 868 m 174 868 l 260 868 l 260 521 l 174 521 l 174 868 m 1128 868 l 1215 868 l 1215 521 l 1128 521 l 1128 868 m 1389 868 l 1389 521 l 1302 521 l 1302 868 l 1389 868 m 347 868 l 1042 868 l 1042 521 l 347 521 l 347 868 m 434 608 l 955 608 l 955 781 l 434 781 l 434 608 z "},"":{"ha":1389,"x_min":86,"x_max":1215,"o":"m 694 699 l 694 260 l 608 260 l 608 699 l 497 588 l 436 649 l 651 864 l 866 649 l 805 588 l 694 699 m 1215 1129 l 1215 260 l 781 260 l 781 347 l 1128 347 l 1128 1042 l 174 1042 l 174 347 l 521 347 l 521 260 l 86 260 l 86 1129 l 1215 1129 z "},"":{"ha":1389,"x_min":260,"x_max":1128,"o":"m 1042 1389 q 1076 1382 1060 1389 q 1103 1363 1091 1375 q 1122 1336 1115 1352 q 1128 1302 1128 1320 l 1128 521 l 372 521 l 260 633 l 260 1302 q 267 1336 260 1320 q 286 1363 274 1352 q 313 1382 298 1375 q 347 1389 329 1389 l 1042 1389 m 521 1042 l 868 1042 l 868 1302 l 521 1302 l 521 1042 m 868 781 l 521 781 l 521 608 l 608 608 l 608 694 l 694 694 l 694 608 l 868 608 l 868 781 m 1042 1302 l 955 1302 l 955 955 l 434 955 l 434 1302 l 347 1302 l 347 669 l 409 608 l 434 608 l 434 868 l 955 868 l 955 608 l 1042 608 l 1042 1302 m 881 291 l 942 230 l 738 25 l 534 230 l 595 291 l 694 191 l 694 434 l 781 434 l 781 191 l 881 291 z "},"":{"ha":1389,"x_min":0,"x_max":1389,"o":"m 694 1389 q 879 1364 790 1389 q 1045 1294 968 1339 q 1186 1186 1122 1249 q 1294 1045 1249 1122 q 1364 879 1339 968 q 1389 694 1389 790 q 1364 510 1389 599 q 1294 344 1339 421 q 1186 203 1249 267 q 1045 95 1122 140 q 879 25 968 50 q 694 0 790 0 q 627 14 659 0 q 572 51 595 28 q 535 106 549 75 q 521 174 521 138 q 527 232 521 207 q 543 277 534 256 q 564 315 553 297 q 585 350 576 332 q 601 388 595 368 q 608 434 608 408 q 594 501 608 469 q 556 556 580 533 q 501 594 533 580 q 434 608 469 608 q 388 601 408 608 q 350 585 368 595 q 315 564 332 576 q 277 543 297 553 q 231 527 256 534 q 174 521 206 521 q 106 535 138 521 q 51 572 75 549 q 14 627 28 595 q 0 694 0 659 q 25 879 0 790 q 95 1045 50 968 q 203 1186 140 1122 q 344 1294 267 1249 q 510 1364 421 1339 q 694 1389 598 1389 m 694 87 q 856 109 778 87 q 1001 170 933 130 q 1124 265 1068 210 q 1219 388 1179 321 q 1280 533 1259 456 q 1302 694 1302 611 q 1280 856 1302 778 q 1219 1001 1259 933 q 1124 1124 1179 1068 q 1001 1219 1068 1179 q 856 1280 933 1259 q 694 1302 778 1302 q 533 1280 611 1302 q 388 1219 456 1259 q 265 1124 321 1179 q 170 1001 210 1068 q 109 856 130 933 q 87 694 87 778 q 94 661 87 676 q 112 633 100 645 q 140 614 124 621 q 174 608 155 608 q 219 614 199 608 q 257 630 239 621 q 293 651 275 640 q 330 672 310 663 q 375 688 350 682 q 434 694 400 694 q 536 674 488 694 q 618 618 583 654 q 674 536 654 583 q 694 434 694 488 q 688 375 694 401 q 672 330 682 350 q 651 293 663 310 q 630 257 640 275 q 614 219 621 239 q 608 174 608 199 q 614 140 608 155 q 633 112 621 124 q 661 94 645 100 q 694 87 676 87 m 347 955 q 381 948 366 955 q 409 929 397 941 q 427 902 420 918 q 434 868 434 886 q 427 834 434 850 q 409 807 420 819 q 381 788 397 795 q 347 781 366 781 q 313 788 329 781 q 286 807 298 795 q 267 834 274 819 q 260 868 260 850 q 267 902 260 886 q 286 929 274 918 q 313 948 298 941 q 347 955 329 955 m 608 1128 q 642 1122 626 1128 q 669 1103 657 1115 q 688 1076 681 1091 q 694 1042 694 1060 q 688 1008 694 1023 q 669 980 681 992 q 642 962 657 968 q 608 955 626 955 q 574 962 589 955 q 546 980 558 968 q 528 1008 534 992 q 521 1042 521 1023 q 528 1076 521 1060 q 546 1103 534 1091 q 574 1122 558 1115 q 608 1128 589 1128 m 955 868 q 921 875 937 868 q 893 893 905 882 q 875 921 882 905 q 868 955 868 937 q 875 989 868 973 q 893 1016 882 1004 q 921 1035 905 1028 q 955 1042 937 1042 q 989 1035 973 1042 q 1016 1016 1004 1028 q 1035 989 1028 1004 q 1042 955 1042 973 q 1035 921 1042 937 q 1016 893 1028 905 q 989 875 1004 882 q 955 868 973 868 m 1042 694 q 1076 688 1060 694 q 1103 669 1091 681 q 1122 642 1115 657 q 1128 608 1128 626 q 1122 574 1128 589 q 1103 546 1115 558 q 1076 528 1091 534 q 1042 521 1060 521 q 1008 528 1023 521 q 980 546 992 534 q 962 574 968 558 q 955 608 955 589 q 962 642 955 626 q 980 669 968 657 q 1008 688 992 681 q 1042 694 1023 694 m 868 434 q 902 427 886 434 q 929 409 918 420 q 948 381 941 397 q 955 347 955 366 q 948 313 955 329 q 929 286 941 298 q 902 267 918 274 q 868 260 886 260 q 834 267 850 260 q 807 286 819 274 q 788 313 795 298 q 781 347 781 329 q 788 381 781 366 q 807 409 795 397 q 834 427 819 420 q 868 434 850 434 z "},"":{"ha":1389,"x_min":87,"x_max":1389,"o":"m 998 781 q 1150 750 1079 781 q 1274 667 1221 720 q 1358 543 1327 614 q 1389 391 1389 471 q 1358 239 1389 310 q 1274 115 1327 168 q 1150 31 1221 62 q 998 0 1079 0 q 846 31 918 0 q 722 115 775 62 q 638 239 669 168 q 608 391 608 310 q 638 543 608 471 q 722 667 669 614 q 846 750 775 720 q 998 781 918 781 m 998 87 q 1117 111 1061 87 q 1213 176 1172 135 q 1278 272 1254 217 q 1302 391 1302 328 q 1278 509 1302 454 q 1213 605 1254 564 q 1117 670 1172 646 q 998 694 1061 694 q 880 670 935 694 q 784 605 825 646 q 719 509 743 564 q 694 391 694 454 q 719 272 694 328 q 784 176 743 217 q 880 111 825 135 q 998 87 935 87 m 87 608 l 260 608 l 260 434 l 87 434 l 87 608 m 347 781 l 521 781 l 521 434 l 347 434 l 347 781 m 1215 434 l 1215 347 l 781 347 l 781 434 l 1215 434 m 1042 865 q 996 867 1018 867 q 931 863 963 867 q 868 850 900 859 l 868 1128 l 1042 1128 l 1042 865 m 781 816 q 686 751 730 789 q 608 665 642 713 l 608 955 l 781 955 l 781 816 z "},"":{"ha":1389,"x_min":87,"x_max":1389,"o":"m 1253 781 q 1306 771 1282 781 q 1350 743 1331 761 q 1378 700 1368 725 q 1389 647 1389 675 q 1379 595 1389 621 q 1350 551 1369 570 l 863 65 l 608 1 l 671 257 l 1158 743 q 1202 772 1177 762 q 1253 781 1226 781 m 1288 612 q 1302 647 1302 627 q 1288 681 1302 668 q 1253 694 1274 694 q 1235 691 1244 694 q 1219 682 1226 688 l 750 212 l 727 121 l 819 144 l 1288 612 m 521 347 l 608 347 l 521 260 l 199 260 l 87 372 l 87 1215 q 94 1249 87 1234 q 112 1277 100 1265 q 140 1295 124 1289 q 174 1302 155 1302 l 1042 1302 q 1076 1295 1060 1302 q 1103 1277 1091 1289 q 1122 1249 1115 1265 q 1128 1215 1128 1234 l 1128 868 l 1042 781 l 1042 1215 l 955 1215 l 955 781 l 260 781 l 260 1215 l 174 1215 l 174 409 l 235 347 l 260 347 l 260 694 l 868 694 l 868 608 l 781 521 l 781 608 l 347 608 l 347 347 l 434 347 l 434 521 l 521 521 l 521 347 m 347 868 l 868 868 l 868 1215 l 347 1215 l 347 868 z "},"":{"ha":1389,"x_min":0,"x_max":1302,"o":"m 651 1042 q 769 1018 714 1042 q 866 952 825 994 q 931 856 907 911 q 955 738 955 801 q 931 620 955 675 q 866 523 907 564 q 769 458 825 482 q 651 434 714 434 q 533 458 588 434 q 436 523 477 482 q 371 620 395 564 q 347 738 347 675 q 371 856 347 801 q 436 952 395 911 q 533 1018 477 994 q 651 1042 588 1042 m 651 521 q 735 538 696 521 q 804 585 774 555 q 851 654 833 614 q 868 738 868 693 q 851 822 868 783 q 804 891 833 861 q 735 938 774 920 q 651 955 696 955 q 608 950 627 955 l 608 526 q 651 521 627 521 m 694 1128 l 608 1128 l 608 1389 l 694 1389 l 694 1128 m 608 347 l 694 347 l 694 87 l 608 87 l 608 347 m 1302 781 l 1302 694 l 1042 694 l 1042 781 l 1302 781 m 260 694 l 0 694 l 0 781 l 260 781 l 260 694 m 344 983 l 160 1168 l 221 1229 l 406 1045 l 344 983 m 958 492 l 1142 308 l 1081 247 l 897 431 l 958 492 m 958 983 l 897 1045 l 1081 1229 l 1142 1168 l 958 983 m 344 492 l 406 431 l 221 247 l 160 308 l 344 492 z "},"":{"ha":1389,"x_min":0,"x_max":1389,"o":"m 0 1215 l 87 1215 l 87 1128 l 0 1128 l 0 1215 m 0 1042 l 87 1042 l 87 955 l 0 955 l 0 1042 m 0 868 l 87 868 l 87 781 l 0 781 l 0 868 m 0 694 l 87 694 l 87 608 l 0 608 l 0 694 m 0 347 l 87 347 l 87 260 l 0 260 l 0 347 m 174 1215 l 260 1215 l 260 1128 l 174 1128 l 174 1215 m 174 347 l 260 347 l 260 260 l 174 260 l 174 347 m 1302 347 l 1389 347 l 1389 260 l 1302 260 l 1302 347 m 0 521 l 87 521 l 87 434 l 0 434 l 0 521 m 1302 521 l 1389 521 l 1389 434 l 1302 434 l 1302 521 m 1302 694 l 1389 694 l 1389 608 l 1302 608 l 1302 694 m 1302 868 l 1389 868 l 1389 781 l 1302 781 l 1302 868 m 1302 1042 l 1389 1042 l 1389 955 l 1302 955 l 1302 1042 m 1389 1215 l 1389 1128 l 1302 1128 l 1302 1215 l 1389 1215 m 1128 347 l 1215 347 l 1215 260 l 1128 260 l 1128 347 m 1128 1215 l 1215 1215 l 1215 1128 l 1128 1128 l 1128 1215 m 347 1215 l 1042 1215 l 1042 260 l 347 260 l 347 1215 m 434 347 l 955 347 l 955 1128 l 434 1128 l 434 347 z "},"":{"ha":1389,"x_min":1128,"x_max":1302,"o":"m 1302 758 q 1128 849 1226 821 l 1128 1302 l 1302 1302 l 1302 758 z "},"":{"ha":1389,"x_min":174,"x_max":1213,"o":"m 738 1386 q 863 1369 803 1386 q 977 1321 924 1352 q 1073 1246 1029 1290 q 1147 1150 1116 1203 q 1196 1037 1179 1097 q 1213 911 1213 977 q 1177 732 1213 819 q 1076 580 1141 646 l 508 13 l 447 74 l 1014 642 q 1097 765 1067 695 q 1126 911 1126 836 q 1095 1061 1126 991 q 1011 1185 1064 1132 q 888 1269 958 1238 q 738 1299 817 1299 q 609 1277 665 1299 q 505 1219 553 1255 q 414 1137 458 1183 q 322 1042 370 1090 l 608 1042 l 608 955 l 174 955 l 174 1389 l 260 1389 l 260 1103 q 332 1177 298 1141 q 400 1244 366 1213 q 470 1302 435 1276 q 546 1347 506 1328 q 634 1376 587 1365 q 738 1386 681 1386 z "},"":{"ha":1389,"x_min":0,"x_max":1389,"o":"m 1389 347 l 1389 260 l 1128 260 l 1128 0 l 1042 0 l 1042 260 l 260 260 l 260 1042 l 0 1042 l 0 1128 l 260 1128 l 260 1389 l 347 1389 l 347 1128 l 1067 1128 l 1314 1376 l 1376 1315 l 1128 1067 l 1128 347 l 1389 347 m 347 1042 l 347 409 l 980 1042 l 347 1042 m 1042 347 l 1042 980 l 409 347 l 1042 347 z "},"":{"ha":1389,"x_min":0,"x_max":1387,"o":"m 1387 562 l 1172 777 l 957 562 l 1018 501 l 1128 612 l 1128 216 l 1215 216 l 1215 612 l 1326 501 l 1387 562 m 1215 1128 l 433 1128 l 433 1215 l 1215 1215 l 1215 1128 m 1042 260 l 433 260 l 433 347 l 1042 347 l 1042 260 m 260 1042 l 0 1042 l 0 1302 l 260 1302 l 260 1042 m 87 1128 l 174 1128 l 174 1215 l 87 1215 l 87 1128 m 260 608 l 0 608 l 0 868 l 260 868 l 260 608 m 87 694 l 174 694 l 174 781 l 87 781 l 87 694 m 260 174 l 0 174 l 0 434 l 260 434 l 260 174 m 87 260 l 174 260 l 174 347 l 87 347 l 87 260 m 955 694 l 434 694 l 434 781 l 1042 781 l 955 694 z "},"":{"ha":1389,"x_min":0,"x_max":1389,"o":"m 694 868 q 762 854 730 868 q 817 817 793 841 q 854 762 841 793 q 868 694 868 730 q 854 627 868 659 q 817 572 841 595 q 762 534 793 548 q 694 521 730 521 q 627 534 659 521 q 572 572 595 548 q 534 627 548 595 q 521 694 521 659 q 534 762 521 730 q 572 817 548 793 q 627 854 595 841 q 694 868 659 868 m 694 608 q 728 614 713 608 q 756 633 744 621 q 774 661 768 645 q 781 694 781 676 q 774 728 781 713 q 756 756 768 744 q 728 774 744 768 q 694 781 713 781 q 661 774 676 781 q 633 756 645 768 q 614 728 621 744 q 608 694 608 713 q 614 661 608 676 q 633 633 621 645 q 661 614 645 621 q 694 608 676 608 m 1389 694 q 1364 510 1389 600 q 1292 341 1339 420 q 1179 197 1246 262 q 1029 87 1113 132 l 1215 87 l 1215 0 l 868 0 l 868 347 l 955 347 l 955 146 q 1098 241 1034 183 q 1208 370 1162 298 q 1278 524 1253 441 q 1302 694 1302 607 q 1280 856 1302 778 q 1219 1001 1259 933 q 1124 1124 1179 1068 q 1001 1219 1068 1179 q 856 1280 933 1259 q 694 1302 778 1302 q 533 1280 611 1302 q 388 1219 456 1259 q 265 1124 321 1179 q 170 1001 210 1068 q 109 856 130 933 q 87 694 87 778 l 0 694 q 25 879 0 790 q 95 1045 50 968 q 203 1186 140 1122 q 344 1294 267 1249 q 510 1364 421 1339 q 694 1389 598 1389 q 879 1364 790 1389 q 1045 1294 968 1339 q 1186 1186 1122 1249 q 1294 1045 1249 1122 q 1364 879 1339 968 q 1389 694 1389 790 z "},"":{"ha":1389,"x_min":25,"x_max":1364,"o":"m 334 881 l 149 694 l 334 508 l 273 447 l 25 694 l 273 942 l 334 881 m 881 334 l 942 273 l 694 25 l 447 273 l 508 334 l 694 149 l 881 334 m 1364 694 l 1116 447 l 1055 508 l 1240 694 l 1055 881 l 1116 942 l 1364 694 m 508 1055 l 447 1116 l 694 1364 l 942 1116 l 881 1055 l 694 1240 l 508 1055 m 694 955 q 795 935 748 955 q 879 879 843 914 q 935 795 914 843 q 955 694 955 748 q 935 593 955 640 q 879 510 914 546 q 795 454 843 475 q 694 434 748 434 q 593 454 640 434 q 510 510 546 475 q 454 593 475 546 q 434 694 434 640 q 454 795 434 748 q 510 879 475 843 q 593 935 546 914 q 694 955 640 955 m 694 521 q 762 534 730 521 q 817 572 793 548 q 854 627 841 595 q 868 694 868 659 q 854 762 868 730 q 817 817 841 793 q 762 854 793 841 q 694 868 730 868 q 627 854 659 868 q 572 817 595 841 q 534 762 548 793 q 521 694 521 730 q 534 627 521 659 q 572 572 548 595 q 627 534 595 548 q 694 521 659 521 z "},"":{"ha":1389,"x_min":0,"x_max":1389,"o":"m 694 1042 q 892 1015 796 1042 q 1077 942 989 989 q 1244 832 1166 896 q 1389 694 1322 768 q 1244 556 1322 620 q 1077 447 1166 493 q 892 374 989 400 q 694 347 796 347 q 496 374 593 347 q 312 447 400 400 q 144 556 223 493 q 0 694 66 620 q 144 832 66 768 q 312 942 223 896 q 496 1015 400 989 q 694 1042 593 1042 m 955 694 q 934 795 955 748 q 878 878 913 843 q 795 934 843 913 q 694 955 748 955 q 593 934 641 955 q 511 878 546 913 q 455 795 475 843 q 434 694 434 748 q 455 593 434 641 q 511 511 475 546 q 593 455 546 475 q 694 434 641 434 q 795 455 748 434 q 878 511 843 475 q 934 593 913 546 q 955 694 955 641 m 120 694 q 256 582 184 633 q 410 496 328 530 q 363 590 379 539 q 347 694 347 642 q 363 799 347 747 q 410 893 379 850 q 256 807 328 859 q 120 694 184 756 m 979 496 q 1133 582 1061 530 q 1269 694 1205 633 q 1133 807 1205 756 q 979 893 1061 859 q 1026 799 1010 850 q 1042 694 1042 747 q 1026 590 1042 642 q 979 496 1010 539 m 694 608 q 661 614 676 608 q 633 633 645 621 q 614 661 621 645 q 608 694 608 676 q 614 728 608 713 q 633 756 621 744 q 661 774 645 768 q 694 781 676 781 q 728 774 713 781 q 756 756 744 768 q 774 728 768 744 q 781 694 781 713 q 774 661 781 676 q 756 633 768 645 q 728 614 744 621 q 694 608 713 608 z "},"":{"ha":1389,"x_min":87,"x_max":1215,"o":"m 866 389 l 651 604 l 436 389 l 497 328 l 608 438 l 608 0 l 694 0 l 694 438 l 805 328 l 866 389 m 1215 694 l 87 694 l 87 1389 l 1215 1389 l 1215 694 m 174 781 l 1128 781 l 1128 1302 l 174 1302 l 174 781 z "},"":{"ha":1389,"x_min":347,"x_max":955,"o":"m 955 1085 q 935 978 955 1029 q 881 886 916 926 q 799 819 846 846 q 694 785 751 792 l 694 87 l 651 0 l 608 87 l 608 785 q 504 819 551 792 q 421 886 456 846 q 367 978 387 926 q 347 1085 347 1029 q 371 1203 347 1148 q 436 1300 395 1259 q 533 1365 477 1341 q 651 1389 588 1389 q 769 1365 714 1389 q 866 1300 825 1341 q 931 1203 907 1259 q 955 1085 955 1148 m 651 868 q 735 885 696 868 q 804 931 774 902 q 851 1001 833 961 q 868 1085 868 1040 q 851 1169 868 1130 q 804 1238 833 1208 q 735 1285 774 1267 q 651 1302 696 1302 q 567 1285 606 1302 q 497 1238 527 1267 q 451 1169 468 1208 q 434 1085 434 1130 q 451 1001 434 1040 q 497 931 468 961 q 567 885 527 902 q 651 868 606 868 z "},"":{"ha":1389,"x_min":0,"x_max":1302,"o":"m 1302 87 l 0 87 l 651 1389 l 1302 87 m 140 174 l 1162 174 l 651 1195 l 140 174 m 694 868 l 694 434 l 608 434 l 608 868 l 694 868 m 608 347 l 694 347 l 694 260 l 608 260 l 608 347 z "},"":{"ha":1389,"x_min":0,"x_max":1389,"o":"m 1073 667 q 1115 565 1101 618 q 1128 456 1128 511 l 1128 386 l 694 168 l 260 386 q 261 462 260 427 q 268 531 262 497 q 284 597 273 564 q 316 667 295 630 l 174 738 l 174 340 q 209 321 193 333 q 237 292 225 309 q 254 257 248 276 q 260 217 260 237 l 260 0 l 0 0 l 0 217 q 6 257 0 237 q 24 292 12 276 q 51 321 35 309 q 87 340 67 333 l 87 781 l 0 825 l 694 1172 l 1389 825 l 1073 667 m 174 217 q 161 248 174 235 q 130 260 148 260 q 100 248 113 260 q 87 217 87 235 l 87 87 l 174 87 l 174 217 m 194 825 l 694 574 l 1195 825 l 694 1075 l 194 825 m 1042 439 q 1031 537 1042 492 q 996 628 1021 582 l 694 477 l 393 628 q 359 545 371 589 q 347 456 347 501 l 347 439 l 694 266 l 1042 439 z "},"":{"ha":1389,"x_min":0,"x_max":1389,"o":"m 1085 347 q 1136 337 1112 347 q 1177 309 1160 327 q 1205 268 1195 292 q 1215 217 1215 244 q 1205 166 1215 190 q 1177 125 1195 142 q 1136 97 1160 107 q 1085 87 1112 87 q 1034 97 1058 87 q 993 125 1010 107 q 965 166 975 142 q 955 217 955 190 q 962 260 955 238 l 600 260 q 608 217 608 238 q 597 166 608 190 q 570 125 587 142 q 528 97 552 107 q 477 87 505 87 q 427 97 450 87 q 385 125 403 107 q 357 166 368 142 q 347 217 347 190 q 367 286 347 254 q 421 334 387 318 l 128 1215 l 0 1215 l 0 1302 l 191 1302 l 248 1128 l 1389 1128 l 1187 521 l 451 521 l 509 347 l 1085 347 m 277 1042 l 422 608 l 1124 608 l 1268 1042 l 277 1042 m 521 217 q 508 248 521 235 q 477 260 495 260 q 447 248 460 260 q 434 217 434 235 q 447 186 434 199 q 477 174 460 174 q 508 186 495 174 q 521 217 521 199 m 1085 174 q 1116 186 1103 174 q 1128 217 1128 199 q 1116 248 1128 235 q 1085 260 1103 260 q 1055 248 1067 260 q 1042 217 1042 235 q 1055 186 1042 199 q 1085 174 1067 174 z "},"":{"ha":1389,"x_min":112,"x_max":1277,"o":"m 391 347 q 360 360 373 347 q 347 391 347 373 q 360 421 347 408 q 391 434 373 434 q 421 421 408 434 q 434 391 434 408 q 421 360 434 373 q 391 347 408 347 m 998 347 q 968 360 981 347 q 955 391 955 373 q 968 421 955 408 q 998 434 981 434 q 1029 421 1016 434 q 1042 391 1042 408 q 1029 360 1042 373 q 998 347 1016 347 m 868 1128 l 521 1128 l 521 1215 l 868 1215 l 868 1128 m 980 174 l 409 174 l 235 0 l 112 0 l 287 175 q 242 189 263 178 q 207 218 222 201 q 182 257 191 235 q 174 304 174 279 l 174 1259 q 184 1310 174 1286 q 212 1351 194 1333 q 253 1379 229 1369 q 304 1389 277 1389 l 1085 1389 q 1136 1379 1112 1389 q 1177 1351 1160 1369 q 1205 1310 1195 1333 q 1215 1259 1215 1286 l 1215 304 q 1206 257 1215 279 q 1182 218 1198 235 q 1146 189 1167 201 q 1102 175 1126 178 l 1277 0 l 1154 0 l 980 174 m 1128 955 l 260 955 l 260 608 l 1128 608 l 1128 955 m 304 1302 q 273 1289 286 1302 q 260 1259 260 1276 l 260 1042 l 1128 1042 l 1128 1259 q 1116 1289 1128 1276 q 1085 1302 1103 1302 l 304 1302 m 260 304 q 273 273 260 286 q 304 260 286 260 l 1085 260 q 1116 273 1103 260 q 1128 304 1128 286 l 1128 521 l 260 521 l 260 304 z "},"":{"ha":1389,"x_min":174,"x_max":1302,"o":"m 1302 1215 l 1302 521 l 694 521 l 694 694 l 260 694 l 260 0 l 174 0 l 174 1389 l 781 1389 l 781 1215 l 1302 1215 m 694 781 l 694 1302 l 260 1302 l 260 781 l 694 781 m 1215 1128 l 781 1128 l 781 608 l 1215 608 l 1215 1128 z "},"":{"ha":1389,"x_min":87,"x_max":1215,"o":"m 1215 1017 l 1215 0 l 87 0 l 87 1389 l 843 1389 l 1215 1017 m 868 1042 l 1067 1042 l 868 1240 l 868 1042 m 1128 87 l 1128 955 l 781 955 l 781 1302 l 174 1302 l 174 87 l 1128 87 z "},"":{"ha":1389,"x_min":0,"x_max":1389,"o":"m 174 434 l 174 608 l 0 608 l 0 1389 l 1042 1389 l 1042 1215 l 1215 1215 l 1215 694 l 1128 694 l 1128 1128 l 1042 1128 l 1042 608 l 260 608 l 260 521 l 868 521 l 868 434 l 174 434 m 955 694 l 955 1302 l 87 1302 l 87 694 l 955 694 m 174 1215 l 868 1215 l 868 781 l 174 781 l 174 1215 m 260 868 l 781 868 l 781 1128 l 260 1128 l 260 868 m 1172 608 q 1256 590 1217 608 q 1325 544 1295 573 q 1372 475 1354 514 q 1389 391 1389 435 q 1372 307 1389 346 q 1325 238 1354 267 q 1256 191 1295 208 q 1172 174 1217 174 q 1109 183 1140 174 q 1053 210 1079 192 l 846 4 l 785 65 l 991 271 q 964 328 973 298 q 955 391 955 359 q 972 475 955 435 q 1019 544 989 514 q 1088 590 1048 573 q 1172 608 1127 608 m 1172 260 q 1223 271 1199 260 q 1264 298 1246 281 q 1292 340 1282 316 q 1302 391 1302 363 q 1292 441 1302 418 q 1264 483 1282 465 q 1223 511 1246 500 q 1172 521 1199 521 q 1121 511 1145 521 q 1080 483 1097 500 q 1052 441 1062 465 q 1042 391 1042 418 q 1052 340 1042 363 q 1080 298 1062 316 q 1121 271 1097 281 q 1172 260 1145 260 z "},"":{"ha":1389,"x_min":0,"x_max":694,"o":"m 694 1389 l 694 334 l 260 0 l 429 538 l 0 868 l 532 868 l 694 1389 z "},"":{"ha":1389,"x_min":694,"x_max":1389,"o":"m 960 538 l 1128 0 l 694 334 l 694 1389 l 857 868 l 1389 868 l 960 538 z "},"":{"ha":1389,"x_min":260,"x_max":1128,"o":"m 694 1128 q 863 1094 784 1128 q 1001 1001 942 1060 q 1094 863 1060 942 q 1128 694 1128 784 q 1094 526 1128 605 q 1001 388 1060 447 q 863 295 942 329 q 694 260 784 260 q 526 295 605 260 q 388 388 447 329 q 295 526 329 447 q 260 694 260 605 q 295 863 260 784 q 388 1001 329 942 q 526 1094 447 1060 q 694 1128 605 1128 z "},"":{"ha":1389,"x_min":0,"x_max":1389,"o":"m 1259 868 q 1310 858 1286 868 q 1351 830 1333 848 q 1379 789 1369 812 q 1389 738 1389 765 l 1389 477 q 1358 326 1389 397 q 1274 201 1327 254 q 1150 118 1221 149 q 998 87 1079 87 q 818 124 903 87 q 663 231 732 162 l 447 446 l 262 354 l 169 542 l 0 372 l 0 1277 l 608 669 l 608 1172 q 618 1223 608 1199 q 646 1264 628 1246 q 687 1292 663 1282 q 738 1302 711 1302 q 789 1292 765 1302 q 830 1264 812 1282 q 858 1223 848 1246 q 868 1172 868 1199 l 868 947 q 908 954 886 954 q 972 938 941 954 q 1021 895 1004 922 q 1085 911 1051 911 q 1148 895 1120 911 q 1195 851 1177 879 q 1259 868 1225 868 m 288 738 l 416 738 l 87 1067 l 87 583 l 193 688 l 302 471 l 397 519 l 288 738 m 1302 738 q 1289 768 1302 755 q 1259 781 1276 781 q 1228 768 1241 781 q 1215 738 1215 755 l 1215 651 q 1202 621 1215 633 q 1172 608 1190 608 q 1141 621 1154 608 q 1128 651 1128 633 l 1128 781 q 1116 812 1128 799 q 1085 825 1103 825 q 1055 812 1067 825 q 1042 781 1042 799 l 1042 694 q 1029 664 1042 677 q 998 651 1016 651 q 968 664 981 651 q 955 694 955 677 l 955 825 q 942 855 955 842 q 911 868 929 868 q 881 855 894 868 q 868 825 868 842 l 868 738 q 855 707 868 720 q 825 694 842 694 q 794 707 807 694 q 781 738 781 720 l 781 1172 q 768 1202 781 1190 q 738 1215 755 1215 q 707 1202 720 1215 q 694 1172 694 1190 l 694 638 q 682 597 694 616 q 649 570 670 578 q 621 564 636 564 q 568 586 591 564 l 517 637 q 483 651 503 651 q 448 637 463 651 q 437 621 441 629 q 434 602 434 612 q 448 568 434 582 l 725 291 q 850 203 780 233 q 998 174 920 174 q 1117 198 1061 174 q 1213 263 1172 222 q 1278 359 1254 304 q 1302 477 1302 414 l 1302 738 z "},"":{"ha":1389,"x_min":260,"x_max":1128,"o":"m 347 0 l 260 0 l 260 1128 l 1128 1128 l 1128 0 l 1042 0 l 1042 174 l 347 174 l 347 0 m 1042 694 l 1042 1042 l 347 1042 l 347 694 l 1042 694 m 1042 260 l 1042 607 l 347 607 l 347 260 l 1042 260 z "},"":{"ha":1389,"x_min":0,"x_max":1302,"o":"m 1199 174 l 1302 174 l 1302 87 l 1156 87 q 1105 22 1134 44 q 1042 0 1076 0 q 971 15 1005 0 q 912 57 938 29 q 882 79 899 71 q 846 87 865 87 q 781 57 808 87 q 721 15 755 29 q 651 0 688 0 q 581 15 614 0 q 522 57 547 29 q 491 79 508 71 q 456 87 474 87 q 390 57 418 87 q 331 15 364 29 q 260 0 297 0 q 197 22 226 0 q 146 87 168 44 l 0 87 l 0 174 l 103 174 l 0 380 l 0 487 l 174 545 l 174 868 l 277 868 l 363 1042 l 521 1042 l 521 1215 l 781 1215 l 781 1042 l 939 1042 l 1025 868 l 1128 868 l 1128 545 l 1302 487 l 1302 380 l 1199 174 m 608 1042 l 694 1042 l 694 1128 l 608 1128 l 608 1042 m 374 868 l 928 868 l 884 955 l 418 955 l 374 868 m 260 574 l 651 704 l 1042 574 l 1042 781 l 260 781 l 260 574 m 585 117 q 608 98 595 105 l 608 598 l 87 425 l 87 401 l 224 127 q 244 97 234 106 q 260 87 254 87 q 296 95 279 87 q 326 117 313 102 q 386 159 352 144 q 456 174 419 174 q 526 159 492 174 q 585 117 559 144 m 1215 401 l 1215 425 l 694 598 l 694 98 q 717 117 707 105 q 776 159 743 144 q 846 174 810 174 q 917 159 883 174 q 976 117 950 144 q 1042 87 1004 87 q 1058 97 1048 87 q 1078 127 1068 106 l 1215 401 z "},"":{"ha":1389,"x_min":0,"x_max":1389,"o":"m 1389 1389 l 1389 1042 q 1288 1028 1330 1042 q 1216 991 1246 1015 q 1169 936 1187 968 q 1141 865 1151 903 q 1128 783 1132 826 q 1125 696 1125 741 q 1127 607 1125 651 q 1128 521 1128 563 l 955 521 l 955 260 l 434 0 l 434 521 l 260 521 q 262 607 260 563 q 264 696 264 651 q 260 783 264 741 q 248 865 257 826 q 220 936 238 903 q 173 991 202 968 q 101 1028 143 1015 q 0 1042 58 1042 l 0 1389 l 87 1389 l 87 1128 l 1302 1128 l 1302 1389 l 1389 1389 m 868 521 l 521 521 l 521 140 l 868 314 l 868 521 m 1042 608 q 1041 667 1042 638 q 1040 726 1040 696 q 1044 811 1040 769 q 1058 893 1047 853 q 1089 970 1068 932 q 1144 1042 1109 1007 l 245 1042 q 300 969 279 1007 q 331 892 321 932 q 345 811 342 852 q 349 726 349 769 q 348 667 349 696 q 347 608 347 638 l 1042 608 z "},"":{"ha":1389,"x_min":0,"x_max":1389,"o":"m 0 1389 l 1389 1389 l 1389 260 l 955 260 l 694 0 l 434 260 l 0 260 l 0 1389 m 1128 868 l 260 868 l 260 781 l 1128 781 l 1128 868 m 1128 1128 l 260 1128 l 260 1042 l 1128 1042 l 1128 1128 m 781 608 l 260 608 l 260 521 l 781 521 l 781 608 z "},"":{"ha":1389,"x_min":87,"x_max":1302,"o":"m 738 694 l 651 694 l 651 1389 l 738 1389 l 738 694 m 882 1185 q 1053 1099 975 1156 q 1186 965 1131 1042 q 1272 797 1241 888 q 1302 608 1302 705 q 1280 446 1302 524 q 1219 301 1259 368 q 1124 178 1179 233 q 1001 83 1069 123 q 856 22 934 43 q 694 0 779 0 q 533 22 610 0 q 388 83 455 43 q 265 178 320 123 q 170 301 210 233 q 109 446 130 368 q 87 608 87 524 q 117 797 87 705 q 203 965 148 888 q 336 1099 258 1042 q 507 1185 414 1156 l 534 1103 q 387 1028 454 1077 q 273 914 321 979 q 200 771 226 849 q 174 608 174 692 q 192 469 174 536 q 245 345 211 403 q 326 239 279 287 q 432 158 374 192 q 556 105 490 124 q 694 87 623 87 q 833 105 766 87 q 957 158 899 124 q 1063 239 1015 192 q 1144 345 1110 287 q 1197 469 1178 403 q 1215 608 1215 536 q 1189 771 1215 692 q 1116 914 1163 849 q 1002 1028 1068 979 q 854 1103 935 1077 l 882 1185 z "},"":{"ha":1389,"x_min":4,"x_max":1389,"o":"m 1389 651 l 170 651 l 443 378 l 382 317 l 4 694 l 382 1072 l 443 1011 l 170 738 l 1389 738 l 1389 651 z "},"":{"ha":1389,"x_min":317,"x_max":1072,"o":"m 1011 946 l 738 1218 l 738 0 l 652 0 l 652 1220 l 378 946 l 317 1007 l 694 1385 l 1072 1007 l 1011 946 z "},"":{"ha":1389,"x_min":0,"x_max":1389,"o":"m 260 608 q 294 601 279 608 q 322 582 310 594 q 340 555 334 570 q 347 521 347 539 q 340 487 347 503 q 322 459 334 471 q 294 441 310 448 q 260 434 279 434 q 227 441 242 434 q 199 459 211 448 q 180 487 187 471 q 174 521 174 503 q 180 555 174 539 q 199 582 187 570 q 227 601 211 594 q 260 608 242 608 m 1128 608 q 1162 601 1147 608 q 1190 582 1178 594 q 1208 555 1202 570 q 1215 521 1215 539 q 1208 487 1215 503 q 1190 459 1202 471 q 1162 441 1178 448 q 1128 434 1147 434 q 1095 441 1110 434 q 1067 459 1079 448 q 1048 487 1055 471 q 1042 521 1042 503 q 1048 555 1042 539 q 1067 582 1055 570 q 1095 601 1079 594 q 1128 608 1110 608 m 1364 781 l 1319 737 q 1326 717 1320 734 q 1339 677 1331 700 q 1356 627 1347 654 q 1372 579 1364 601 q 1384 542 1379 557 q 1389 528 1389 528 l 1389 87 q 1382 53 1389 68 q 1363 25 1375 37 q 1336 7 1352 14 q 1302 0 1320 0 l 1215 0 q 1181 7 1197 0 q 1154 25 1166 14 q 1135 53 1142 37 q 1128 87 1128 68 l 260 87 q 254 53 260 68 q 235 25 247 37 q 208 7 223 14 q 174 0 192 0 l 87 0 q 53 7 68 0 q 25 25 37 14 q 7 53 14 37 q 0 87 0 68 l 0 528 q 5 542 0 528 q 17 579 9 557 q 33 627 24 601 q 50 677 42 654 q 63 717 58 700 q 70 737 68 734 l 25 781 l 0 781 l 0 868 l 62 868 l 100 829 l 151 980 q 182 1041 161 1013 q 230 1087 203 1068 q 289 1118 257 1107 q 357 1128 321 1128 l 1032 1128 q 1100 1118 1067 1128 q 1159 1087 1132 1107 q 1206 1041 1186 1068 q 1238 980 1227 1013 l 1289 829 l 1327 868 l 1389 868 l 1389 781 l 1364 781 m 357 1042 q 280 1017 314 1042 q 233 953 247 993 l 176 781 l 1213 781 l 1156 953 q 1108 1017 1142 993 q 1032 1042 1075 1042 l 357 1042 m 955 207 l 884 347 l 505 347 l 434 207 l 434 174 l 955 174 l 955 207 m 1302 174 l 1302 514 q 1298 527 1302 514 q 1288 558 1294 539 q 1274 600 1281 577 q 1259 643 1266 623 q 1247 677 1253 663 q 1242 694 1242 691 l 147 694 q 141 677 146 691 q 130 643 136 663 q 115 600 123 623 q 101 558 108 577 q 91 527 95 539 q 87 514 87 514 l 87 174 l 347 174 l 347 227 l 450 434 l 939 434 l 1042 227 l 1042 174 l 1302 174 z "},"":{"ha":1389,"x_min":174,"x_max":1302,"o":"m 998 781 q 1117 758 1061 781 q 1213 692 1172 734 q 1278 596 1255 651 q 1302 477 1302 541 q 1278 359 1302 414 q 1213 262 1255 304 q 1117 197 1172 221 q 998 174 1061 174 q 880 197 935 174 q 783 262 825 221 q 718 359 742 304 q 694 477 694 414 q 718 596 694 541 q 783 692 742 651 q 880 758 825 734 q 998 781 935 781 m 781 477 q 798 393 781 433 q 845 324 815 353 q 914 277 874 294 q 998 260 954 260 q 1061 270 1030 260 q 1118 296 1091 279 l 817 597 q 790 540 800 570 q 781 477 781 509 m 1179 358 q 1206 415 1197 385 q 1215 477 1215 446 q 1198 562 1215 522 q 1151 630 1181 601 q 1082 677 1122 660 q 998 694 1043 694 q 936 685 966 694 q 879 659 905 676 l 1179 358 m 608 260 q 626 263 617 260 q 644 269 635 265 q 668 232 655 250 q 696 199 682 215 q 608 174 656 174 q 540 187 572 174 q 485 224 509 201 q 448 280 461 248 q 434 347 434 311 l 174 347 l 174 434 l 260 434 l 260 868 q 287 1001 260 938 q 362 1114 313 1064 q 475 1189 412 1163 q 608 1215 538 1215 q 743 1188 680 1215 q 853 1114 806 1161 q 928 1003 901 1067 q 955 868 955 940 l 868 868 q 848 969 868 922 q 792 1052 827 1017 q 709 1108 756 1088 q 608 1128 661 1128 q 506 1108 553 1128 q 424 1052 459 1088 q 368 969 388 1017 q 347 868 347 922 l 347 434 l 589 434 q 595 390 591 412 q 608 347 600 368 l 521 347 q 528 313 521 329 q 546 286 534 298 q 574 267 558 274 q 608 260 589 260 z "},"":{"ha":1389,"x_min":0,"x_max":1389,"o":"m 1196 311 q 1276 256 1240 289 q 1337 183 1312 223 q 1375 96 1362 142 q 1389 0 1389 50 l 1302 0 q 1281 101 1302 54 q 1225 184 1261 149 q 1143 240 1190 219 q 1042 260 1095 260 q 941 240 988 260 q 858 184 893 219 q 802 101 823 149 q 781 0 781 54 l 694 0 q 708 96 694 50 q 747 183 722 142 q 807 256 772 223 q 887 311 843 289 q 809 404 838 348 q 781 521 781 459 q 802 622 781 574 q 858 705 823 669 q 941 761 893 740 q 1042 781 988 781 q 1143 761 1095 781 q 1225 705 1190 740 q 1281 622 1261 669 q 1302 521 1302 574 q 1274 404 1302 459 q 1196 311 1246 348 m 1042 347 q 1109 361 1077 347 q 1164 398 1141 375 q 1201 453 1187 422 q 1215 521 1215 485 q 1201 588 1215 556 q 1164 643 1187 620 q 1109 681 1141 667 q 1042 694 1077 694 q 974 681 1006 694 q 919 643 943 667 q 882 588 896 620 q 868 521 868 556 q 882 453 868 485 q 919 398 896 422 q 974 361 943 375 q 1042 347 1006 347 m 694 521 l 0 521 l 0 1215 l 1215 1215 l 1215 842 q 1128 878 1174 865 l 1128 1128 l 87 1128 l 87 608 l 694 608 l 694 521 z "},"":{"ha":1389,"x_min":0,"x_max":1389,"o":"m 1389 781 l 1389 521 q 1329 298 1389 406 q 1200 142 1283 216 q 1136 89 1168 112 q 1080 50 1105 66 q 1038 26 1055 35 q 1017 15 1021 17 l 998 6 q 982 14 985 13 q 979 16 980 16 q 959 26 975 18 q 917 50 942 35 q 860 89 891 66 q 795 141 828 111 q 723 217 755 178 q 667 298 691 256 q 608 521 608 406 l 608 781 l 651 781 q 724 785 693 781 q 778 796 754 789 q 819 811 801 802 q 853 828 837 819 q 883 843 867 836 q 915 856 898 850 q 953 865 932 861 q 998 868 973 868 q 1044 865 1023 868 q 1081 856 1064 861 q 1114 843 1099 850 q 1143 828 1129 836 q 1178 811 1160 819 q 1219 796 1196 802 q 1273 785 1242 789 q 1345 781 1303 781 l 1389 781 m 1302 696 q 1234 704 1263 698 q 1180 717 1204 709 q 1138 734 1156 725 q 1103 751 1120 743 q 1079 763 1090 758 q 1055 772 1067 768 q 1029 779 1043 777 q 998 781 1015 781 q 967 779 981 781 q 941 772 954 777 q 918 763 929 768 q 893 751 906 758 q 859 734 877 743 q 817 717 840 725 q 763 704 793 709 q 694 696 733 698 l 694 521 q 712 411 694 462 q 758 317 730 360 q 821 238 786 273 q 889 176 855 203 q 952 131 923 149 q 998 103 981 113 q 1025 119 1009 109 q 1060 141 1041 128 q 1101 171 1080 155 q 1145 208 1123 188 q 1302 521 1302 351 l 1302 696 m 87 608 l 521 608 l 521 521 l 0 521 l 0 1215 l 1215 1215 l 1215 936 q 1201 941 1208 939 q 1188 947 1194 944 q 1160 964 1175 957 q 1128 977 1145 970 l 1128 1128 l 87 1128 l 87 608 z "},"":{"ha":1389,"x_min":0,"x_max":1389,"o":"m 1389 1128 l 1389 260 l 0 260 l 0 1128 l 1389 1128 m 1302 1042 l 87 1042 l 87 347 l 1302 347 l 1302 1042 m 477 434 q 376 454 423 434 q 293 510 329 475 q 237 593 258 546 q 217 694 217 640 q 237 795 217 748 q 293 879 258 843 q 376 935 329 914 q 477 955 423 955 q 577 935 530 955 q 661 879 625 916 l 600 817 q 544 855 576 842 q 477 868 512 868 q 410 854 441 868 q 355 817 378 841 q 317 762 331 793 q 304 694 304 730 q 317 627 304 659 q 355 572 331 595 q 410 534 378 548 q 477 521 441 521 q 544 534 512 521 q 600 572 576 547 l 661 510 q 577 454 625 473 q 477 434 530 434 m 998 434 q 897 454 944 434 q 814 510 850 475 q 758 593 779 546 q 738 694 738 640 q 758 795 738 748 q 814 879 779 843 q 897 935 850 914 q 998 955 944 955 q 1098 935 1050 955 q 1182 879 1145 916 l 1121 817 q 1065 855 1097 842 q 998 868 1033 868 q 931 854 962 868 q 876 817 899 841 q 838 762 852 793 q 825 694 825 730 q 838 627 825 659 q 876 572 852 595 q 931 534 899 548 q 998 521 962 521 q 1065 534 1033 521 q 1121 572 1097 547 l 1182 510 q 1098 454 1145 473 q 998 434 1050 434 z "},"":{"ha":1389,"x_min":174,"x_max":1215,"o":"m 1215 1150 l 1215 87 q 1208 53 1215 68 q 1190 25 1202 37 q 1162 7 1178 14 q 1128 0 1147 0 l 260 0 q 227 7 242 0 q 199 25 211 14 q 180 53 187 37 q 174 87 174 68 l 174 434 l 260 521 l 260 760 l 174 868 l 174 1302 q 180 1336 174 1320 q 199 1363 187 1352 q 227 1382 211 1375 q 260 1389 242 1389 l 977 1389 l 1215 1150 m 1128 1114 l 941 1302 l 260 1302 l 260 899 l 347 790 l 347 485 q 304 441 326 463 q 260 398 282 420 l 260 87 l 1128 87 l 1128 1114 m 434 1215 l 521 1215 l 521 955 l 434 955 l 434 1215 m 608 1215 l 694 1215 l 694 955 l 608 955 l 608 1215 m 781 1215 l 868 1215 l 868 955 l 781 955 l 781 1215 z "},"":{"ha":1389,"x_min":87,"x_max":1320,"o":"m 694 955 l 1154 955 l 946 1163 l 1007 1224 l 1320 911 l 1007 599 l 946 660 l 1154 868 l 694 868 l 694 955 m 1038 503 q 1089 492 1064 503 q 1133 463 1114 482 q 1165 433 1147 449 q 1202 400 1183 417 q 1239 363 1221 382 q 1271 325 1257 345 q 1294 283 1285 304 q 1302 238 1302 261 q 1292 186 1302 212 q 1263 142 1282 161 q 1200 81 1228 108 q 1142 37 1173 55 q 1076 9 1112 18 q 988 0 1039 0 q 836 23 914 0 q 681 87 758 46 q 530 184 604 127 q 390 307 456 240 q 268 447 323 373 q 172 598 212 521 q 110 752 132 675 q 87 901 87 829 q 96 989 87 952 q 123 1055 105 1025 q 168 1113 141 1085 q 229 1176 194 1141 q 273 1205 248 1195 q 325 1215 298 1215 q 390 1197 359 1215 q 450 1152 422 1179 q 504 1097 479 1126 q 550 1046 529 1067 q 579 1002 569 1027 q 589 951 589 977 q 581 904 589 924 q 558 866 572 883 q 530 834 545 848 q 502 808 515 821 q 479 782 488 795 q 471 756 471 770 q 483 730 471 748 q 517 688 496 712 q 565 636 538 664 q 622 578 593 608 q 681 520 652 549 q 736 468 711 492 q 781 425 762 444 q 809 398 800 407 q 843 384 823 384 q 870 393 857 384 q 895 415 882 401 q 921 443 907 428 q 952 472 935 458 q 990 494 969 485 q 1038 503 1010 503 m 988 87 q 1058 95 1029 87 q 1108 117 1086 102 q 1152 154 1131 132 q 1201 203 1173 176 q 1215 237 1215 218 q 1204 263 1215 246 q 1177 299 1194 279 q 1140 340 1160 319 q 1099 377 1119 360 q 1063 405 1080 394 q 1038 416 1046 416 q 1010 407 1023 416 q 985 385 998 398 q 959 356 972 372 q 928 328 945 341 q 890 306 911 315 q 843 297 869 297 q 791 308 816 297 q 747 337 766 318 l 424 661 q 394 704 405 680 q 384 756 384 729 q 393 803 384 783 q 415 841 401 824 q 443 872 428 858 q 472 899 458 886 q 494 924 485 911 q 503 951 503 937 q 492 976 503 960 q 464 1012 481 992 q 427 1053 448 1032 q 386 1090 406 1074 q 350 1118 366 1107 q 325 1128 334 1128 q 290 1114 304 1128 q 241 1065 262 1086 q 204 1022 219 1044 q 181 971 189 999 q 174 903 174 943 q 195 768 174 838 q 253 628 216 698 q 342 492 291 559 q 454 364 394 425 q 582 253 515 304 q 719 165 650 202 q 857 107 788 128 q 988 87 925 87 z "},"":{"ha":1389,"x_min":0,"x_max":1389,"o":"m 1139 380 l 1078 441 q 1115 498 1102 466 q 1128 564 1128 530 q 1115 631 1128 599 q 1078 687 1102 663 l 1139 748 q 1196 664 1176 711 q 1215 564 1215 616 q 1196 465 1215 513 q 1139 380 1176 417 m 1262 257 l 1200 319 q 1276 431 1249 368 q 1302 564 1302 495 q 1276 697 1302 633 q 1200 810 1249 761 l 1262 871 q 1356 730 1323 810 q 1389 564 1389 651 q 1356 398 1389 477 q 1262 257 1323 319 m 1215 955 l 1215 1128 l 87 1128 l 87 521 l 608 521 l 608 434 l 0 434 l 0 1215 l 1302 1215 l 1302 955 l 1215 955 m 980 868 l 1042 868 l 1042 260 l 980 260 l 806 434 l 694 434 l 694 694 l 806 694 l 980 868 m 955 720 l 843 608 l 781 608 l 781 521 l 843 521 l 955 409 l 955 720 m 857 260 l 434 260 l 434 347 l 770 347 l 857 260 z "},"":{"ha":1389,"x_min":0,"x_max":1302,"o":"m 1302 434 l 694 434 l 694 347 l 868 347 l 868 260 l 434 260 l 434 347 l 608 347 l 608 434 l 0 434 l 0 1215 l 1302 1215 l 1302 434 m 87 1128 l 87 521 l 1215 521 l 1215 1128 l 87 1128 z "},"":{"ha":1389,"x_min":260,"x_max":1128,"o":"m 347 1215 l 347 87 l 1042 87 l 1042 1215 l 347 1215 m 1128 0 l 260 0 l 260 1302 l 1128 1302 l 1128 0 m 694 608 q 593 628 641 608 q 511 684 546 649 q 455 767 475 720 q 434 868 434 814 q 455 969 434 922 q 511 1052 475 1017 q 593 1108 546 1087 q 694 1128 641 1128 q 795 1108 748 1128 q 878 1052 843 1087 q 934 969 913 1017 q 955 868 955 922 q 934 767 955 814 q 878 684 913 720 q 795 628 843 649 q 694 608 748 608 m 694 1042 q 627 1028 659 1042 q 572 990 595 1014 q 535 935 549 967 q 521 868 521 903 q 535 801 521 832 q 572 746 549 769 q 627 708 595 722 q 694 694 659 694 q 762 708 730 694 q 817 746 793 722 q 854 801 840 769 q 868 868 868 832 q 854 935 868 903 q 817 990 840 967 q 762 1028 793 1014 q 694 1042 730 1042 m 694 174 q 627 188 659 174 q 572 225 595 201 q 535 280 549 248 q 521 347 521 311 q 535 414 521 382 q 572 470 549 446 q 627 507 595 493 q 694 521 659 521 q 762 507 730 521 q 817 470 793 493 q 854 414 840 446 q 868 347 868 382 q 854 280 868 311 q 817 225 840 248 q 762 188 793 201 q 694 174 730 174 m 694 434 q 661 427 676 434 q 633 409 645 420 q 614 381 621 397 q 608 347 608 366 q 614 313 608 329 q 633 286 621 298 q 661 267 645 274 q 694 260 676 260 q 728 267 713 260 q 756 286 744 274 q 774 313 768 298 q 781 347 781 329 q 774 381 781 366 q 756 409 768 397 q 728 427 744 420 q 694 434 713 434 m 629 868 q 634 893 629 881 q 649 914 640 905 q 669 928 658 923 q 694 933 681 933 q 719 928 707 933 q 740 914 731 923 q 754 893 749 905 q 760 868 760 881 q 754 843 760 854 q 740 822 749 831 q 719 808 731 813 q 694 803 707 803 q 669 808 681 803 q 649 822 658 813 q 634 843 640 831 q 629 868 629 854 z "},"":{"ha":1389,"x_min":174,"x_max":1215,"o":"m 694 1302 q 833 1283 766 1302 q 957 1231 899 1265 q 1063 1149 1015 1197 q 1144 1044 1110 1102 q 1197 920 1178 986 q 1215 781 1215 853 l 1215 304 q 1205 253 1215 277 q 1177 212 1195 229 q 1136 184 1160 194 q 1085 174 1112 174 l 955 174 l 955 694 l 1085 694 q 1128 687 1107 694 l 1128 781 q 1094 950 1128 871 q 1001 1088 1060 1029 q 863 1181 942 1147 q 694 1215 784 1215 q 526 1181 605 1215 q 388 1088 447 1147 q 295 950 329 1029 q 260 781 260 871 l 260 687 q 304 694 281 694 l 434 694 l 434 174 l 304 174 q 253 184 277 174 q 212 212 229 194 q 184 253 194 229 q 174 304 174 277 l 174 781 q 192 920 174 853 q 245 1044 211 986 q 326 1149 279 1102 q 432 1231 374 1197 q 556 1283 490 1265 q 694 1302 623 1302 m 304 608 q 273 595 286 608 q 260 564 260 582 l 260 304 q 273 273 260 286 q 304 260 286 260 l 347 260 l 347 608 l 304 608 m 1085 260 q 1116 273 1103 260 q 1128 304 1128 286 l 1128 564 q 1116 595 1128 582 q 1085 608 1103 608 l 1042 608 l 1042 260 l 1085 260 z "},"":{"ha":1389,"x_min":87,"x_max":1389,"o":"m 1356 441 q 1370 422 1364 434 q 1380 397 1376 410 q 1387 371 1384 384 q 1389 347 1389 357 q 1382 315 1389 330 q 1362 287 1375 299 q 1335 268 1350 275 q 1302 260 1319 260 l 174 260 q 141 268 157 260 q 113 287 125 275 q 94 315 101 299 q 87 347 87 330 q 89 371 87 357 q 96 397 92 384 q 106 422 100 410 q 119 441 112 434 l 260 583 l 260 1128 l 1215 1128 l 1215 583 l 1356 441 m 1128 868 q 1027 848 1074 868 q 944 792 980 827 q 888 709 909 756 q 868 608 868 661 l 1128 608 l 1128 868 m 347 608 l 781 608 q 808 743 781 680 q 883 853 836 806 q 993 928 930 901 q 1128 955 1057 955 l 1128 1042 l 347 1042 l 347 608 m 1302 349 q 1301 357 1302 352 q 1298 367 1300 362 q 1295 377 1297 372 q 1291 384 1293 382 l 1154 521 l 322 521 l 184 384 q 181 377 182 382 q 177 367 179 372 q 175 357 176 362 q 174 349 174 352 l 176 347 l 1300 347 l 1302 349 z "},"":{"ha":1389,"x_min":87,"x_max":1389,"o":"m 1356 441 q 1370 422 1364 434 q 1380 397 1376 410 q 1387 371 1384 384 q 1389 347 1389 357 q 1382 315 1389 330 q 1362 287 1375 299 q 1335 268 1350 275 q 1302 260 1319 260 l 174 260 q 141 268 157 260 q 113 287 125 275 q 94 315 101 299 q 87 347 87 330 q 89 371 87 357 q 96 397 92 384 q 106 422 100 410 q 119 441 112 434 l 260 583 l 260 1128 l 1215 1128 l 1215 583 l 1356 441 m 347 608 l 1128 608 l 1128 1042 l 347 1042 l 347 608 m 1302 349 q 1301 357 1302 352 q 1298 367 1300 362 q 1295 377 1297 372 q 1291 384 1293 382 l 1154 521 l 322 521 l 184 384 q 181 377 182 382 q 177 367 179 372 q 175 357 176 362 q 174 349 174 352 l 176 347 l 1300 347 l 1302 349 z "},"":{"ha":1389,"x_min":0,"x_max":1302,"o":"m 1302 1389 l 1302 521 l 0 521 l 0 1389 l 1302 1389 m 1215 1128 q 1077 1110 1143 1128 q 952 1057 1010 1091 q 847 976 895 1023 q 766 870 800 928 q 713 746 732 812 q 694 608 694 680 l 1215 608 l 1215 1128 m 1215 1302 l 87 1302 l 87 608 l 608 608 q 629 769 608 692 q 691 915 651 847 q 786 1037 730 982 q 908 1132 841 1093 q 1054 1194 976 1172 q 1215 1215 1131 1215 l 1215 1302 z "},"":{"ha":1389,"x_min":0,"x_max":1302,"o":"m 1302 1389 l 1302 521 l 0 521 l 0 1389 l 1302 1389 m 608 608 q 589 746 608 680 q 536 870 570 812 q 455 976 503 928 q 350 1057 408 1023 q 225 1110 292 1091 q 87 1128 159 1128 l 87 608 l 608 608 m 1215 1302 l 87 1302 l 87 1215 q 249 1194 171 1215 q 394 1132 326 1172 q 516 1037 461 1093 q 611 915 572 982 q 673 769 651 847 q 694 608 694 692 l 1215 608 l 1215 1302 z "},"":{"ha":1389,"x_min":0,"x_max":1302,"o":"m 1302 521 l 0 521 l 0 1389 l 1302 1389 l 1302 521 l 1302 521 m 87 608 l 1215 608 l 1215 1302 l 87 1302 l 87 608 l 87 608 z "},"":{"ha":1389,"x_min":9,"x_max":1389,"o":"m 1389 1128 l 1389 1042 l 521 1042 l 521 1128 l 1389 1128 m 521 868 l 1389 868 l 1389 781 l 521 781 l 521 868 m 521 608 l 1389 608 l 1389 521 l 521 521 l 521 608 m 521 347 l 1389 347 l 1389 260 l 521 260 l 521 347 m 324 718 l 370 671 l 130 431 l 9 552 l 56 598 l 130 524 l 324 718 m 324 1238 l 370 1192 l 130 952 l 9 1073 l 56 1119 l 130 1044 l 324 1238 z "},"":{"ha":1389,"x_min":0,"x_max":1389,"o":"m 960 538 l 1128 0 l 694 334 l 260 0 l 429 538 l 0 868 l 532 868 l 694 1389 l 857 868 l 1389 868 l 960 538 z "},"":{"ha":1389,"x_min":176,"x_max":1215,"o":"m 781 1042 l 1067 1042 q 975 1137 1019 1090 q 884 1219 931 1183 q 780 1277 836 1255 q 651 1299 724 1299 q 501 1269 572 1299 q 378 1185 431 1238 q 294 1061 325 1132 q 263 911 263 991 q 292 765 263 836 q 375 642 321 695 l 942 74 l 881 13 l 313 580 q 212 732 248 646 q 176 911 176 819 q 193 1037 176 977 q 241 1150 210 1097 q 316 1246 273 1203 q 412 1321 359 1290 q 526 1369 465 1352 q 651 1386 586 1386 q 755 1376 708 1386 q 843 1347 802 1365 q 919 1302 883 1328 q 988 1244 954 1276 q 1057 1177 1023 1213 q 1128 1103 1090 1141 l 1128 1389 l 1215 1389 l 1215 955 l 781 955 l 781 1042 z "},"":{"ha":1389,"x_min":195,"x_max":1194,"o":"m 195 1085 l 1194 1085 l 890 477 l 499 477 l 195 1085 l 195 1085 z "},"":{"ha":1389,"x_min":43,"x_max":1345,"o":"m 1345 1085 q 1237 1058 1285 1085 q 1155 988 1189 1031 q 1103 891 1122 945 q 1085 781 1085 836 l 1085 564 l 304 564 l 304 781 q 286 891 304 836 q 234 988 267 945 q 152 1058 200 1031 q 43 1085 103 1085 l 1345 1085 z "},"":{"ha":1389,"x_min":43,"x_max":781,"o":"m 781 260 l 651 130 l 326 130 l 66 390 q 49 416 54 401 q 43 445 43 430 q 48 473 43 459 q 64 498 54 487 l 304 738 l 781 260 z "},"":{"ha":1389,"x_min":304,"x_max":1324,"o":"m 846 1280 l 1324 803 l 781 260 l 304 738 l 846 1280 l 846 1280 z "},"":{"ha":1389,"x_min":0,"x_max":1128,"o":"m 1128 1389 l 1128 0 l 174 0 q 106 14 138 0 q 51 51 75 27 q 14 106 27 75 q 0 174 0 138 l 0 1215 q 15 1280 0 1249 q 53 1336 29 1312 q 109 1374 77 1360 q 174 1389 140 1389 l 1128 1389 m 1042 260 l 174 260 q 140 254 155 260 q 112 235 124 247 q 94 208 100 223 q 87 174 87 192 q 94 140 87 155 q 112 112 100 124 q 140 94 124 100 q 174 87 155 87 l 1042 87 l 1042 260 m 87 324 q 174 347 127 347 l 1042 347 l 1042 1302 l 174 1302 q 142 1294 158 1302 q 115 1274 127 1286 q 95 1246 102 1262 q 87 1215 87 1231 l 87 324 m 260 1128 l 868 1128 l 868 868 l 260 868 l 260 1128 m 347 955 l 781 955 l 781 1042 l 347 1042 l 347 955 z "},"":{"ha":1389,"x_min":0,"x_max":1389,"o":"m 87 174 q 94 140 87 155 q 112 112 100 124 q 140 94 124 100 q 174 87 155 87 l 955 87 l 955 0 l 174 0 q 106 14 138 0 q 51 51 75 27 q 14 106 27 75 q 0 174 0 138 l 0 1215 q 15 1280 0 1249 q 53 1336 29 1312 q 109 1374 77 1360 q 174 1389 140 1389 l 1128 1389 l 1128 694 l 1042 694 l 1042 1302 l 174 1302 q 142 1294 158 1302 q 115 1274 127 1286 q 95 1246 102 1262 q 87 1215 87 1231 l 87 324 q 174 347 126 347 l 694 347 l 694 260 l 174 260 q 140 254 155 260 q 112 235 124 247 q 94 208 100 223 q 87 174 87 192 m 260 868 l 260 1128 l 868 1128 l 868 868 l 260 868 m 347 955 l 781 955 l 781 1042 l 347 1042 l 347 955 m 1389 260 l 1128 260 l 1128 0 l 1042 0 l 1042 260 l 781 260 l 781 347 l 1042 347 l 1042 608 l 1128 608 l 1128 347 l 1389 347 l 1389 260 z "},"":{"ha":1389,"x_min":174,"x_max":1128,"o":"m 651 1389 q 778 1372 717 1389 q 892 1324 839 1355 q 989 1249 945 1293 q 1063 1153 1032 1206 q 1112 1038 1095 1099 q 1128 911 1128 977 q 1091 729 1128 813 q 985 576 1054 645 q 898 452 928 521 q 868 304 868 384 l 868 130 q 858 79 868 103 q 830 38 848 56 q 789 10 812 20 q 738 0 765 0 l 564 0 q 513 10 537 0 q 472 38 490 20 q 444 79 454 56 q 434 130 434 103 l 434 304 q 404 452 434 384 q 317 576 374 521 q 211 729 248 645 q 174 911 174 813 q 191 1038 174 977 q 239 1153 208 1099 q 313 1249 270 1206 q 410 1324 357 1293 q 524 1372 463 1355 q 651 1389 585 1389 m 738 87 q 768 100 755 87 q 781 130 781 113 l 781 260 l 521 260 l 521 130 q 534 100 521 113 q 564 87 547 87 l 738 87 m 783 347 q 828 506 792 435 q 925 639 864 577 q 1011 763 981 696 q 1042 911 1042 831 q 1011 1063 1042 992 q 927 1187 980 1135 q 803 1271 874 1240 q 651 1302 732 1302 q 499 1271 570 1302 q 375 1187 428 1240 q 291 1063 322 1135 q 260 911 260 992 q 291 763 260 831 q 377 639 321 696 q 474 506 438 577 q 519 347 510 435 l 783 347 z "},"":{"ha":1389,"x_min":0,"x_max":1389,"o":"m 1389 694 l 266 694 l 723 237 l 625 139 l 0 764 l 625 1389 l 723 1291 l 266 833 l 1389 833 l 1389 694 z "},"":{"ha":1389,"x_min":166,"x_max":1223,"o":"m 1031 787 l 948 753 q 955 694 955 726 q 948 636 955 663 l 1031 602 l 999 522 l 915 556 q 833 474 884 505 l 867 390 l 787 357 l 753 441 q 694 434 726 434 q 636 441 663 434 l 602 357 l 522 390 l 556 474 q 474 556 505 505 l 390 522 l 357 602 l 441 636 q 434 694 434 663 q 441 753 434 726 l 357 787 l 390 867 l 474 833 q 556 915 505 884 l 522 999 l 602 1031 l 636 948 q 694 955 663 955 q 753 948 726 955 l 787 1031 l 867 999 l 833 915 q 915 833 884 884 l 999 867 l 1031 787 m 694 521 q 762 535 730 521 q 817 572 793 549 q 854 627 840 595 q 868 694 868 659 q 854 762 868 730 q 817 817 840 793 q 762 854 793 840 q 694 868 730 868 q 627 854 659 868 q 572 817 595 840 q 535 762 549 793 q 521 694 521 730 q 535 627 521 659 q 572 572 549 595 q 627 535 595 549 q 694 521 659 521 m 1223 217 l 1067 62 l 1017 112 l 1078 174 l 174 174 l 174 521 l 260 521 l 260 260 l 1078 260 l 1017 322 l 1067 372 l 1223 217 m 322 1017 l 166 1172 l 322 1327 l 372 1277 l 311 1215 l 1215 1215 l 1215 868 l 1128 868 l 1128 1128 l 311 1128 l 372 1067 l 322 1017 z "},"":{"ha":1389,"x_min":0,"x_max":1389,"o":"m 694 434 l 694 347 l 868 347 l 868 260 l 434 260 l 434 347 l 608 347 l 608 434 l 347 434 l 347 260 l 0 260 l 0 781 l 87 781 l 87 1128 l 1215 1128 l 1215 608 l 1128 608 l 1128 1042 l 174 1042 l 174 781 l 347 781 l 347 521 l 1042 521 l 1042 434 l 694 434 m 260 347 l 260 694 l 87 694 l 87 347 l 260 347 m 1215 347 l 1389 347 l 1389 260 l 1215 260 l 1215 87 l 1128 87 l 1128 260 l 955 260 l 955 347 l 1128 347 l 1128 521 l 1215 521 l 1215 347 z "},"":{"ha":1389,"x_min":174,"x_max":1215,"o":"m 1042 1389 q 1075 1382 1059 1389 q 1103 1363 1091 1375 q 1122 1336 1115 1352 q 1128 1302 1128 1320 l 1128 673 q 1135 636 1128 652 q 1151 607 1141 621 q 1172 579 1160 593 q 1193 548 1183 565 q 1209 509 1202 531 q 1215 456 1215 486 l 1215 260 q 1208 227 1215 243 q 1190 199 1202 211 q 1162 180 1178 187 q 1128 174 1146 174 l 521 174 l 521 87 q 506 39 521 60 q 467 7 492 17 q 434 0 452 0 q 372 26 398 0 l 174 224 l 174 1389 l 1042 1389 m 434 326 q 440 378 434 356 q 456 417 447 400 q 477 448 466 435 q 498 476 489 462 q 514 506 508 490 q 521 543 521 522 l 521 980 l 260 1240 l 260 260 l 434 87 l 434 326 m 1128 456 q 1122 492 1128 477 q 1106 522 1116 508 q 1085 550 1097 536 q 1064 581 1074 564 q 1048 620 1055 597 q 1042 673 1042 642 l 1042 1302 l 322 1302 l 583 1042 q 601 1014 595 1029 q 608 980 608 998 l 608 543 q 601 490 608 512 q 585 451 595 468 q 564 420 576 433 q 543 392 553 406 q 527 362 534 378 q 521 326 521 347 l 521 260 l 1128 260 l 1128 456 z "},"":{"ha":1389,"x_min":0,"x_max":538,"o":"m 174 1128 q 140 1122 155 1128 q 112 1103 124 1115 q 94 1076 100 1091 q 87 1042 87 1060 l 87 955 l 0 955 l 0 1042 q 14 1109 0 1078 q 51 1164 27 1141 q 106 1202 75 1188 q 174 1215 138 1215 l 372 1215 l 262 1326 l 323 1387 l 538 1172 l 323 957 l 262 1018 l 372 1128 l 174 1128 m 0 868 l 434 868 l 434 781 l 0 781 l 0 868 z "},"":{"ha":1389,"x_min":347,"x_max":1042,"o":"m 955 1302 q 988 1295 972 1302 q 1016 1277 1004 1289 q 1035 1249 1028 1265 q 1042 1215 1042 1233 l 1042 87 l 347 87 l 347 1215 q 354 1249 347 1233 q 373 1277 361 1265 q 400 1295 385 1289 q 434 1302 416 1302 l 955 1302 m 955 1215 l 434 1215 l 434 174 l 955 174 l 955 1215 m 868 1042 l 521 1042 l 521 1128 l 868 1128 l 868 1042 m 868 434 l 521 434 l 521 521 l 868 521 l 868 434 m 868 260 l 521 260 l 521 347 l 868 347 l 868 260 z "},"":{"ha":1389,"x_min":87,"x_max":1215,"o":"m 347 521 l 434 521 l 434 434 l 347 434 l 347 521 m 608 521 l 694 521 l 694 434 l 608 434 l 608 521 m 868 521 l 955 521 l 955 434 l 868 434 l 868 521 m 347 260 l 434 260 l 434 174 l 347 174 l 347 260 m 608 260 l 694 260 l 694 174 l 608 174 l 608 260 m 868 260 l 955 260 l 955 174 l 868 174 l 868 260 m 651 1215 q 742 1211 694 1215 q 838 1196 790 1206 q 933 1169 886 1185 q 1023 1131 981 1153 q 1103 1079 1066 1108 q 1166 1012 1139 1049 q 1202 944 1190 980 q 1215 868 1215 907 l 1215 781 q 1208 748 1215 764 q 1190 720 1202 732 q 1162 701 1178 708 q 1128 694 1146 694 l 955 694 q 921 701 937 694 q 893 720 905 708 q 875 748 882 732 q 868 781 868 764 l 868 868 l 434 868 l 434 781 q 427 748 434 764 q 409 720 420 732 q 381 701 397 708 q 347 694 365 694 l 174 694 q 140 701 156 694 q 112 720 124 708 q 94 748 100 732 q 87 781 87 764 l 87 868 q 100 944 87 907 q 136 1012 113 980 q 199 1079 163 1049 q 279 1131 236 1108 q 369 1169 321 1153 q 464 1196 416 1185 q 560 1211 512 1206 q 651 1215 608 1215 m 1128 868 q 1117 924 1128 898 q 1087 973 1105 951 q 1045 1014 1068 996 q 998 1046 1021 1031 q 918 1084 960 1068 q 830 1109 875 1099 q 740 1124 785 1119 q 651 1128 694 1128 q 562 1124 608 1128 q 472 1109 517 1119 q 385 1084 427 1099 q 304 1046 342 1068 q 257 1014 281 1031 q 215 973 234 996 q 185 924 197 951 q 174 868 174 898 l 174 781 l 347 781 l 347 868 q 354 902 347 886 q 373 929 361 918 q 400 948 385 941 q 434 955 416 955 l 868 955 q 902 948 886 955 q 929 929 918 941 q 948 902 941 918 q 955 868 955 886 l 955 781 l 1128 781 l 1128 868 z "},"":{"ha":1389,"x_min":0,"x_max":1302,"o":"m 694 1383 q 798 1362 749 1378 q 893 1316 847 1346 q 989 1265 940 1284 q 1089 1234 1038 1245 q 1194 1219 1141 1223 q 1302 1215 1247 1215 l 1302 868 q 1300 825 1302 846 q 1296 781 1299 803 l 694 781 l 694 1383 m 0 1215 q 108 1219 55 1215 q 213 1234 161 1223 q 314 1265 264 1245 q 410 1316 363 1284 q 504 1362 455 1347 q 608 1383 553 1378 l 608 781 l 6 781 q 2 825 3 803 q 0 868 0 846 l 0 1215 m 608 27 q 419 152 512 83 q 248 304 326 221 q 110 486 169 388 q 22 694 51 583 l 608 694 l 608 27 m 694 694 l 1280 694 q 1192 486 1251 583 q 1055 304 1133 388 q 883 152 976 221 q 694 27 790 83 l 694 694 z "}}}
